<?xml version="1.0" encoding="UTF-8" standalone="no"?>
<!-- Created with Inkscape (http://www.inkscape.org/) -->

<svg
   width="177.00624mm"
   height="46.77095mm"
   viewBox="0 0 177.00624 46.77095"
   version="1.1"
   id="svg5"
   xml:space="preserve"
   inkscape:version="1.2.1 (9c6d41e410, 2022-07-14)"
   sodipodi:docname="ALLEN_Career_Institute_logo.svg"
   xmlns:inkscape="http://www.inkscape.org/namespaces/inkscape"
   xmlns:sodipodi="http://sodipodi.sourceforge.net/DTD/sodipodi-0.dtd"
   xmlns="http://www.w3.org/2000/svg"
   xmlns:svg="http://www.w3.org/2000/svg"><sodipodi:namedview
     id="namedview7"
     pagecolor="#505050"
     bordercolor="#eeeeee"
     borderopacity="1"
     inkscape:showpageshadow="0"
     inkscape:pageopacity="0"
     inkscape:pagecheckerboard="0"
     inkscape:deskcolor="#505050"
     inkscape:document-units="mm"
     showgrid="false"
     inkscape:zoom="1.4142136"
     inkscape:cx="296.98485"
     inkscape:cy="90.863221"
     inkscape:window-width="1920"
     inkscape:window-height="991"
     inkscape:window-x="-9"
     inkscape:window-y="-9"
     inkscape:window-maximized="1"
     inkscape:current-layer="layer1"
     showguides="true"><sodipodi:guide
       position="23.66367,10.64737"
       orientation="0,-1"
       id="guide5658"
       inkscape:locked="false" /><sodipodi:guide
       position="103.78281,42.740931"
       orientation="1,0"
       id="guide393"
       inkscape:locked="false" /><sodipodi:guide
       position="43.311029,42.60823"
       orientation="0,-1"
       id="guide395"
       inkscape:locked="false" /><sodipodi:guide
       position="137.71562,44.660356"
       orientation="1,0"
       id="guide397"
       inkscape:locked="false" /><sodipodi:guide
       position="170.85874,42.608231"
       orientation="1,0"
       id="guide399"
       inkscape:locked="false" /><sodipodi:guide
       position="133.46441,27.430659"
       orientation="1,0"
       id="guide401"
       inkscape:locked="false" /><sodipodi:guide
       position="133.46441,16.883571"
       orientation="0,-1"
       id="guide403"
       inkscape:locked="false" /><sodipodi:guide
       position="127.60616,28.00017"
       orientation="1,0"
       id="guide405"
       inkscape:locked="false" /><sodipodi:guide
       position="20.733621,22.18108"
       orientation="0,-1"
       id="guide552"
       inkscape:locked="false" /><sodipodi:guide
       position="18.661981,20.07896"
       orientation="1,0"
       id="guide554"
       inkscape:locked="false" /><sodipodi:guide
       position="22.805251,20.07896"
       orientation="1,0"
       id="guide556"
       inkscape:locked="false" /><sodipodi:guide
       position="20.733621,17.97685"
       orientation="0,-1"
       id="guide558"
       inkscape:locked="false" /></sodipodi:namedview><defs
     id="defs2"><inkscape:path-effect
       effect="powerstroke"
       id="path-effect2041"
       is_visible="true"
       lpeversion="1"
       offset_points="0,0.024629838"
       not_jump="false"
       sort_points="true"
       interpolator_type="CubicBezierJohan"
       interpolator_beta="0.2"
       start_linecap_type="zerowidth"
       linejoin_type="extrp_arc"
       miter_limit="4"
       scale_width="1"
       end_linecap_type="zerowidth" /><inkscape:path-effect
       effect="powerstroke"
       id="path-effect1912"
       is_visible="true"
       lpeversion="1"
       offset_points="6.9999944,-0.024629838"
       not_jump="false"
       sort_points="true"
       interpolator_type="CubicBezierJohan"
       interpolator_beta="0.2"
       start_linecap_type="zerowidth"
       linejoin_type="extrp_arc"
       miter_limit="4"
       scale_width="1"
       end_linecap_type="zerowidth" /></defs><g
     inkscape:label="Layer 1"
     inkscape:groupmode="layer"
     id="layer1"
     transform="translate(-177.035,-468.00012)"><path
       style="display:inline;fill:#2957a4;fill-opacity:1;stroke:none;stroke-width:0.264583px;stroke-linecap:butt;stroke-linejoin:miter;stroke-opacity:1"
       d="m 220.06539,472.16284 h 15.20091 v 25.67794 l 11.78658,0.0468 -2.86344,13.07856 h -24.11825 z"
       id="path4225"
       sodipodi:nodetypes="ccccccc" /><path
       style="fill:#2957a4;fill-opacity:1;stroke:none;stroke-width:0.264583px;stroke-linecap:butt;stroke-linejoin:miter;stroke-opacity:1"
       d="m 250.6667,472.16284 h 15.10741 l 0.0935,25.67794 11.78658,0.0468 -2.95694,13.07856 H 250.6667 Z"
       id="path4225-8"
       sodipodi:nodetypes="ccccccc" /><path
       style="fill:#2957a4;fill-opacity:1;stroke:none;stroke-width:0.264583px;stroke-linecap:butt;stroke-linejoin:miter;stroke-opacity:1"
       d="m 280.81781,472.16284 h 26.12761 l 3.55399,13.08598 -14.75122,-0.002 c -0.9821,0.16591 -0.71099,1.5294 -0.0276,1.52401 l 8.92062,7e-5 v 9.45613 l -8.92173,7e-5 c -0.66203,0.26964 -0.6281,1.4223 -0.0468,1.66047 l 14.82678,-7e-5 -3.45475,13.07871 h -26.22685 z"
       id="path5033"
       sodipodi:nodetypes="ccccccccccccc" /><path
       style="fill:#2957a4;fill-opacity:1;stroke:none;stroke-width:0.264583px;stroke-linecap:butt;stroke-linejoin:miter;stroke-opacity:1"
       d="m 314.75062,469.98449 v 40.98165 h 15.37155 l 0.007,-10.37266 17.76457,14.17759 v -42.60823 h -15.22768 c -0.002,0.0393 -0.0173,10.21348 -0.0173,10.21348 z"
       id="path5508"
       sodipodi:nodetypes="ccccccccc" /><g
       aria-label="®"
       id="text5564"
       style="font-size:8.60491px;line-height:1.25;stroke-width:0.215124"><path
         d="m 354.04124,473.63565 c 0,-1.35712 -1.07141,-2.42853 -2.42853,-2.42853 h -0.0294 c -1.36133,0 -2.43274,1.07141 -2.43274,2.42853 v 0.0294 c 0,1.36132 1.07141,2.43274 2.43274,2.43274 h 0.0294 c 1.35712,0 2.42853,-1.07142 2.42853,-2.43274 z m -0.5378,0 v 0.0294 c 0,1.06301 -0.83192,1.89493 -1.89073,1.89493 h -0.0294 c -1.06301,0 -1.89493,-0.83192 -1.89493,-1.89493 v -0.0294 c 0,-1.05881 0.83192,-1.89073 1.89493,-1.89073 h 0.0294 c 1.05881,0 1.89073,0.83192 1.89073,1.89073 z m -2.88231,1.26048 h 0.55041 v -0.87393 h 0.44537 l 0.48319,0.87393 h 0.62604 l -0.55041,-0.96637 c 0.29831,-0.11764 0.47058,-0.39495 0.47058,-0.70167 v -0.004 c 0,-0.50839 -0.34033,-0.81511 -0.93696,-0.81511 h -1.08822 z m 0.55041,-1.3025 v -0.71847 h 0.47058 c 0.2689,0 0.43697,0.14285 0.43697,0.35713 v 0.004 c 0,0.21848 -0.15966,0.35713 -0.43277,0.35713 z"
         style="font-family:'SF Pro Text';-inkscape-font-specification:'SF Pro Text'"
         id="path5629" /></g><path
       id="path8870"
       style="fill:#2957a4;fill-opacity:1;stroke-width:0.269494"
       d="m 199.84025,494.69211 c 0,1.16096 -0.9275,2.10211 -2.07163,2.10211 -1.14413,0 -2.07164,-0.94114 -2.07164,-2.10211 0,-1.16097 0.9275,-2.10212 2.07164,-2.10212 1.14413,0 2.07163,0.94115 2.07163,2.10212 z m -1.96931,-26.69199 -20.83594,42.96528 15.54427,7.4e-4 2.23693,-6.84244 h 5.88247 l 2.46032,6.84244 h 15.34325 z"
       sodipodi:nodetypes="ssssscccccccc" /></g></svg>
