<?xml version="1.0" standalone="no"?>
<!DOCTYPE svg PUBLIC "-//W3C//DTD SVG 20010904//EN"
 "http://www.w3.org/TR/2001/REC-SVG-20010904/DTD/svg10.dtd">
<svg version="1.0" xmlns="http://www.w3.org/2000/svg"
 width="153.000000pt" height="159.000000pt" viewBox="0 0 153.000000 159.000000"
 preserveAspectRatio="xMidYMid meet">

<g transform="translate(0.000000,159.000000) scale(0.100000,-0.100000)"
fill="#000000" stroke="none">
<path d="M392 1197 l-362 -362 0 -403 0 -402 65 0 65 0 0 378 0 377 300 300
300 300 300 -300 300 -300 0 -217 0 -218 -460 0 -460 0 0 -65 0 -65 525 0 525
0 0 308 0 307 -363 363 c-199 199 -364 362 -367 362 -3 0 -168 -163 -368 -363z"/>
<path d="M497 1012 l-257 -257 0 -363 0 -362 625 0 625 0 0 60 0 60 -560 0
-560 0 0 278 0 277 195 195 195 195 195 -195 195 -195 0 -142 0 -143 65 0 65
0 0 168 0 167 -258 258 c-141 141 -259 257 -262 257 -3 0 -121 -116 -263 -258z"/>
</g>
</svg>
