<?xml version="1.0" standalone="no"?>
<!DOCTYPE svg PUBLIC "-//W3C//DTD SVG 20010904//EN"
 "http://www.w3.org/TR/2001/REC-SVG-20010904/DTD/svg10.dtd">
<svg version="1.0" xmlns="http://www.w3.org/2000/svg"
 width="461.000000pt" height="148.000000pt" viewBox="0 0 461.000000 148.000000"
 preserveAspectRatio="xMidYMid meet">

<g transform="translate(0.000000,148.000000) scale(0.100000,-0.100000)"
fill="#000000" stroke="none">
<path d="M388 1063 l-258 -258 0 -290 -1 -290 45 -3 46 -3 0 273 0 273 215
215 215 215 215 -215 215 -215 0 -157 0 -158 -330 0 -330 0 0 -45 0 -45 375 0
375 0 0 223 0 222 -258 258 c-141 141 -259 257 -262 257 -3 0 -121 -116 -262
-257z"/>
<path d="M1948 1206 c-252 -89 -478 -361 -478 -574 0 -74 19 -112 75 -150 81
-56 266 -3 395 114 49 45 67 77 70 124 3 55 2 56 -37 19 -145 -137 -294 -213
-368 -189 -37 12 -45 26 -45 75 0 166 242 439 453 511 87 29 100 3 35 -71 -52
-59 -121 -105 -148 -98 -16 4 -20 0 -20 -19 0 -31 29 -58 61 -58 39 0 122 54
179 117 85 93 99 145 51 194 -26 26 -36 29 -93 29 -40 0 -87 -9 -130 -24z"/>
<path d="M457 922 l-187 -187 0 -258 0 -257 449 0 449 0 4 34 c2 19 2 39 0 45
-3 8 -121 11 -408 11 l-404 0 0 193 0 192 145 145 145 145 140 -140 140 -140
0 -102 0 -103 45 0 45 0 0 123 0 122 -183 183 c-100 100 -184 182 -187 182 -3
0 -90 -84 -193 -188z"/>
<path d="M3363 923 c-38 -60 -98 -155 -134 -212 -81 -132 -184 -220 -210 -180
-15 24 -11 33 75 170 99 159 103 169 76 194 -15 14 -29 16 -61 11 -60 -10 -96
-31 -173 -105 -57 -55 -65 -60 -48 -31 19 33 26 58 23 87 0 7 -12 20 -25 29
-23 14 -28 14 -68 -4 -24 -10 -69 -40 -101 -66 l-57 -46 35 46 c54 70 46 97
-21 74 -32 -11 -102 -114 -168 -247 -35 -70 -88 -123 -125 -123 -28 0 -5 88
54 206 31 63 54 121 51 129 -7 19 -50 19 -69 0 -13 -13 -16 -13 -27 0 -20 25
-99 19 -159 -12 -70 -34 -162 -126 -191 -188 -34 -72 -38 -143 -11 -177 46
-58 125 -40 215 48 l46 46 0 -41 c0 -60 37 -96 88 -87 20 4 57 10 81 14 42 7
48 12 105 92 107 151 256 289 256 237 0 -7 -38 -79 -85 -160 -47 -81 -83 -152
-80 -157 3 -6 21 -10 39 -10 29 0 40 9 98 83 72 90 249 267 267 267 6 0 -15
-39 -47 -87 -71 -106 -96 -165 -88 -209 8 -42 35 -64 89 -72 l46 -7 -70 -114
c-68 -113 -81 -155 -57 -179 21 -21 32 -13 69 46 20 31 71 112 114 180 l77
122 24 -25 c29 -32 64 -32 130 -1 114 53 264 259 264 361 0 30 -30 55 -66 55
-32 0 -131 -54 -178 -98 -37 -35 -28 -17 58 114 74 111 80 134 38 134 -25 0
-37 -13 -99 -107z m-1024 -170 c-81 -112 -220 -236 -240 -216 -24 24 76 170
154 225 30 22 91 47 115 48 7 0 -6 -26 -29 -57z m1151 -33 c-27 -52 -91 -123
-147 -161 -42 -29 -96 -38 -108 -18 -9 13 212 235 245 247 34 13 38 -13 10
-68z"/>
<path d="M4295 901 c-113 -40 -182 -87 -211 -143 -35 -66 -5 -108 96 -132 81
-21 110 -33 110 -46 0 -17 -79 -48 -130 -52 -40 -3 -46 0 -58 25 -7 15 -17 27
-23 27 -5 0 -9 9 -9 19 0 34 -16 31 -56 -10 -48 -50 -92 -75 -107 -60 -14 14
22 112 89 237 30 56 54 106 54 113 0 14 -45 15 -70 1 -11 -6 -39 -41 -63 -78
-24 -37 -86 -112 -138 -165 -86 -89 -119 -113 -119 -87 0 14 42 102 94 199 52
95 56 117 24 127 -16 5 -27 0 -43 -18 -29 -34 -133 -219 -150 -269 -32 -90
-12 -149 51 -149 37 0 63 17 142 94 52 51 61 56 53 33 -17 -45 -13 -76 15
-104 21 -21 32 -25 65 -20 22 3 56 17 75 32 29 22 38 25 45 14 5 -8 9 -17 9
-20 0 -3 11 -11 25 -17 90 -41 275 28 312 115 12 31 12 38 -2 59 -23 35 -51
50 -135 69 -41 10 -79 21 -83 25 -19 17 100 93 165 105 33 6 36 5 32 -13 -10
-38 54 -35 98 5 25 22 24 79 -1 93 -29 15 -99 11 -156 -9z"/>
</g>
</svg>
