<?xml version="1.0" standalone="no"?>
<!DOCTYPE svg PUBLIC "-//W3C//DTD SVG 20010904//EN"
 "http://www.w3.org/TR/2001/REC-SVG-20010904/DTD/svg10.dtd">
<svg version="1.0" xmlns="http://www.w3.org/2000/svg"
 width="461.000000pt" height="148.000000pt" viewBox="0 0 461.000000 148.000000"
 preserveAspectRatio="xMidYMid meet">

<g transform="translate(0.000000,148.000000) scale(0.100000,-0.100000)"
fill="#000000" stroke="none">
<path d="M388 1063 l-258 -258 0 -290 -1 -290 45 -3 46 -3 0 273 0 273 215
215 215 215 215 -215 215 -215 0 -157 0 -158 -330 0 -330 0 0 -45 0 -45 375 0
375 0 0 223 0 222 -258 258 c-141 141 -259 257 -262 257 -3 0 -121 -116 -262
-257z"/>
<path d="M457 922 l-187 -187 0 -258 0 -257 449 0 449 0 4 34 c2 19 2 39 0 45
-3 8 -121 11 -408 11 l-404 0 0 193 0 192 145 145 145 145 140 -140 140 -140
0 -102 0 -103 45 0 45 0 0 123 0 122 -183 183 c-100 100 -184 182 -187 182 -3
0 -90 -84 -193 -188z"/>
</g>
</svg>
