<?xml version="1.0" standalone="no"?>
<!DOCTYPE svg PUBLIC "-//W3C//DTD SVG 20010904//EN"
 "http://www.w3.org/TR/2001/REC-SVG-20010904/DTD/svg10.dtd">
<svg version="1.0" xmlns="http://www.w3.org/2000/svg"
 width="377.000000pt" height="343.000000pt" viewBox="0 0 377.000000 343.000000"
 preserveAspectRatio="xMidYMid meet">

<g transform="translate(0.000000,343.000000) scale(0.100000,-0.100000)"
fill="#000000" stroke="none">
<path d="M1512 2907 l-362 -362 0 -405 0 -405 65 3 65 4 0 376 0 377 300 300
300 300 300 -300 300 -300 0 -217 0 -218 -460 0 -460 0 0 -65 0 -65 525 0 525
0 0 308 0 307 -363 363 c-199 199 -364 362 -367 362 -3 0 -168 -163 -368 -363z"/>
<path d="M1617 2722 l-257 -257 0 -363 0 -362 625 0 625 0 0 60 0 60 -560 0
-560 0 0 278 0 277 195 195 195 195 195 -195 195 -195 0 -142 0 -143 65 0 65
0 0 168 0 167 -258 258 c-141 141 -259 257 -262 257 -3 0 -121 -116 -263 -258z"/>
<path d="M765 1663 c-95 -23 -242 -105 -343 -191 -116 -100 -228 -268 -262
-394 -7 -26 -11 -78 -8 -117 3 -60 8 -75 34 -108 47 -59 86 -75 169 -70 90 6
173 35 257 93 117 79 168 151 168 237 0 36 -9 34 -51 -9 -58 -61 -190 -156
-266 -191 -112 -52 -183 -45 -207 21 -20 58 41 217 130 335 106 142 341 301
444 301 35 0 42 -8 28 -34 -39 -73 -150 -169 -196 -168 -51 0 -58 -49 -10 -78
37 -22 63 -19 123 15 106 60 215 195 215 265 0 31 -7 44 -35 69 -33 28 -41 31
-103 30 -37 -1 -76 -3 -87 -6z"/>
<path d="M2386 1393 c-19 -27 -88 -133 -153 -236 -77 -123 -136 -205 -170
-238 -75 -71 -133 -88 -133 -39 0 28 23 70 119 224 45 71 81 136 81 146 0 34
-36 53 -85 47 -66 -10 -117 -39 -199 -117 l-73 -70 23 47 c28 55 29 71 8 101
-23 33 -69 29 -140 -14 -32 -19 -79 -54 -103 -77 -47 -44 -46 -42 13 36 39 52
40 55 27 75 -6 11 -17 11 -50 2 -38 -10 -48 -20 -95 -93 -29 -45 -74 -123
-100 -174 -46 -90 -93 -144 -136 -158 -27 -9 -33 -2 -32 32 1 53 67 209 128
304 10 15 14 34 11 43 -8 21 -65 21 -89 -1 -10 -9 -18 -11 -18 -6 0 20 -57 35
-102 28 -106 -18 -253 -137 -309 -250 -41 -84 -45 -171 -10 -209 55 -58 134
-38 241 61 l59 54 -6 -34 c-6 -40 17 -91 48 -108 12 -6 38 -8 63 -5 22 4 63 9
89 12 43 5 52 11 75 46 100 147 248 315 304 344 59 31 47 -3 -86 -231 -78
-135 -81 -150 -31 -155 37 -4 43 0 96 68 115 147 321 354 336 338 3 -3 -24
-49 -60 -103 -75 -113 -98 -163 -99 -215 -1 -68 43 -108 118 -108 19 0 34 -2
34 -5 0 -3 -36 -65 -80 -137 -80 -133 -95 -179 -68 -206 26 -26 45 -7 128 125
172 277 182 290 191 266 25 -67 136 -52 244 34 86 68 205 253 221 345 5 31 2
41 -21 63 -22 23 -31 26 -63 20 -49 -9 -124 -50 -178 -98 -24 -21 -44 -36 -44
-33 0 4 38 65 85 135 93 142 103 171 55 171 -24 0 -36 -9 -64 -47z m-1196
-219 c0 -3 -27 -41 -60 -84 -60 -78 -157 -173 -218 -212 -28 -18 -33 -18 -38
-4 -19 49 132 239 226 284 42 20 90 29 90 16z m1313 -12 c8 -12 -19 -80 -48
-122 -38 -55 -113 -127 -162 -156 -44 -26 -103 -30 -110 -7 -5 15 220 244 267
272 38 23 46 25 53 13z"/>
<path d="M3400 1286 c-169 -60 -255 -137 -248 -223 4 -49 43 -75 142 -97 90
-20 116 -37 97 -60 -19 -23 -112 -48 -163 -44 -36 3 -44 7 -46 26 -2 13 -10
26 -18 29 -8 3 -14 16 -14 29 0 35 -21 30 -65 -17 -48 -48 -101 -83 -115 -74
-5 3 -10 18 -10 33 0 33 61 182 94 232 44 67 75 136 66 149 -12 20 -72 6 -96
-22 -11 -12 -36 -47 -56 -77 -46 -71 -191 -233 -243 -271 -35 -27 -40 -28 -44
-12 -2 10 33 90 78 178 81 158 89 186 55 199 -28 11 -49 -11 -111 -116 -126
-211 -160 -321 -114 -367 50 -50 136 -14 243 103 l47 51 -11 -36 c-15 -51 -3
-105 28 -125 35 -24 101 -14 156 24 l44 30 16 -28 c44 -76 274 -37 363 61 39
43 46 89 20 126 -18 25 -95 56 -183 73 -34 7 -65 16 -67 20 -14 23 129 111
203 126 28 6 31 4 26 -11 -18 -47 64 -49 113 -3 30 28 32 92 4 108 -33 17
-122 11 -191 -14z"/>
<path d="M2947 303 c-4 -3 -7 -24 -7 -45 l0 -39 -52 3 -53 3 -3 38 c-2 20 -6
37 -10 37 -9 0 -7 -158 2 -167 3 -3 6 12 6 35 l0 42 55 0 55 0 0 -40 c0 -22 5
-40 10 -40 6 0 10 37 10 90 0 90 -1 96 -13 83z"/>
<path d="M274 263 c-40 -95 -53 -133 -45 -133 4 0 13 11 19 25 10 21 19 25 52
25 33 0 42 -4 52 -25 20 -45 28 -26 9 23 -40 99 -52 122 -61 122 -5 0 -17 -17
-26 -37z m45 -24 c16 -46 14 -49 -19 -49 -33 0 -37 13 -18 55 15 33 24 32 37
-6z"/>
<path d="M490 215 c0 -47 4 -85 9 -85 4 0 7 18 5 40 l-3 40 61 0 60 0 -3 -34
c-2 -19 0 -38 4 -42 4 -4 7 32 7 79 0 48 -3 87 -7 87 -5 0 -8 -17 -8 -37 l0
-38 -55 0 -55 0 0 38 c0 20 -3 37 -7 37 -5 0 -8 -38 -8 -85z"/>
<path d="M1364 263 c-40 -95 -53 -133 -45 -133 4 0 13 11 19 25 10 21 19 25
52 25 33 0 42 -4 52 -25 20 -45 28 -26 9 23 -40 99 -52 122 -61 122 -5 0 -17
-17 -26 -37z m45 -24 c16 -46 14 -49 -19 -49 -33 0 -37 13 -18 55 15 33 24 32
37 -6z"/>
<path d="M2080 216 c0 -47 5 -88 10 -91 6 -4 10 11 10 39 l0 45 48 4 47 3 -47
2 c-48 2 -48 2 -48 36 0 35 0 35 53 39 l52 3 -62 2 -63 2 0 -84z"/>
<path d="M699 242 c-31 -26 -31 -78 0 -104 29 -23 53 -23 82 0 45 37 16 122
-41 122 -10 0 -28 -8 -41 -18z m71 -12 c36 -36 18 -90 -30 -90 -30 0 -50 22
-50 54 0 18 34 56 50 56 6 0 19 -9 30 -20z"/>
<path d="M849 230 c-2 -19 -1 -53 2 -75 l6 -40 2 43 c1 56 16 82 45 82 28 0
36 -15 37 -78 l2 -47 6 50 c8 62 16 75 46 75 26 0 31 -11 38 -80 2 -20 4 -8 5
27 2 54 0 62 -18 68 -12 4 -31 0 -45 -9 -20 -13 -25 -13 -35 -1 -16 20 -44 19
-61 -1 -12 -14 -14 -14 -20 3 -4 13 -7 9 -10 -17z"/>
<path d="M1117 249 c-69 -40 -14 -154 58 -121 14 6 25 16 25 22 0 6 -10 4 -24
-5 -26 -17 -52 -11 -66 16 -14 24 1 31 57 27 54 -4 62 8 33 45 -22 28 -52 34
-83 16z m61 -15 c34 -24 26 -34 -28 -34 -27 0 -50 4 -50 9 0 10 39 41 50 41 3
0 16 -7 28 -16z"/>
<path d="M1490 250 c1 -8 14 -42 29 -75 l28 -60 18 38 19 37 12 -30 c7 -16 17
-30 22 -30 11 0 65 120 57 128 -2 3 -17 -21 -31 -54 l-27 -59 -12 30 c-8 19
-10 36 -4 47 15 28 9 45 -6 18 l-15 -25 -6 23 c-3 12 -10 22 -15 22 -5 0 -4
-12 1 -26 13 -34 13 -47 -3 -68 -12 -17 -15 -14 -32 30 -19 53 -35 77 -35 54z"/>
<path d="M1730 249 c-12 -9 -10 -10 9 -5 29 6 61 -9 61 -29 0 -11 -11 -15 -40
-15 -42 0 -66 -24 -54 -54 8 -21 47 -30 72 -17 13 7 22 7 30 -1 17 -17 16 69
-1 102 -14 27 -53 37 -77 19z m68 -80 c-4 -28 -40 -42 -64 -25 -28 21 -11 46
31 46 32 0 36 -3 33 -21z"/>
<path d="M1850 257 c0 -2 11 -31 25 -65 30 -73 30 -85 8 -107 -16 -16 -15 -17
1 -14 19 4 90 163 82 184 -2 5 -8 -1 -14 -15 -5 -14 -16 -41 -24 -60 l-15 -35
-26 58 c-21 47 -37 70 -37 54z"/>
<path d="M2230 195 c0 -75 17 -89 22 -17 2 38 7 49 26 57 12 5 22 13 22 17 0
11 -8 10 -31 -2 -13 -7 -19 -7 -19 0 0 5 -4 10 -10 10 -6 0 -10 -28 -10 -65z"/>
<path d="M2340 240 c-39 -39 -12 -120 40 -120 26 0 70 43 70 68 0 30 -38 72
-66 72 -13 0 -33 -9 -44 -20z m88 -44 c7 -55 -53 -78 -83 -32 -13 19 -13 28
-4 49 7 14 19 28 28 30 25 6 56 -18 59 -47z"/>
<path d="M2490 196 c0 -37 4 -66 10 -66 6 0 10 19 10 43 0 53 11 70 41 65 22
-3 25 -9 29 -63 6 -63 17 -58 22 9 3 42 24 63 52 53 12 -5 16 -19 16 -57 0
-27 5 -50 10 -50 13 0 13 86 0 111 -13 23 -38 24 -67 4 -19 -13 -22 -13 -27 0
-6 17 -52 20 -61 5 -5 -8 -11 -7 -21 1 -12 10 -14 1 -14 -55z"/>
<path d="M3022 237 c-29 -30 -28 -62 3 -92 29 -30 58 -32 85 -5 41 41 12 120
-43 120 -13 0 -33 -10 -45 -23z m88 -28 c24 -43 -43 -92 -78 -57 -20 20 -14
65 10 82 24 17 51 8 68 -25z"/>
<path d="M3170 195 c0 -37 4 -65 10 -65 6 0 10 19 10 43 0 46 13 67 41 67 24
0 30 -12 39 -74 l8 -51 1 50 c1 56 13 75 48 75 23 0 26 -8 36 -95 2 -16 5 -3
6 30 1 63 -9 85 -40 85 -9 0 -22 -7 -29 -15 -11 -14 -15 -14 -32 2 -16 14 -24
15 -49 6 -16 -6 -29 -7 -29 -2 0 5 -4 9 -10 9 -6 0 -10 -28 -10 -65z"/>
<path d="M3432 237 c-12 -13 -22 -33 -22 -46 0 -25 42 -71 65 -71 22 0 55 18
55 31 0 5 -11 2 -25 -7 -23 -15 -27 -15 -50 0 -44 29 -32 46 30 46 48 0 55 3
55 19 0 23 -36 51 -65 51 -12 0 -31 -10 -43 -23z m81 -9 l22 -23 -49 -3 c-59
-4 -68 4 -37 29 30 24 36 24 64 -3z"/>
</g>
</svg>
