<svg id="Layer_1" enable-background="new 0 0 511.973 511.973" height="512" viewBox="0 0 511.973 511.973" width="512" xmlns="http://www.w3.org/2000/svg"><g><path d="m287.206 0h-62.438c-85.119 0-154.368 69.249-154.368 154.368v276.312h371.174v-276.312c-.001-85.119-69.25-154.368-154.368-154.368z" fill="#99544e"/><path d="m441.573 154.368c0-85.119-69.249-154.368-154.367-154.368h-31.219v430.68h185.587v-276.312z" fill="#66333e"/><path d="m350.831 359.165h-30.488v15c0 28.949-23.552 52.5-52.5 52.5h-23.712c-28.949 0-52.5-23.552-52.5-52.5v-15h-30.488c-57.802 0-104.828 47.025-104.828 104.828v47.981h399.345v-47.981c-.001-57.803-47.026-104.828-104.829-104.828z" fill="#7ed8f6"/><path d="m455.659 463.992c0-57.802-47.025-104.828-104.828-104.828h-30.488v15c0 28.949-23.552 52.5-52.5 52.5h-11.856v85.308h199.672z" fill="#2fc0f0"/><path d="m314.948 359.165v-45.791h-117.923v45.791h-35.395v15c0 45.491 37.01 82.5 82.5 82.5h23.712c45.491 0 82.5-37.01 82.5-82.5v-15z" fill="#ffddce"/><path d="m314.948 359.165v-45.791h-58.961v143.291h11.856c45.491 0 82.5-37.01 82.5-82.5v-15z" fill="#ffcbbc"/><path d="m219.317 261.054 17.488-7.33c12.19-5.109 26.173-5.108 38.364 0l17.488 7.33c21.163 8.871 43.529 13.368 66.477 13.368h11.242c7.966-17.833 12.194-37.278 12.194-57.003v-84.2h-21.078c-39.427 0-77.012-18.887-100.542-50.524l-18.121-24.363h-9.538c-57.284 0-103.888 46.604-103.888 103.888v55.199c0 19.725 4.228 39.17 12.194 57.003h11.242c22.948 0 45.314-4.497 66.478-13.368z" fill="#ffddce"/><path d="m361.491 133.219c-39.427 0-77.012-18.887-100.542-50.524l-4.963-6.673v173.87c6.543 0 13.087 1.277 19.182 3.832l17.488 7.33c21.163 8.871 43.529 13.368 66.477 13.368h11.242c7.966-17.833 12.194-37.278 12.194-57.003v-84.2z" fill="#ffcbbc"/><path d="m359.134 244.422c-18.944 0-37.409-3.713-54.88-11.036l-17.488-7.33c-19.56-8.198-41.997-8.199-61.557 0l-17.488 7.33c-17.472 7.323-35.937 11.036-54.881 11.036h-20.783c4.427 22.378 14.297 43.54 28.855 61.357 20.318 24.868 48.839 42.088 80.307 48.489l14.768 3.003 14.768-3.003c31.468-6.401 59.989-23.621 80.307-48.489 14.558-17.817 24.428-38.979 28.855-61.357z" fill="#e1ebf0"/><path d="m359.134 244.422c-18.944 0-37.409-3.713-54.88-11.036l-17.488-7.33c-9.78-4.099-20.279-6.149-30.779-6.149v137.365l14.768-3.003c31.468-6.401 59.989-23.621 80.307-48.489 14.558-17.817 24.428-38.979 28.855-61.357h-20.783z" fill="#bed9dd"/><g><path d="m190.984 176.499h30v30.002h-30z" fill="#5d5655"/></g><g><path d="m290.99 176.499h30v30.002h-30z" fill="#5d5655"/></g><g><path d="m290.99 176.499h30v30.002h-30z" fill="#3b3735"/></g></g></svg>