<svg id="Layer_1" enable-background="new 0 0 511.982 511.982" height="512" viewBox="0 0 511.982 511.982" width="512" xmlns="http://www.w3.org/2000/svg"><g><path d="m430.603 416.521c-16.396-22.457-39.06-38.803-65.542-47.273l-62.769-20.075h-92.602l-62.769 20.075c-26.482 8.47-49.146 24.816-65.542 47.273-16.395 22.457-25.061 49.023-25.061 76.827v18.634h399.345v-18.634c0-27.804-8.666-54.37-25.06-76.827z" fill="#00ccb3"/><path d="m455.663 493.348c0-27.804-8.666-54.371-25.061-76.827-16.396-22.457-39.06-38.803-65.542-47.273l-62.769-20.075h-46.301v162.809h199.672v-18.634z" fill="#00969b"/><path d="m118.276 72.917c-25.734 14.834-41.721 42.501-41.721 72.205 0 34.378 20.647 64.786 52.602 77.465l27.666 10.979 25.397-197.508z" fill="#efe2dd"/><path d="m393.706 72.917-63.944-36.859 25.397 197.508 27.665-10.979c31.955-12.68 52.603-43.087 52.603-77.465 0-29.705-15.986-57.372-41.721-72.205z" fill="#efe2dd"/><path d="m393.706 72.917-63.944-36.859 25.397 197.508 27.665-10.979c31.955-12.68 52.603-43.087 52.603-77.465 0-29.705-15.986-57.372-41.721-72.205z" fill="#e1d3ce"/><path d="m197.03 313.285v66.428c0 32.511 26.45 58.961 58.962 58.961 32.511 0 58.961-26.45 58.961-58.961v-66.429z" fill="#ffece2"/><path d="m255.991 313.284v125.39c32.511 0 58.961-26.45 58.961-58.961v-66.429z" fill="#ffddce"/><path d="m219.322 261.063 17.488-7.33c12.19-5.11 26.174-5.109 38.362 0l17.488 7.33c21.164 8.871 43.53 13.368 66.478 13.368h11.242c7.966-17.833 12.195-37.278 12.195-57.003v-90.846c-.001-69.797-56.786-126.582-126.585-126.582-69.798 0-126.583 56.785-126.583 126.583v90.846c0 19.725 4.229 39.17 12.195 57.003h11.242c22.947 0 45.313-4.498 66.478-13.369z" fill="#ffece2"/><path d="m275.172 253.733 17.488 7.33c21.164 8.871 43.53 13.368 66.478 13.368h11.242c7.966-17.833 12.195-37.278 12.195-57.003v-90.846c-.001-69.797-56.785-126.582-126.584-126.582v249.901c6.544 0 13.087 1.278 19.181 3.832z" fill="#ffddce"/><g><path d="m255.994 131.039c-9.356 0-18.711-1.767-27.617-5.301l-.104-.042c-5.268-2.08-10.811-3.134-16.475-3.134h-6.001v-30h6.001c9.497 0 18.789 1.776 27.617 5.279l.105.042c10.658 4.207 22.387 4.195 33.033-.035 8.833-3.508 18.131-5.287 27.636-5.287h6v30h-6c-5.696 0-11.269 1.066-16.562 3.168-8.907 3.54-18.271 5.31-27.633 5.31z" fill="#ffddce"/></g><path d="m359.138 244.432c-18.944 0-37.409-3.713-54.88-11.036l-17.488-7.33c-19.562-8.199-41.998-8.198-61.558 0l-17.488 7.33c-17.471 7.323-35.936 11.036-54.88 11.036h-20.783c4.427 22.378 14.297 43.54 28.855 61.357 20.318 24.868 48.839 42.088 80.308 48.489l14.768 3.003 14.768-3.003c31.468-6.401 59.988-23.621 80.307-48.489 14.558-17.817 24.428-38.979 28.855-61.357z" fill="#e1ebf0"/><g><path d="m190.988 176.508h30v30.002h-30z" fill="#5d5655"/></g><g><path d="m290.994 176.508h30v30.002h-30z" fill="#5d5655"/></g><g><path d="m290.994 176.508h30v30.002h-30z" fill="#3b3735"/></g><path d="m283.629 125.73c5.293-2.102 10.865-3.168 16.562-3.168h6v-30h-6c-9.505 0-18.803 1.779-27.636 5.287-5.339 2.121-10.951 3.181-16.563 3.18v30.009h.003c9.361.001 18.725-1.769 27.634-5.308z" fill="#ffcbbc"/><path d="m359.138 244.432c-18.944 0-37.409-3.713-54.88-11.036l-17.488-7.33c-9.78-4.099-20.28-6.149-30.778-6.149v137.365l14.768-3.003c31.468-6.401 59.988-23.621 80.307-48.489 14.558-17.817 24.428-38.979 28.855-61.357h-20.784z" fill="#bed9dd"/></g></svg>