<svg id="Layer_1" enable-background="new 0 0 511.982 511.982" height="512" viewBox="0 0 511.982 511.982" width="512" xmlns="http://www.w3.org/2000/svg"><g><path d="m423.996 126.758v-2.261c0-68.648-55.848-124.497-124.496-124.497h-87.019c-68.647 0-124.496 55.849-124.496 124.497v2.261c-12.581 13.953-19.556 32.251-19.323 51.177.501 40.839 34.546 74.063 75.893 74.063h222.873c41.346 0 75.392-33.225 75.894-74.063.231-18.927-6.744-37.224-19.326-51.177z" fill="#efe2dd"/><path d="m443.321 177.936c.232-18.928-6.742-37.225-19.324-51.178v-2.261c-.001-68.648-55.849-124.497-124.497-124.497h-43.754v251.999h111.681c41.346 0 75.392-33.225 75.894-74.063z" fill="#e1d3ce"/><path d="m430.603 416.521c-13.466-18.444-31.167-32.756-51.732-41.978v6.049l-.117.902c-4.708 36.235-35.901 63.559-72.555 63.559-19.088 0-37.028-7.315-50.452-20.122-13.428 12.806-31.369 20.122-50.452 20.122-36.536 0-67.714-27.224-72.523-63.326l-.124-.924v-6.061c-20.37 9.229-37.904 23.471-51.27 41.778-16.395 22.457-25.061 49.023-25.061 76.827v18.634h399.345v-18.634c.001-27.803-8.665-54.369-25.059-76.826z" fill="#ff415b"/><path d="m455.663 493.348c0-27.804-8.666-54.371-25.061-76.827-13.466-18.444-31.167-32.756-51.732-41.978v6.049l-.117.902c-4.708 36.235-35.901 63.559-72.555 63.559-19.088 0-37.028-7.315-50.452-20.122 0 0-.001 0-.001.001v87.049h199.917v-18.633z" fill="#e50058"/><path d="m124.53 389.7c5.132 38.521 38.399 67.57 77.384 67.57 20.361 0 39.505-7.807 53.833-21.471 14.323 13.666 33.466 21.471 53.833 21.471 39.111 0 72.395-29.156 77.418-67.819l.125-.962v-9.878c-6.995-3.752-14.361-6.9-22.062-9.363l-62.769-20.075h-92.602l-62.769 20.075c-7.87 2.517-15.392 5.745-22.523 9.607v9.859z" fill="#beebfa"/><path d="m365.061 369.248-62.769-20.075h-46.546v86.627c14.323 13.666 33.466 21.471 53.833 21.471 39.111 0 72.395-29.156 77.418-67.819l.125-.962v-9.878c-6.995-3.753-14.361-6.901-22.061-9.364z" fill="#7ed8f6"/><path d="m219.322 261.063 17.488-7.33c12.19-5.11 26.174-5.109 38.362 0l17.488 7.33c21.164 8.871 43.53 13.368 66.478 13.368h11.242c7.966-17.833 12.195-37.278 12.195-57.003v-44.748c0-33.388-22.589-62.5-54.932-70.793l-43.648-7.287c-16.624-4.263-28.234-19.226-28.234-36.388 0 17.162-11.61 32.125-28.234 36.388l-43.187 7.287c-32.343 8.293-54.932 37.405-54.932 70.793v44.749c0 19.725 4.229 39.17 12.195 57.003h11.242c22.946 0 45.312-4.498 66.477-13.369z" fill="#ffece2"/><path d="m275.172 253.733 17.488 7.33c21.164 8.871 43.53 13.368 66.478 13.368h11.242c7.966-17.833 12.195-37.278 12.195-57.003v-44.748c0-33.388-22.589-62.5-54.932-70.793l-43.648-7.287c-16.624-4.263-28.234-19.226-28.234-36.388 0 .217-.01.432-.014.648v191.047c6.624-.032 13.255 1.24 19.425 3.826z" fill="#ffddce"/><g><path d="m190.988 176.508h30v30.002h-30z" fill="#5d5655"/></g><g><path d="m290.994 176.508h30v30.002h-30z" fill="#5d5655"/></g><path d="m197.03 313.286v56.427c0 32.511 26.45 58.961 58.962 58.961 32.511 0 58.961-26.45 58.961-58.961v-56.427z" fill="#ffece2"/><path d="m255.746 313.286v115.382c.082 0 .163.006.245.006 32.511 0 58.961-26.45 58.961-58.961v-56.427z" fill="#ffddce"/><path d="m359.138 244.432c-18.944 0-37.409-3.713-54.88-11.036l-17.488-7.33c-19.562-8.199-41.998-8.198-61.558 0l-17.488 7.33c-17.471 7.323-35.936 11.036-54.88 11.036h-20.783c4.427 22.378 14.297 43.54 28.855 61.357 20.318 24.868 48.839 42.088 80.308 48.489l14.768 3.003 14.768-3.003c31.468-6.401 59.988-23.621 80.307-48.489 14.558-17.817 24.428-38.979 28.855-61.357z" fill="#e1ebf0"/><g><path d="m290.994 176.508h30v30.002h-30z" fill="#3b3735"/></g><path d="m359.138 244.432c-18.944 0-37.409-3.713-54.88-11.036l-17.488-7.33c-9.856-4.131-20.443-6.175-31.023-6.143v137.309l.245.05 14.768-3.003c31.468-6.401 59.988-23.621 80.307-48.489 14.558-17.817 24.428-38.979 28.855-61.357h-20.784z" fill="#bed9dd"/></g></svg>