<svg id="Layer_1" enable-background="new 0 0 511.957 511.957" height="512" viewBox="0 0 511.957 511.957" width="512" xmlns="http://www.w3.org/2000/svg"><g><path d="m346.642 298.975h-181.327c-38.05 0-69.007 30.956-69.007 69.006v36.242l319.34-.001v-36.241c0-38.05-30.956-69.006-69.006-69.006z" fill="#2fc0f0"/><path d="m415.648 367.981c0-38.05-30.956-69.006-69.006-69.006h-90.664v105.248h159.67z" fill="#0b799d"/><path d="m350.823 359.148h-189.689c-57.802 0-104.828 47.025-104.828 104.828v47.98h399.345v-47.98c0-57.802-47.026-104.828-104.828-104.828z" fill="#ffeb99"/><path d="m455.651 463.976c0-57.802-47.025-104.828-104.828-104.828h-94.845v152.808h199.672v-47.98z" fill="#ffda44"/><path d="m197.017 313.259v66.429c0 32.511 26.45 58.961 58.961 58.961s58.961-26.45 58.961-58.961v-66.428z" fill="#ffcbbc"/><path d="m314.94 379.688v-66.428h-58.961v125.39c32.511-.001 58.961-26.451 58.961-58.962z" fill="#ffbcae"/><path d="m351.953 3.354-6.708-3.354-22.317 11.158-22.316-11.158-22.316 11.158-22.318-11.158-22.316 11.158-22.317-11.158-22.316 11.158-22.317-11.158-6.708 3.354c-18.88 9.44-30.608 28.417-30.608 49.525v109.43h30c0-30.33 24.675-55.004 55.004-55.004h83.157c30.33 0 55.004 24.675 55.004 55.004h30v-109.43c0-21.108-11.728-40.086-30.608-49.525z" fill="#ffb655"/><path d="m351.953 3.354-6.708-3.354-22.317 11.158-22.316-11.158-22.316 11.158-22.318-11.158v107.305h41.579c30.33 0 55.004 24.675 55.004 55.004h30v-109.43c0-21.108-11.728-40.086-30.608-49.525z" fill="#ff7c48"/><path d="m219.309 261.038 17.488-7.33c12.19-5.109 26.173-5.108 38.364 0l17.488 7.33c21.163 8.871 43.529 13.368 66.477 13.368h11.242c7.966-17.833 12.194-37.278 12.194-57.003v-55.093c0-46.872-38.133-85.004-85.004-85.004h-83.158c-46.872 0-85.004 38.133-85.004 85.004v55.094c0 19.725 4.228 39.17 12.194 57.003h11.242c22.947-.001 45.313-4.498 66.477-13.369z" fill="#ffcbbc"/><path d="m275.16 253.708 17.488 7.33c21.163 8.871 43.529 13.368 66.477 13.368h11.242c7.966-17.833 12.194-37.278 12.194-57.003v-55.093c0-46.872-38.133-85.004-85.004-85.004h-41.579v172.571c6.544-.001 13.087 1.277 19.182 3.831z" fill="#ffbcae"/><g><path d="m190.975 176.482h30v30.002h-30z" fill="#5d5655"/></g><g><path d="m290.982 176.482h30v30.002h-30z" fill="#5d5655"/></g><path d="m350.823 359.148h-15v152.808h30v-151.73c-4.901-.705-9.907-1.078-15-1.078z" fill="#0b799d"/><path d="m161.134 359.148c-5.093 0-10.099.373-15 1.078v151.73h30v-152.808z" fill="#0b799d"/><path d="m359.125 244.406c-18.944 0-37.409-3.713-54.88-11.036l-17.488-7.33c-19.56-8.198-41.997-8.199-61.557 0l-17.488 7.33c-17.472 7.323-35.937 11.036-54.881 11.036h-20.783c4.427 22.378 14.297 43.54 28.855 61.357 20.318 24.868 48.839 42.088 80.307 48.489l14.768 3.003 14.768-3.003c31.468-6.401 59.989-23.621 80.307-48.489 14.558-17.817 24.428-38.979 28.855-61.357z" fill="#e1ebf0"/><g><path d="m290.982 176.482h30v30.002h-30z" fill="#3b3735"/></g><path d="m350.823 359.148h-15v152.808h30v-151.73c-4.901-.705-9.907-1.078-15-1.078z" fill="#07485e"/><path d="m359.125 244.406c-18.944 0-37.409-3.713-54.88-11.036l-17.488-7.33c-9.78-4.099-20.279-6.149-30.779-6.149v137.365l14.768-3.003c31.468-6.401 59.989-23.621 80.307-48.489 14.558-17.817 24.428-38.979 28.855-61.357h-20.783z" fill="#bed9dd"/></g></svg>