<svg id="Layer_1" enable-background="new 0 0 511.973 511.973" height="512" viewBox="0 0 511.973 511.973" width="512" xmlns="http://www.w3.org/2000/svg"><g><path d="m343.831 359.165h-28.883v-45.889h-117.923v45.89h-28.883c-57.802 0-104.828 47.025-104.828 104.828v47.98h385.344v-47.98c0-57.804-47.025-104.829-104.827-104.829z" fill="#ffddce"/><path d="m448.658 463.992c0-57.802-47.025-104.828-104.828-104.828h-28.883v-45.889h-58.95v198.698h192.661z" fill="#ffcbbc"/><path d="m375.063 89.292h-22.494v65.333c0 52.565 42.765 95.33 95.33 95.33h22.494v-65.333c.001-52.565-42.765-95.33-95.33-95.33z" fill="#c1674c"/><path d="m375.063 89.292h-22.494v65.333c0 52.565 42.765 95.33 95.33 95.33h22.494v-65.333c.001-52.565-42.765-95.33-95.33-95.33z" fill="#99544e"/><path d="m41.579 184.622v65.333h22.494c52.565 0 95.33-42.765 95.33-95.33v-65.333h-22.494c-52.565 0-95.33 42.765-95.33 95.33z" fill="#c1674c"/><path d="m278.277 0h-44.582c-57.507 0-104.292 46.785-104.292 104.292v68.834 13.001h30v-13.001c0-19.184 15.607-34.791 34.791-34.791h6.017c22.634 0 42.819-10.676 55.786-27.259 12.967 16.583 33.152 27.259 55.786 27.259h5.995c19.184 0 34.791 15.607 34.791 34.791v13.001h30v-81.835c0-57.507-46.785-104.292-104.292-104.292z" fill="#99544e"/><path d="m311.784 138.335h5.995c19.184 0 34.791 15.607 34.791 34.791v13.001h30v-81.835c-.001-57.507-46.786-104.292-104.293-104.292h-22.28v111.076c12.967 16.583 33.152 27.259 55.787 27.259z" fill="#66333e"/><path d="m219.317 261.054 17.488-7.33c12.19-5.109 26.173-5.109 38.363 0l17.488 7.33c21.163 8.871 43.529 13.368 66.477 13.368h11.242c7.966-17.833 12.194-37.278 12.194-57.003v-31.293c0-35.726-29.065-64.791-64.791-64.791h-20.995c-22.49 0-40.786-18.296-40.786-40.786v-3.226h-.011v3.226c0 22.49-18.296 40.786-40.786 40.786h-21.006c-35.726 0-64.791 29.065-64.791 64.791v31.293c0 19.725 4.228 39.17 12.194 57.003h11.242c22.948 0 45.314-4.497 66.478-13.368z" fill="#ffddce"/><path d="m317.778 121.336h-20.995c-22.49 0-40.786-18.296-40.786-40.786v169.343c6.539.001 13.079 1.279 19.17 3.832l17.488 7.33c21.163 8.871 43.529 13.368 66.477 13.368h11.242c7.966-17.833 12.194-37.278 12.194-57.003v-31.293c.001-35.726-29.064-64.791-64.79-64.791z" fill="#ffcbbc"/><g><path d="m190.983 176.499h30v30.002h-30z" fill="#5d5655"/></g><g><path d="m290.99 176.499h30v30.002h-30z" fill="#5d5655"/></g><path d="m343.831 359.165h-8.88v15c0 28.576-23.248 51.825-51.824 51.825h-54.28c-28.576 0-51.824-23.249-51.824-51.825v-15h-8.88c-7.232 0-14.296.736-21.12 2.138v150.67h217.929v-150.67c-6.825-1.402-13.889-2.138-21.121-2.138z" fill="#ff415b"/><path d="m359.133 244.422c-18.944 0-37.409-3.713-54.88-11.036l-17.488-7.33c-19.561-8.198-41.997-8.198-61.557 0l-17.488 7.33c-17.472 7.323-35.937 11.036-54.881 11.036h-20.783c4.427 22.378 14.297 43.54 28.855 61.357 20.318 24.868 48.839 42.088 80.307 48.489l14.768 3.003 14.768-3.003c31.468-6.401 59.989-23.621 80.307-48.489 14.558-17.817 24.428-38.979 28.855-61.357z" fill="#e1ebf0"/><path d="m359.133 244.422c-18.944 0-37.409-3.713-54.88-11.036l-17.488-7.33c-9.777-4.098-20.272-6.147-30.767-6.148v137.362l14.756-3.001c31.468-6.401 59.989-23.621 80.307-48.489 14.558-17.817 24.428-38.979 28.855-61.357h-20.783z" fill="#bed9dd"/><g><path d="m290.99 176.499h30v30.002h-30z" fill="#3b3735"/></g><path d="m364.951 511.973v-150.67c-6.824-1.401-13.888-2.138-21.12-2.138h-8.88v15c0 28.576-23.248 51.825-51.824 51.825h-27.129v85.983z" fill="#e50058"/></g></svg>