<svg id="Layer_1" enable-background="new 0 0 512.64 512.64" height="512" viewBox="0 0 512.64 512.64" width="512" xmlns="http://www.w3.org/2000/svg"><g><path d="m161.476 359.832c-57.802 0-104.828 47.025-104.828 104.828v47.98h109.827v-152.808z" fill="#ffcbbc"/><path d="m455.992 464.659c0-57.802-47.025-104.828-104.828-104.828h-4.999v152.809h109.827z" fill="#ffcbbc"/><path d="m455.992 464.659c0-57.802-47.025-104.828-104.828-104.828h-4.999v152.809h109.827z" fill="#ffbcae"/><path d="m351.164 359.832h-189.688c-8.614 0-16.986 1.052-25.001 3.021v149.787h239.69v-149.788c-8.015-1.969-16.387-3.02-25.001-3.02z" fill="#ffb655"/><path d="m376.165 512.64v-149.788c-8.015-1.969-16.387-3.021-25.001-3.021h-94.833v152.809z" fill="#ff7c48"/><path d="m219.662 261.721 17.488-7.33c12.191-5.109 26.174-5.109 38.364 0l17.486 7.33c21.164 8.871 43.53 13.368 66.478 13.368h11.243c7.966-17.832 12.194-37.278 12.194-57.002v-92.854h-253.167v92.854c0 19.725 4.228 39.17 12.194 57.002h11.242c22.947 0 45.314-4.498 66.478-13.368z" fill="#ffcbbc"/><path d="m275.514 254.391 17.486 7.33c21.164 8.871 43.53 13.368 66.478 13.368h11.243c7.966-17.832 12.194-37.278 12.194-57.002v-92.854h-126.584v125.327c6.544-.001 13.087 1.276 19.183 3.831z" fill="#ffbcae"/><g><path d="m191.328 177.165h30v30.002h-30z" fill="#5d5655"/></g><g><path d="m291.334 177.165h30v30.002h-30z" fill="#5d5655"/></g><path d="m297.3 0h-81.938c-47.208 0-85.614 38.406-85.614 85.614v39.616h253.166v-39.616c0-47.208-38.406-85.614-85.614-85.614z" fill="#ffeb99"/><path d="m382.914 85.614c0-47.208-38.406-85.614-85.614-85.614h-40.969v125.23h126.583z" fill="#ffda44"/><path d="m197.358 313.942v66.429c0 32.511 26.45 58.961 58.961 58.961s58.961-26.45 58.961-58.961v-66.429z" fill="#ffcbbc"/><path d="m315.281 380.371v-66.429h-58.95v125.39c32.506-.006 58.95-26.454 58.95-58.961z" fill="#ffbcae"/><path d="m129.748 137.787c4.928.008 9.855 1.133 14.347 3.379 17.417 8.708 38.212 8.708 55.627 0 9.016-4.508 19.779-4.508 28.795 0 17.416 8.708 38.211 8.708 55.627 0 9.016-4.508 19.779-4.508 28.795 0 17.416 8.708 38.211 8.708 55.627 0 4.493-2.246 9.419-3.372 14.348-3.379v60.203h14.643c23.5 0 42.618-19.119 42.618-42.618 0-16.247-9.027-30.854-23.559-38.119l-5.839-2.919c-17.416-8.708-38.211-8.708-55.627 0-9.016 4.508-19.779 4.508-28.795 0-17.416-8.708-38.211-8.708-55.627 0-9.015 4.508-19.778 4.509-28.795 0-17.417-8.708-38.211-8.708-55.627 0-9.016 4.507-19.78 4.507-28.795 0-17.416-8.708-38.211-8.709-55.627 0l-5.838 2.919c-14.532 7.266-23.559 21.872-23.559 38.119 0 23.5 19.119 42.618 42.619 42.618h14.643v-60.203z" fill="#ffda44"/><path d="m416.616 117.252-5.839-2.919c-17.416-8.708-38.211-8.708-55.627 0-9.016 4.508-19.779 4.508-28.795 0-17.416-8.708-38.211-8.708-55.627 0-4.508 2.254-9.452 3.381-14.397 3.381v29.983c9.553 0 19.105-2.177 27.813-6.531 9.016-4.508 19.779-4.508 28.795 0 17.416 8.708 38.211 8.708 55.627 0 4.493-2.246 9.419-3.372 14.348-3.379v60.203h14.643c23.5 0 42.618-19.119 42.618-42.618 0-16.247-9.028-30.854-23.559-38.12z" fill="#ffb655"/><path d="m359.478 245.089c-18.944 0-37.409-3.713-54.88-11.036l-17.488-7.33c-19.561-8.198-41.997-8.198-61.557 0l-17.488 7.33c-17.472 7.323-35.937 11.036-54.881 11.036h-20.783c4.427 22.379 14.297 43.54 28.855 61.358 20.318 24.868 48.839 42.088 80.307 48.489l14.768 3.003 14.768-3.003c31.468-6.401 59.988-23.621 80.308-48.489 14.558-17.818 24.428-38.979 28.855-61.358z" fill="#e1ebf0"/><g><path d="m291.334 177.165h30v30.002h-30z" fill="#3b3735"/></g><path d="m271.099 354.936c31.468-6.401 59.988-23.621 80.308-48.489 14.558-17.818 24.428-38.979 28.855-61.358h-20.784c-18.944 0-37.409-3.713-54.88-11.036l-17.488-7.33c-9.78-4.099-20.279-6.149-30.778-6.149v137.365z" fill="#bed9dd"/></g></svg>