<svg id="Layer_1" enable-background="new 0 0 512.474 512.474" height="512" viewBox="0 0 512.474 512.474" width="512" xmlns="http://www.w3.org/2000/svg"><g><path d="m351.081 359.498h-189.688c-57.803 0-104.828 47.026-104.828 104.828v47.98h399.345v-47.98c-.001-57.803-47.026-104.828-104.829-104.828z" fill="#00ee8a"/><path d="m455.909 464.326c0-57.802-47.025-104.828-104.828-104.828h-94.844v152.809h199.672z" fill="#00ccb3"/><path d="m219.566 261.387 17.489-7.33c12.19-5.11 26.173-5.109 38.363 0l17.487 7.33c21.164 8.871 43.53 13.368 66.478 13.368h11.242c7.966-17.832 12.194-37.278 12.194-57.002v-105.453h-253.165v105.453c0 19.725 4.228 39.17 12.194 57.002h11.242c22.947 0 45.313-4.497 66.476-13.368z" fill="#eecda1"/><path d="m256.237 112.3v137.925c6.543 0 13.086 1.278 19.182 3.832l17.487 7.33c21.164 8.871 43.53 13.368 66.478 13.368h11.242c7.966-17.832 12.194-37.278 12.194-57.002v-105.453z" fill="#e8b36f"/><g><path d="m191.233 176.832h30v30.002h-30z" fill="#5d5655"/></g><g><path d="m291.24 176.832h30v30.002h-30z" fill="#5d5655"/></g><path d="m129.653 50.901h253.167v81.398h-253.167z" fill="#00ccb3"/><path d="m256.237 50.901h126.583v81.398h-126.583z" fill="#00969b"/><g><path d="m335.249 445.303h53.999v30h-53.999z" fill="#faf0f0"/></g><path d="m197.275 313.609v65.704l58.962 82.356 58.961-82.356v-65.704z" fill="#eecda1"/><path d="m315.198 379.313v-65.704h-58.961v148.06z" fill="#e8b36f"/><path d="m352.12 359.511c-.347-.003-.692-.013-1.039-.013h-35.883l-58.961 82.405-58.962-82.405h-35.883c-.347 0-.692.01-1.038.013l80.893 112.99v39.973h30v-40.003z" fill="#00ccb3"/><path d="m351.081 359.498h-35.883l-58.961 82.405v70.571h15.011v-40.003l80.872-112.96c-.347-.004-.692-.013-1.039-.013z" fill="#00969b"/><path d="m348.818 0h-145.71c-48.774 0-88.455 39.681-88.455 88.456v15.704c0 28.2 22.942 51.142 51.142 51.142 20.165 0 38.5-11.9 46.71-30.318 10.015-22.464 32.379-36.98 56.974-36.98h79.34c24.263 0 44.002-19.739 44.002-44.002s-19.74-44.002-44.003-44.002z" fill="#00ee8a"/><path d="m359.384 244.755c-18.944 0-37.409-3.713-54.881-11.036l-17.487-7.33c-19.559-8.198-41.996-8.199-61.557 0l-17.489 7.33c-17.471 7.323-35.936 11.036-54.88 11.036h-20.783c4.427 22.379 14.297 43.54 28.855 61.358 20.318 24.868 48.839 42.087 80.307 48.488l14.768 3.003 14.768-3.003c31.469-6.401 59.989-23.621 80.308-48.488 14.558-17.818 24.428-38.979 28.856-61.358z" fill="#e1ebf0"/><g><path d="m291.24 176.832h30v30.002h-30z" fill="#3b3735"/></g><g><path d="m335.249 445.303h53.999v30h-53.999z" fill="#efe2dd"/></g><path d="m348.818 88.003c24.263 0 44.002-19.739 44.002-44.002s-19.739-44.001-44.002-44.001h-92.581v89.432c4.298-.936 8.731-1.428 13.241-1.428h79.34z" fill="#00ccb3"/><path d="m271.004 354.602c31.469-6.401 59.989-23.621 80.308-48.488 14.558-17.818 24.428-38.979 28.856-61.358h-20.783c-18.944 0-37.409-3.713-54.881-11.036l-17.487-7.33c-9.78-4.099-20.279-6.149-30.778-6.149v137.364z" fill="#bed9dd"/></g></svg>