<svg id="Layer_1" enable-background="new 0 0 512.64 512.64" height="512" viewBox="0 0 512.64 512.64" width="512" xmlns="http://www.w3.org/2000/svg"><g><path d="m105.149 359.832c-57.803 0-104.828 47.025-104.828 104.828v47.98h109.827v-152.808z" fill="#ffb655"/><path d="m309.838 359.832h-204.689c-8.614 0-16.986 1.052-25.001 3.021v149.787h229.69z" fill="#ff7c48"/><path d="m199.993 359.832h109.845v152.808h-109.845z" fill="#ff415b"/><path d="m141.032 313.942v66.429c0 32.511 26.45 58.961 58.961 58.961 32.512 0 58.962-26.45 58.962-58.961v-66.429z" fill="#ffddce"/><path d="m258.955 380.371v-66.429h-58.962v125.39c32.511 0 58.962-26.45 58.962-58.961z" fill="#ffcbbc"/><path d="m163.323 261.721 17.489-7.33c12.19-5.11 26.173-5.109 38.363 0l17.487 7.33c21.164 8.871 43.53 13.368 66.478 13.368h11.242c7.966-17.832 12.194-37.278 12.194-57.002v-96.762h-253.166v96.762c0 19.725 4.228 39.17 12.194 57.002h11.242c22.947 0 45.314-4.498 66.477-13.368z" fill="#ffddce"/><path d="m199.993 121.325v129.234c6.543 0 13.087 1.277 19.183 3.832l17.487 7.33c21.164 8.871 43.53 13.368 66.478 13.368h11.242c7.966-17.832 12.194-37.278 12.194-57.002v-96.762z" fill="#ffcbbc"/><path d="m303.14 245.089c-18.944 0-37.409-3.713-54.881-11.036l-17.487-7.33c-19.56-8.198-41.997-8.199-61.557 0l-17.489 7.33c-17.471 7.323-35.936 11.036-54.88 11.036h-20.783c4.427 22.379 14.297 43.54 28.856 61.358 20.318 24.868 48.839 42.088 80.307 48.489l14.768 3.003 14.769-3.003c31.468-6.401 59.988-23.621 80.307-48.489 14.558-17.818 24.428-38.979 28.856-61.358z" fill="#e1ebf0"/><g><path d="m134.99 177.165h30v30.002h-30z" fill="#5d5655"/></g><g><path d="m234.997 177.165h30v30.002h-30z" fill="#5d5655"/></g><path d="m233.295 0h-66.604c-51.436 0-93.281 41.846-93.281 93.281v43.043h38.904c16.894 0 33.455-3.075 49.225-9.139 12.318-4.738 25.256-7.14 38.455-7.14 13.197 0 26.136 2.402 38.455 7.14 15.769 6.065 32.329 9.14 49.224 9.14h38.904v-43.044c0-51.435-41.846-93.281-93.282-93.281z" fill="#ff7c48"/><path d="m233.295 0h-33.303v120.044h.001c13.197 0 26.136 2.402 38.455 7.14 15.769 6.065 32.329 9.14 49.224 9.14h38.904v-43.043c.001-51.435-41.845-93.281-93.281-93.281z" fill="#ff415b"/><g><path d="m184.993.323h30v119.722h-30z" fill="#ffb655"/></g><path d="m199.993.323h15v119.722h-15z" fill="#ff7c48"/><path d="m416.081 359.831v58.492h-30.004v-58.492h-96.239v152.809h222.481v-152.809z" fill="#eecda1"/><path d="m512.319 359.831h-96.238v58.492h-15.002v94.317h111.24z" fill="#e8b36f"/><path d="m356.077 359.831h90.004v88.492h-90.004z" fill="#e8b36f"/><g><path d="m326.577 151.325h-38.904c-16.895 0-33.455-3.075-49.224-9.14-24.799-9.537-52.113-9.537-76.91 0-15.77 6.064-32.331 9.139-49.225 9.139h-38.905v-30h38.905c13.198 0 26.136-2.402 38.454-7.14 31.745-12.208 66.708-12.207 98.449 0 12.318 4.738 25.257 7.14 38.455 7.14h38.904v30.001z" fill="#ff415b"/></g><g><path d="m234.997 177.165h30v30.002h-30z" fill="#3b3735"/></g><path d="m303.14 245.089c-18.944 0-37.409-3.713-54.881-11.036l-17.487-7.33c-9.78-4.099-20.28-6.149-30.779-6.149v137.365l14.769-3.003c31.468-6.401 59.988-23.621 80.307-48.489 14.558-17.818 24.428-38.979 28.856-61.358z" fill="#bed9dd"/><path d="m287.672 121.325c-13.198 0-26.137-2.402-38.455-7.14-15.871-6.104-32.548-9.155-49.225-9.155v30.003c13.028 0 26.057 2.384 38.456 7.153 15.769 6.064 32.329 9.14 49.224 9.14h38.904v-30h-38.904z" fill="#e50058"/><path d="m401.079 359.831h45.002v88.492h-45.002z" fill="#c48958"/></g></svg>