<svg id="Layer_1" enable-background="new 0 0 511.982 511.982" height="512" viewBox="0 0 511.982 511.982" width="512" xmlns="http://www.w3.org/2000/svg"><g><path d="m420.662 296.997c-21.001 0-38.088-17.086-38.088-38.088v-56.48h-34.109l-63.513 122.19v64.555h82.622c37.544 0 68.088-30.544 68.088-68.088v-24.088h-15z" fill="#ffda44"/><path d="m420.662 296.997c-21.001 0-38.088-17.086-38.088-38.088v-56.48h-34.109l-63.513 122.19v64.555h82.622c37.544 0 68.088-30.544 68.088-68.088v-24.088h-15z" fill="#ffb655"/><path d="m163.517 202.429h-34.109v56.48c0 21.002-17.086 38.088-38.088 38.088h-15v24.088c0 37.544 30.544 68.088 68.088 68.088h82.622v-64.555z" fill="#ffda44"/><path d="m350.836 359.173h-189.689c-57.802 0-104.828 47.026-104.828 104.828v47.98h399.345v-47.98c-.001-57.802-47.026-104.828-104.828-104.828z" fill="#beebfa"/><path d="m455.663 464.001c0-57.802-47.025-104.828-104.828-104.828h-94.823v152.809h199.651z" fill="#7ed8f6"/><path d="m197.03 313.284v65.831l58.975 79.802 58.947-79.805v-65.828z" fill="#ffddce"/><path d="m314.952 379.112v-65.828h-58.94v145.624z" fill="#ffcbbc"/><path d="m219.322 261.063 17.488-7.33c12.19-5.109 26.173-5.109 38.364 0l17.488 7.33c21.163 8.871 43.529 13.368 66.477 13.368h11.242c7.966-17.832 12.194-37.278 12.194-57.002v-91.544h-253.167v91.544c0 19.725 4.228 39.17 12.194 57.002h11.242c22.947 0 45.313-4.497 66.478-13.368z" fill="#ffddce"/><path d="m256.012 125.884v124.018c6.536.003 13.072 1.28 19.161 3.832l17.488 7.33c21.163 8.871 43.529 13.368 66.477 13.368h11.242c7.966-17.832 12.194-37.278 12.194-57.002v-91.544h-126.562z" fill="#ffcbbc"/><g><path d="m190.988 176.507h30v30.002h-30z" fill="#5d5655"/></g><g><path d="m290.994 176.507h30v30.002h-30z" fill="#5d5655"/></g><path d="m129.408 0h253.166v145.884h-253.166z" fill="#beebfa"/><path d="m256.012 0h126.562v145.884h-126.562z" fill="#7ed8f6"/><path d="m284.76 62.942h-13.769v-13.769h-30v13.769h-13.769v30h13.769v13.769h30v-13.769h13.769z" fill="#7ed8f6"/><g><path d="m325.002 445.141h54v30h-54z" fill="#faf0f0"/></g><path d="m352.261 359.191c-.475-.006-.949-.018-1.425-.018h-35.883l-58.94 79.829-58.983-79.829h-35.883c-.475 0-.946.012-1.419.018l81.275 109.977v42.814h30v-42.78z" fill="#7ed8f6"/><path d="m359.138 244.431c-18.944 0-37.409-3.713-54.88-11.036l-17.488-7.33c-19.561-8.198-41.998-8.198-61.557 0l-17.488 7.33c-17.472 7.323-35.937 11.036-54.881 11.036h-20.783c4.427 22.379 14.297 43.54 28.855 61.358 20.318 24.868 48.839 42.088 80.307 48.489l14.768 3.003 14.768-3.003c31.468-6.401 59.989-23.621 80.307-48.489 14.558-17.818 24.428-38.979 28.855-61.358z" fill="#e1ebf0"/><g><path d="m290.994 176.507h30v30.002h-30z" fill="#3b3735"/></g><g><path d="m325.002 445.141h54v30h-54z" fill="#efe2dd"/></g><path d="m351.066 305.789c14.558-17.818 24.428-38.979 28.855-61.358h-20.783c-18.944 0-37.409-3.713-54.88-11.036l-17.488-7.33c-9.774-4.096-20.265-6.145-30.757-6.148v137.36l14.746-2.999c31.468-6.401 59.988-23.621 80.307-48.489z" fill="#bed9dd"/><g fill="#2fc0f0"><path d="m270.991 92.942h13.769v-30h-13.769v-13.769h-14.979v57.538h14.979z"/><path d="m350.836 359.173h-35.883l-58.94 79.829v72.98h14.99v-42.78l81.259-110.01c-.476-.007-.95-.019-1.426-.019z"/></g></g></svg>