<svg id="Layer_1" enable-background="new 0 0 511.982 511.982" height="512" viewBox="0 0 511.982 511.982" width="512" xmlns="http://www.w3.org/2000/svg"><g><path d="m350.835 359.174h-189.688c-57.802 0-104.828 47.025-104.828 104.828v47.98h399.345v-47.98c-.001-57.803-47.026-104.828-104.829-104.828z" fill="#00ccb3"/><path d="m455.663 464.001c0-57.802-47.025-104.828-104.828-104.828h-94.844v152.808h199.672z" fill="#00969b"/><path d="m197.03 313.284v66.429c0 32.511 26.45 58.961 58.961 58.961s58.961-26.45 58.961-58.961v-66.428z" fill="#c1674c"/><path d="m314.952 379.713v-66.428h-58.961v125.39c32.511-.001 58.961-26.451 58.961-58.962z" fill="#99544e"/><path d="m219.322 261.063 17.488-7.33c12.191-5.109 26.174-5.109 38.363 0l17.488 7.33c21.164 8.871 43.53 13.368 66.478 13.368h11.242c7.966-17.833 12.195-37.278 12.195-57.003v-119.558h-253.168v119.559c0 19.725 4.228 39.17 12.194 57.003h11.242c22.947 0 45.313-4.498 66.478-13.369z" fill="#c1674c"/><path d="m255.991 97.87v152.032c6.544 0 13.087 1.277 19.181 3.832l17.488 7.33c21.164 8.871 43.53 13.368 66.478 13.368h11.242c7.966-17.833 12.195-37.278 12.195-57.003v-119.559z" fill="#99544e"/><g><path d="m190.988 176.508h30v30.002h-30z" fill="#5d5655"/></g><g><path d="m290.994 176.508h30v30.002h-30z" fill="#5d5655"/></g><path d="m351.897 28.562c-11.205-10.889-26.126-17.004-41.999-17.004-4.832 0-9.582.563-14.203 1.68-11.387-8.592-25.182-13.238-39.704-13.238-14.478 0-28.24 4.621-39.61 13.165-4.65-1.131-9.432-1.702-14.297-1.702-15.929 0-30.887 6.15-42.102 17.103-27.749.961-50.025 23.835-50.025 51.815 0 28.588 23.258 51.847 51.847 51.847 6.665 0 13.233-1.28 19.354-3.743 6.676 2.462 13.785 3.743 20.925 3.743 9.213 0 18.159-2.065 26.316-6.031 8.614 3.965 17.999 6.031 27.59 6.031 9.551 0 18.902-2.05 27.488-5.984 8.185 3.998 17.165 6.08 26.419 6.08 7.188 0 14.343-1.297 21.054-3.789 6.087 2.43 12.611 3.693 19.227 3.693 28.588 0 51.846-23.258 51.846-51.847.001-28.013-22.332-50.908-50.126-51.819z" fill="#5d5655"/><path d="m359.138 244.432c-18.944 0-37.409-3.713-54.88-11.036l-17.488-7.33c-19.559-8.198-41.996-8.198-61.557 0l-17.488 7.33c-17.472 7.323-35.937 11.036-54.881 11.036h-20.783c4.427 22.378 14.297 43.54 28.855 61.357 20.318 24.868 48.839 42.088 80.307 48.489l14.768 3.003 14.768-3.003c31.468-6.401 59.988-23.621 80.307-48.489 14.558-17.817 24.428-38.979 28.855-61.357z" fill="#e1ebf0"/><g><path d="m290.994 176.508h30v30.002h-30z" fill="#3b3735"/></g><path d="m309.898 132.323c7.188 0 14.343-1.297 21.054-3.789 6.087 2.43 12.611 3.693 19.227 3.693 28.588 0 51.846-23.258 51.846-51.847 0-28.013-22.333-50.908-50.127-51.818-11.205-10.889-26.126-17.004-41.999-17.004-4.832 0-9.582.563-14.203 1.68-11.388-8.592-25.183-13.238-39.705-13.238v132.227c9.551 0 18.902-2.05 27.488-5.984 8.184 3.998 17.165 6.08 26.419 6.08z" fill="#3b3735"/><path d="m351.066 305.789c14.558-17.817 24.428-38.979 28.855-61.357h-20.783c-18.944 0-37.409-3.713-54.88-11.036l-17.488-7.33c-9.78-4.099-20.279-6.148-30.779-6.148v137.364l14.768-3.003c31.468-6.402 59.988-23.622 80.307-48.49z" fill="#bed9dd"/></g></svg>