<svg id="Layer_1" enable-background="new 0 0 511.982 511.982" height="512" viewBox="0 0 511.982 511.982" width="512" xmlns="http://www.w3.org/2000/svg"><g><path d="m295.957 0h-79.933c-78.641 0-142.62 63.979-142.62 142.621v283.668h15 350.173v-283.668c0-78.642-63.979-142.621-142.62-142.621z" fill="#5d5655"/><path d="m438.577 142.621c0-78.642-63.979-142.621-142.62-142.621h-39.967v426.288h182.587z" fill="#3b3735"/><path d="m392.222 367.697-6.752 20.546c-18.427 56.068-70.461 93.739-129.479 93.739s-111.052-37.671-129.479-93.739l-6.752-20.545c-37.279 16.082-63.441 53.193-63.441 96.304v47.98h399.345v-47.98c-.001-43.112-26.163-80.223-63.442-96.305z" fill="#6d6663"/><path d="m455.663 464.001c0-43.111-26.162-80.222-63.441-96.304l-6.752 20.546c-18.427 56.068-70.461 93.739-129.479 93.739v30h199.673v-47.981z" fill="#5d5655"/><path d="m413.97 397.609 4.483-13.642c-18.267-15.457-41.871-24.793-67.618-24.793h-35.883v-45.889h-117.923v45.89h-35.883c-25.747 0-49.351 9.336-67.618 24.793l4.483 13.642c22.482 68.41 85.97 114.373 157.979 114.373 72.01-.001 135.498-45.964 157.98-114.374z" fill="#faf0f0"/><path d="m350.835 359.174h-35.883v-45.889h-58.962v198.698h.001c72.009 0 135.496-45.963 157.979-114.373l4.483-13.642c-18.267-15.458-41.871-24.794-67.618-24.794z" fill="#efe2dd"/><path d="m219.322 261.063 17.488-7.33c12.19-5.11 26.174-5.109 38.362 0l17.488 7.33c21.164 8.871 43.53 13.368 66.478 13.368h11.242c7.966-17.833 12.195-37.278 12.195-57.003v-80.058h-253.167v80.059c0 19.725 4.228 39.17 12.194 57.003h11.242c22.947 0 45.313-4.498 66.478-13.369z" fill="#ffddce"/><path d="m275.172 253.733 17.488 7.33c21.164 8.871 43.53 13.368 66.478 13.368h11.242c7.966-17.833 12.195-37.278 12.195-57.003v-80.058h-126.585v112.532c6.544-.001 13.088 1.277 19.182 3.831z" fill="#ffcbbc"/><g><path d="m190.988 176.508h30v30.002h-30z" fill="#5d5655"/></g><g><path d="m290.994 176.508h30v30.002h-30z" fill="#5d5655"/></g><path d="m316.706 71.502h-121.43c-36.319 0-65.867 29.548-65.867 65.868v16.135h253.166v-16.135c-.001-36.32-29.549-65.868-65.869-65.868z" fill="#faf0f0"/><path d="m287.002 414.701h-16.011v-16.204h-30v16.204h-16.011v30h16.011v42.28h30v-42.28h16.011z" fill="#ffda44"/><path d="m359.138 244.432c-18.944 0-37.409-3.713-54.88-11.036l-17.488-7.33c-19.562-8.198-41.998-8.198-61.558 0l-17.488 7.33c-17.471 7.323-35.936 11.036-54.88 11.036h-20.782c4.427 22.378 14.297 43.54 28.855 61.357 20.318 24.868 48.839 42.088 80.307 48.489l14.768 3.003 14.769-3.003c31.468-6.401 59.988-23.621 80.307-48.489 14.558-17.817 24.428-38.979 28.855-61.357z" fill="#e1ebf0"/><g><path d="m290.994 176.508h30v30.002h-30z" fill="#3b3735"/></g><path d="m382.574 137.37c0-36.319-29.549-65.868-65.868-65.868h-60.716v82.003h126.584z" fill="#efe2dd"/><path d="m351.066 305.789c14.558-17.817 24.428-38.979 28.855-61.357h-20.783c-18.944 0-37.409-3.713-54.88-11.036l-17.488-7.33c-9.781-4.099-20.28-6.149-30.779-6.149v137.365l14.769-3.003c31.467-6.402 59.987-23.622 80.306-48.49z" fill="#bed9dd"/><path d="m270.991 414.701v-16.204h-15.001v88.484h15.001v-42.28h16.011v-30z" fill="#ffb655"/></g></svg>