<svg id="Layer_1" enable-background="new 0 0 512.315 512.315" height="512" viewBox="0 0 512.315 512.315" width="512" xmlns="http://www.w3.org/2000/svg"><g><path d="m161.313 359.507c-57.802 0-104.828 47.025-104.828 104.828v47.98h109.827v-152.808z" fill="#eecda1"/><path d="m455.83 464.335c0-57.802-47.025-104.828-104.828-104.828h-4.999v152.808h109.827z" fill="#eecda1"/><path d="m455.83 464.335c0-57.802-47.025-104.828-104.828-104.828h-4.999v152.808h109.827z" fill="#e8b36f"/><path d="m351.002 359.507h-189.689c-8.614 0-16.986 1.052-25.001 3.021v149.787h239.69v-149.787c-8.014-1.969-16.386-3.021-25-3.021z" fill="#00ee8a"/><path d="m376.003 512.315v-149.787c-8.015-1.969-16.387-3.021-25.001-3.021h-94.833v152.808z" fill="#00ccb3"/><path d="m197.196 313.618v66.429c0 32.511 26.45 58.961 58.961 58.961s58.961-26.45 58.961-58.961v-66.429z" fill="#eecda1"/><path d="m315.119 380.046v-66.429h-58.95v125.39c32.506-.006 58.95-26.453 58.95-58.961z" fill="#e8b36f"/><path d="m219.488 261.063 17.488-7.33c12.19-5.109 26.173-5.108 38.364 0l17.488 7.33c21.163 8.871 43.529 13.368 66.477 13.368h11.242c7.966-17.833 12.194-37.278 12.194-57.003v-88.428h-253.166v88.429c0 19.725 4.228 39.17 12.194 57.003h11.242c22.947 0 45.313-4.498 66.477-13.369z" fill="#eecda1"/><path d="m256.169 129v120.902c6.54.002 13.079 1.279 19.171 3.831l17.488 7.33c21.163 8.871 43.529 13.368 66.477 13.368h11.242c7.966-17.833 12.194-37.278 12.194-57.003v-88.428z" fill="#e8b36f"/><g><path d="m191.155 176.508h30v30.002h-30z" fill="#5d5655"/></g><g><path d="m291.161 176.508h30v30.002h-30z" fill="#5d5655"/></g><path d="m382.741 104.286c0-57.504-46.783-104.286-104.285-104.286h-44.596c-51.615 0-94.585 37.695-102.845 87h34.48c14.148 0 25.659 11.511 25.659 25.659v16.339h191.586v-24.712z" fill="#00ee8a"/><path d="m382.741 104.286c0-57.504-46.783-104.286-104.285-104.286h-22.287v128.998h126.572z" fill="#00ccb3"/><path d="m155.495 67h-19.024c-4.45 11.584-6.896 24.154-6.896 37.286v24.712h81.579v-6.339c0-30.69-24.969-55.659-55.659-55.659z" fill="#5d5655"/><g><path d="m129.575 113.999h311.255v30h-311.255z" fill="#00ccb3"/></g><path d="m359.305 244.432c-18.944 0-37.409-3.713-54.88-11.036l-17.488-7.33c-19.56-8.198-41.997-8.199-61.557 0l-17.488 7.33c-17.472 7.323-35.937 11.036-54.881 11.036h-20.783c4.427 22.378 14.297 43.54 28.855 61.357 20.318 24.868 48.839 42.088 80.307 48.489l14.768 3.003 14.768-3.003c31.468-6.401 59.989-23.621 80.307-48.489 14.558-17.817 24.428-38.979 28.855-61.357z" fill="#e1ebf0"/><g><path d="m291.161 176.508h30v30.002h-30z" fill="#3b3735"/></g><path d="m270.925 354.278c31.468-6.401 59.989-23.621 80.307-48.489 14.558-17.817 24.428-38.979 28.855-61.357h-20.783c-18.944 0-37.409-3.713-54.88-11.036l-17.488-7.33c-9.777-4.097-20.272-6.147-30.768-6.148v137.362z" fill="#bed9dd"/><path d="m256.169 113.999h184.661v30h-184.661z" fill="#00969b"/></g></svg>