<svg id="Layer_1" enable-background="new 0 0 511.998 511.998" height="512" viewBox="0 0 511.998 511.998" width="512" xmlns="http://www.w3.org/2000/svg"><g><path d="m294.517 359.186h-189.689c-57.802 0-104.828 47.025-104.828 104.828v47.98h399.345v-47.98c0-57.803-47.026-104.828-104.828-104.828z" fill="#ff415b"/><path d="m399.345 464.014c0-57.802-47.025-104.828-104.828-104.828h-94.844v152.808h199.672z" fill="#e50058"/><path d="m299.518 359.308v122.669h-199.691v-122.669c-10.472.494-20.545 2.536-30 5.895v146.775l13.218.017h246.474v-146.792c-9.455-3.36-19.528-5.401-30.001-5.895z" fill="#faf0f0"/><path d="m223.436.004h-47.528c-86.472 0-156.823 70.351-156.823 156.823 0 43.098 5.058 86.21 15.034 128.137l6.118 25.713h318.87l6.118-25.713c9.976-41.927 15.034-85.039 15.034-128.137 0-86.473-70.351-156.823-156.823-156.823z" fill="#ffeb99"/><path d="m223.436.004h-23.764v310.672h159.435l6.118-25.713c9.976-41.927 15.034-85.039 15.034-128.137 0-86.472-70.351-156.822-156.823-156.822z" fill="#ffda44"/><path d="m140.711 313.28v66.762c0 32.511 26.45 58.961 58.961 58.961s58.961-26.45 58.961-58.961v-66.762z" fill="#ffddce"/><path d="m258.634 380.041v-66.761h-58.961v125.723c32.511 0 58.961-26.45 58.961-58.962z" fill="#ffcbbc"/><path d="m163.003 261.391 17.488-7.33c12.19-5.109 26.173-5.109 38.364 0l17.488 7.33c21.164 8.871 43.53 13.368 66.478 13.368h11.094c8.062-17.923 12.342-37.489 12.342-57.336v-84.2h-21.079c-39.426 0-77.012-18.887-100.541-50.523l-18.121-24.364h-9.538c-57.284 0-103.888 46.604-103.888 103.888v55.199c0 19.847 4.279 39.413 12.342 57.336h11.095c22.946.001 45.313-4.497 66.476-13.368z" fill="#ffddce"/><path d="m236.342 261.391c21.164 8.871 43.53 13.368 66.478 13.368h11.094c8.062-17.923 12.342-37.489 12.342-57.336v-84.2h-21.079c-39.426 0-77.012-18.887-100.541-50.523l-4.963-6.673v174.203c6.543 0 13.086 1.277 19.182 3.832z" fill="#ffcbbc"/><g><path d="m134.669 176.836h30v30.002h-30z" fill="#5d5655"/></g><g><path d="m234.676 176.836h30v30.002h-30z" fill="#5d5655"/></g><path d="m511.998 342.18c0-23.457-19.084-42.541-42.541-42.541-10.498 0-20.113 3.831-27.541 10.157-7.428-6.326-17.043-10.157-27.541-10.157-23.457 0-42.541 19.084-42.541 42.541s19.084 42.541 42.541 42.541c1.592 0 3.162-.095 4.709-.267l-19.709 108.42v19.12h30v-16.415l12.541-68.987 12.541 68.987v16.415h30v-19.12l-19.709-108.42c1.547.171 3.117.267 4.709.267 23.457 0 42.541-19.084 42.541-42.541zm-42.541-12.541c6.915 0 12.541 5.626 12.541 12.541s-5.626 12.541-12.541 12.541-12.541-5.626-12.541-12.541 5.626-12.541 12.541-12.541zm-67.623 12.541c0-6.915 5.626-12.541 12.541-12.541s12.541 5.626 12.541 12.541-5.626 12.541-12.541 12.541-12.541-5.626-12.541-12.541z" fill="#efe2dd"/><path d="m302.82 244.76c-18.944 0-37.409-3.713-54.881-11.036l-17.488-7.33c-19.56-8.198-41.996-8.198-61.557 0l-17.488 7.33c-17.472 7.323-35.936 11.036-54.88 11.036h-20.715c4.459 22.255 14.3 43.296 28.786 61.024 20.319 24.868 48.839 42.088 80.308 48.489l14.767 3.003 14.768-3.003c31.469-6.401 59.989-23.621 80.308-48.489 14.486-17.729 24.327-38.769 28.786-61.024z" fill="#e1ebf0"/><g><path d="m234.676 176.836h30v30.002h-30z" fill="#3b3735"/></g><path d="m329.518 365.203c-9.455-3.359-19.528-5.4-30-5.895v122.669h-99.846v30.017h129.846z" fill="#efe2dd"/><path d="m511.998 342.18c0-23.457-19.084-42.541-42.541-42.541-10.498 0-20.113 3.831-27.541 10.157v116.797-.001l12.541 68.987v16.415h30v-19.12l-19.709-108.42c1.547.171 3.117.267 4.709.267 23.457 0 42.541-19.084 42.541-42.541zm-55.082 0c0-6.915 5.626-12.541 12.541-12.541s12.541 5.626 12.541 12.541-5.626 12.541-12.541 12.541-12.541-5.626-12.541-12.541z" fill="#e1d3ce"/><path d="m302.82 244.76c-18.944 0-37.409-3.713-54.881-11.036l-17.488-7.33c-9.78-4.099-20.279-6.148-30.778-6.148v137.031l14.767-3.003c31.469-6.401 59.989-23.621 80.308-48.489 14.486-17.729 24.327-38.769 28.786-61.024h-20.714z" fill="#bed9dd"/></g></svg>