<svg id="Layer_1" enable-background="new 0 0 511.982 511.982" height="512" viewBox="0 0 511.982 511.982" width="512" xmlns="http://www.w3.org/2000/svg"><g><path d="m343.835 359.174h-175.689c-57.802 0-104.828 47.025-104.828 104.828v47.98h385.344v-47.98c.001-57.803-47.024-104.828-104.827-104.828z" fill="#ff7c48"/><path d="m448.663 464.001c0-57.802-47.025-104.828-104.828-104.828h-87.844v152.808h192.672z" fill="#ff415b"/><path d="m197.029 313.284v67.571l58.962 53.059 58.961-53.059v-67.57z" fill="#ffe0b7"/><path d="m314.952 380.855v-67.57l-58.961-.001v120.63z" fill="#eecda1"/><path d="m219.321 261.063 17.488-7.33c12.191-5.11 26.174-5.109 38.363 0l17.488 7.33c21.164 8.871 43.53 13.368 66.478 13.368h11.242c7.966-17.833 12.195-37.278 12.195-57.003v-77.078h-85.376c-14.444 0-26.196-11.752-26.196-26.197h-30c0 14.445-11.752 26.197-26.197 26.197h-85.397v77.078c0 19.725 4.228 39.17 12.194 57.003h11.242c22.946.001 45.312-4.497 66.476-13.368z" fill="#ffe0b7"/><path d="m297.198 140.351c-14.444 0-26.196-11.752-26.196-26.197h-15.011v135.748c6.544 0 13.087 1.278 19.181 3.832l17.488 7.33c21.164 8.871 43.53 13.368 66.478 13.368h11.242c7.966-17.833 12.195-37.278 12.195-57.003v-77.078z" fill="#eecda1"/><path d="m359.138 244.432c-18.944 0-37.409-3.713-54.88-11.036l-17.488-7.33c-19.559-8.198-41.996-8.198-61.557 0l-17.488 7.33c-17.472 7.323-35.937 11.036-54.881 11.036h-20.783c4.427 22.378 14.297 43.54 28.855 61.357 20.318 24.868 48.839 42.088 80.307 48.489l14.768 3.003 14.768-3.003c31.468-6.401 59.988-23.621 80.307-48.489 14.558-17.817 24.428-38.979 28.855-61.357z" fill="#e1ebf0"/><path d="m351.065 305.789c14.558-17.817 24.428-38.979 28.855-61.357h-20.783c-18.944 0-37.409-3.713-54.88-11.036l-17.488-7.33c-9.78-4.099-20.279-6.148-30.779-6.148v137.364l14.768-3.003c31.469-6.402 59.989-23.622 80.307-48.49z" fill="#bed9dd"/><g><path d="m186.986 176.509h40.002v30h-40.002z" fill="#5d5655"/></g><g><path d="m284.992 176.509h40.003v30h-40.003z" fill="#5d5655"/></g><path d="m278.282 432.612 80.493-72.369c-4.881-.7-9.868-1.069-14.94-1.069h-28.698l-59.146 53.252-59.213-53.252h-28.632c-5.11 0-10.133.375-15.05 1.085l127.896 115.139v36.584h30v-49.916z" fill="#ffeb99"/><path d="m255.991 0c-33.92 0-61.517 27.596-61.517 61.517v20.649h123.034v-20.649c0-33.921-27.597-61.517-61.517-61.517z" fill="#6d6663"/><path d="m317.508 61.517c0-33.921-27.597-61.517-61.517-61.517v82.166h61.517z" fill="#5d5655"/><g><path d="m293.03 29.284h64.72v30h-64.72z" fill="#ffeb99" transform="matrix(.707 -.707 .707 .707 63.991 243.056)"/></g><g><path d="m293.03 29.284h64.72v30h-64.72z" fill="#ffda44" transform="matrix(.707 -.707 .707 .707 63.991 243.056)"/></g><g><path d="m171.592 11.924h30v64.72h-30z" fill="#ffeb99" transform="matrix(.707 -.707 .707 .707 23.338 144.911)"/></g><path d="m293.891 51.667h-75.8c-48.9 0-88.683 39.783-88.683 88.683v11h85.397c16.257 0 30.926-6.941 41.197-18.013 10.271 11.072 24.938 18.013 41.196 18.013h85.376v-11c0-48.899-39.783-88.683-88.683-88.683z" fill="#5d5655"/><g><path d="m284.992 176.509h40.003v30h-40.003z" fill="#3b3735"/></g><path d="m297.198 151.35h85.376v-11c0-48.9-39.783-88.683-88.684-88.683h-37.9v81.681c.004-.004.008-.008.011-.012 10.271 11.073 24.939 18.014 41.197 18.014z" fill="#3b3735"/><path d="m358.775 360.243c-4.881-.7-9.868-1.069-14.94-1.069h-28.698l-59.146 53.252v40.463l25.002 22.509v36.584h30v-49.916l-32.711-29.454z" fill="#ffda44"/></g></svg>