<svg id="Layer_1" enable-background="new 0 0 511.982 511.982" height="512" viewBox="0 0 511.982 511.982" width="512" xmlns="http://www.w3.org/2000/svg"><g><path d="m350.835 359.174h-189.688c-57.803 0-104.828 47.025-104.828 104.828v47.98h399.345v-47.98c-.001-57.803-47.026-104.828-104.829-104.828z" fill="#efe2dd"/><path d="m455.663 464.001c0-57.802-47.025-104.828-104.828-104.828h-94.844v152.808h199.672z" fill="#e1d3ce"/><path d="m211 420.578h90.004v91.404h-90.004z" fill="#0b799d"/><path d="m255.991 420.578h45.013v91.404h-45.013z" fill="#07485e"/><path d="m314.953 359.174h-117.924c-29.613 0-53.705 24.092-53.705 53.705v37.699h225.335v-37.699c-.001-29.613-24.092-53.705-53.706-53.705z" fill="#faf0f0"/><path d="m314.953 359.174h-58.962v91.404h112.667v-37.699c0-29.613-24.091-53.705-53.705-53.705z" fill="#efe2dd"/><path d="m197.03 313.285v45.889l58.972 91.404 58.95-91.404v-45.889z" fill="#ffddce"/><path d="m256.002 450.578 58.95-91.404v-45.889h-58.961v137.276z" fill="#ffcbbc"/><path d="m219.322 261.063 17.488-7.33c12.19-5.11 26.174-5.109 38.362 0l17.488 7.33c21.164 8.871 43.53 13.368 66.478 13.368h11.242c7.966-17.833 12.195-37.278 12.195-57.003v-112.476h-253.168v112.477c0 19.725 4.229 39.17 12.195 57.003h11.242c22.947 0 45.313-4.498 66.478-13.369z" fill="#ffddce"/><path d="m255.991 104.952v144.95c6.543 0 13.086 1.278 19.181 3.832l17.488 7.33c21.164 8.871 43.53 13.368 66.478 13.368h11.242c7.966-17.833 12.195-37.278 12.195-57.003v-112.477z" fill="#ffcbbc"/><g><path d="m190.988 176.508h30v30.002h-30z" fill="#5d5655"/></g><g><path d="m290.994 176.508h30v30.002h-30z" fill="#5d5655"/></g><path d="m305.621 27.999h-24.595c-14.922-17.145-36.896-27.999-61.357-27.999h-110.263v54.357c0 52.725 42.895 95.62 95.619 95.62h2.806l61.008-6.566c21.183-2.279 42.723-3.435 64.021-3.435h49.715v-35.024c-.001-42.432-34.522-76.953-76.954-76.953z" fill="#99544e"/><path d="m359.138 244.432c-18.944 0-37.409-3.713-54.88-11.036l-17.488-7.33c-19.562-8.199-41.998-8.198-61.558 0l-17.488 7.33c-17.471 7.323-35.936 11.036-54.88 11.036h-20.783c4.427 22.378 14.297 43.54 28.855 61.357 20.318 24.868 48.839 42.088 80.308 48.489l14.768 3.003 14.768-3.003c31.468-6.401 59.988-23.621 80.307-48.489 14.558-17.817 24.428-38.979 28.855-61.357z" fill="#e1ebf0"/><g><path d="m290.994 176.508h30v30.002h-30z" fill="#3b3735"/></g><path d="m332.86 139.976h49.715v-35.024c0-42.432-34.521-76.953-76.953-76.953h-24.595c-6.964-8.001-15.464-14.63-25.035-19.427v136.222l12.848-1.383c21.182-2.279 42.722-3.435 64.02-3.435z" fill="#66333e"/><path d="m351.066 305.789c14.558-17.817 24.428-38.979 28.855-61.357h-20.783c-18.944 0-37.409-3.713-54.88-11.036l-17.488-7.33c-9.78-4.099-20.28-6.149-30.778-6.149v137.365l14.768-3.003c31.467-6.402 59.987-23.622 80.306-48.49z" fill="#bed9dd"/></g></svg>