<svg id="Layer_1" enable-background="new 0 0 511.982 511.982" height="512" viewBox="0 0 511.982 511.982" width="512" xmlns="http://www.w3.org/2000/svg"><g><path d="m463.431 207.417c0-9.489-2.896-18.603-8.172-26.235 3.119-8.737 3.557-18.289 1.102-27.451-2.456-9.165-7.612-17.219-14.685-23.227.751-9.246-1.298-18.585-6.041-26.8-4.744-8.217-11.81-14.663-20.195-18.635-1.667-9.125-6.064-17.616-12.771-24.323-6.726-6.727-15.164-11.122-24.333-12.78-3.973-8.38-10.416-15.44-18.627-20.182-7.014-4.049-14.986-6.19-23.055-6.19-1.255 0-2.506.051-3.751.151-6.007-7.07-14.061-12.226-23.224-14.682-9.098-2.437-18.793-2.003-27.464 1.099-7.632-5.269-16.741-8.162-26.224-8.162s-18.592 2.893-26.222 8.163c-8.67-3.102-18.365-3.536-27.465-1.098-9.163 2.455-17.216 7.611-23.223 14.681-1.245-.101-2.496-.151-3.751-.151-8.069 0-16.041 2.14-23.055 6.19-8.213 4.742-14.655 11.802-18.627 20.182-9.17 1.659-17.608 6.054-24.333 12.78-6.708 6.707-11.104 15.198-12.771 24.324-8.386 3.972-15.451 10.417-20.195 18.635-4.743 8.214-6.792 17.554-6.041 26.8-7.072 6.007-12.229 14.062-14.685 23.227-2.455 9.162-2.017 18.714 1.102 27.451-5.276 7.632-8.172 16.747-8.172 26.235 0 9.486 2.895 18.598 8.169 26.23-3.121 8.738-3.56 18.292-1.104 27.457 2.455 9.162 7.61 17.215 14.679 23.222-.753 9.248 1.296 18.589 6.04 26.807 4.743 8.215 11.806 14.659 20.189 18.631 1.666 9.128 6.063 17.621 12.772 24.33 6.728 6.729 15.168 11.125 24.342 12.782 4 8.404 10.504 15.503 18.805 20.296l3.481 2.01h200.111l3.481-2.01c8.309-4.797 14.819-11.897 18.821-20.296 9.174-1.657 17.617-6.053 24.346-12.782 6.709-6.709 11.106-15.202 12.772-24.331 8.383-3.972 15.447-10.416 20.19-18.631 4.744-8.218 6.793-17.559 6.04-26.807 7.069-6.007 12.224-14.06 14.679-23.222 2.456-9.166 2.018-18.719-1.104-27.457 5.274-7.633 8.169-16.745 8.169-26.231z" fill="#5d5655"/><path d="m463.431 207.417c0-9.489-2.896-18.603-8.172-26.235 3.119-8.737 3.557-18.289 1.102-27.451-2.456-9.165-7.612-17.219-14.685-23.227.751-9.246-1.298-18.585-6.041-26.8-4.744-8.217-11.81-14.663-20.195-18.635-1.667-9.125-6.064-17.616-12.771-24.323-6.726-6.727-15.164-11.122-24.333-12.78-3.973-8.38-10.416-15.44-18.627-20.182-7.014-4.049-14.986-6.19-23.055-6.19-1.255 0-2.506.051-3.751.151-6.007-7.07-14.061-12.226-23.224-14.682-9.098-2.437-18.793-2.003-27.464 1.099-7.632-5.269-16.741-8.162-26.224-8.162-.004 0-.008 0-.011 0v389.181h100.056l3.481-2.01c8.309-4.797 14.819-11.897 18.821-20.296 9.174-1.657 17.617-6.053 24.346-12.782 6.709-6.709 11.106-15.202 12.772-24.331 8.383-3.972 15.447-10.416 20.19-18.631 4.744-8.218 6.793-17.559 6.04-26.807 7.069-6.007 12.224-14.06 14.679-23.222 2.456-9.166 2.018-18.719-1.104-27.457 5.275-7.63 8.17-16.742 8.17-26.228z" fill="#3b3735"/><path d="m350.825 359.174h-30.488v15c0 28.949-23.552 52.5-52.5 52.5h-23.712c-28.949 0-52.5-23.552-52.5-52.5v-15h-30.488c-57.802 0-104.828 47.025-104.828 104.828v47.981h399.345v-47.981c-.002-57.803-47.027-104.828-104.829-104.828z" fill="#7ed8f6"/><path d="m455.652 464.001c0-57.802-47.025-104.828-104.828-104.828h-30.488v15c0 28.949-23.552 52.5-52.5 52.5h-11.856v85.308h199.672z" fill="#2fc0f0"/><path d="m314.941 359.174v-45.791h-117.922v45.791h-35.395v15c0 45.491 37.01 82.5 82.5 82.5h23.712c45.491 0 82.5-37.01 82.5-82.5v-15z" fill="#c1674c"/><path d="m314.941 359.174v-45.791h-58.961v143.291h11.856c45.491 0 82.5-37.01 82.5-82.5v-15z" fill="#99544e"/><path d="m219.311 261.063 17.488-7.33c12.19-5.109 26.173-5.108 38.364 0l17.488 7.33c21.163 8.871 43.529 13.368 66.477 13.368h11.242c7.966-17.833 12.194-37.278 12.194-57.003v-41.181c0-49.835-40.544-90.379-90.379-90.379h-72.407c-49.835 0-90.379 40.544-90.379 90.379v41.181c0 19.725 4.228 39.17 12.194 57.003h11.242c22.945.001 45.311-4.497 66.476-13.368z" fill="#c1674c"/><path d="m292.184 85.869h-36.204v164.033c6.543 0 13.087 1.277 19.182 3.832l17.488 7.33c21.163 8.871 43.529 13.368 66.477 13.368h11.242c7.966-17.833 12.194-37.278 12.194-57.003v-41.181c0-49.835-40.544-90.379-90.379-90.379z" fill="#99544e"/><path d="m359.127 244.432c-18.944 0-37.409-3.713-54.88-11.036l-17.488-7.33c-19.56-8.198-41.997-8.199-61.557 0l-17.488 7.33c-17.472 7.323-35.937 11.036-54.881 11.036h-20.783c4.427 22.378 14.297 43.54 28.855 61.357 20.318 24.868 48.839 42.088 80.307 48.489l14.768 3.003 14.768-3.004c31.468-6.4 59.989-23.621 80.307-48.488 14.558-17.817 24.428-38.979 28.855-61.357z" fill="#e1ebf0"/><g><path d="m190.977 176.508h30v30.002h-30z" fill="#5d5655"/></g><g><path d="m290.983 176.508h30v30.002h-30z" fill="#5d5655"/></g><g><path d="m290.983 176.508h30v30.002h-30z" fill="#3b3735"/></g><path d="m359.127 244.432c-18.944 0-37.409-3.713-54.88-11.036l-17.488-7.33c-9.78-4.099-20.279-6.149-30.779-6.149v137.365l14.768-3.004c31.468-6.4 59.989-23.621 80.307-48.488 14.558-17.817 24.428-38.979 28.855-61.357h-20.783z" fill="#bed9dd"/></g></svg>