<svg id="Layer_1" enable-background="new 0 0 511.982 511.982" height="512" viewBox="0 0 511.982 511.982" width="512" xmlns="http://www.w3.org/2000/svg"><g><path d="m285.993 19.872h-60.004c-53.255 0-96.581 43.326-96.581 96.581v16.417h253.166v-16.417c0-53.255-43.326-96.581-96.581-96.581z" fill="#ffb655"/><path d="m382.574 116.453c0-53.255-43.326-96.581-96.581-96.581h-30.002v112.998h126.583z" fill="#ff7c48"/><path d="m210.989 0h90.004v132.871h-90.004z" fill="#ffeb99"/><path d="m255.991 0h45.002v132.871h-45.002z" fill="#ffda44"/><path d="m350.836 359.174h-189.689c-57.802 0-104.828 47.025-104.828 104.828v47.98h399.345v-47.98c-.001-57.803-47.026-104.828-104.828-104.828z" fill="#ffda44"/><path d="m455.663 464.001c0-57.802-47.025-104.828-104.828-104.828h-94.845v152.808h199.672v-47.98z" fill="#ffb655"/><path d="m219.322 261.063 17.488-7.33c12.19-5.109 26.173-5.108 38.364 0l17.488 7.33c21.163 8.871 43.529 13.368 66.477 13.368h11.242c7.966-17.833 12.194-37.278 12.194-57.003v-84.557h-253.167v84.557c0 19.725 4.228 39.17 12.194 57.003h11.242c22.947.001 45.313-4.497 66.478-13.368z" fill="#eecda1"/><path d="m255.991 132.872v117.03c6.543 0 13.087 1.277 19.182 3.832l17.488 7.33c21.163 8.871 43.529 13.368 66.477 13.368h11.242c7.966-17.833 12.194-37.278 12.194-57.003v-84.557z" fill="#e8b36f"/><g><path d="m190.988 176.508h30v30.002h-30z" fill="#5d5655"/></g><g><path d="m290.994 176.508h30v30.002h-30z" fill="#5d5655"/></g><path d="m197.03 313.284v66.429c0 32.511 26.45 58.961 58.961 58.961s58.961-26.45 58.961-58.961v-66.428z" fill="#eecda1"/><path d="m314.952 379.713v-66.428h-58.961v125.39c32.511-.001 58.961-26.451 58.961-58.962z" fill="#e8b36f"/><g><path d="m100.336 117.871h311.333v30h-311.333z" fill="#ffda44"/></g><path d="m350.836 359.174h-15.882v152.808h64.002v-141.092c-14.42-7.482-30.784-11.716-48.12-11.716z" fill="#faf0f0"/><path d="m161.147 359.174c-17.336 0-33.701 4.234-48.121 11.717v141.091h64.002v-152.808z" fill="#faf0f0"/><path d="m359.138 244.432c-18.944 0-37.409-3.713-54.88-11.036l-17.488-7.33c-19.56-8.198-41.997-8.199-61.557 0l-17.488 7.33c-17.472 7.323-35.937 11.036-54.881 11.036h-20.783c4.427 22.378 14.297 43.54 28.855 61.357 20.318 24.868 48.839 42.088 80.307 48.489l14.768 3.003 14.768-3.003c31.468-6.401 59.989-23.621 80.307-48.489 14.558-17.817 24.428-38.979 28.855-61.357z" fill="#e1ebf0"/><g><path d="m290.994 176.508h30v30.002h-30z" fill="#3b3735"/></g><path d="m350.836 359.174h-15.882v152.808h64.002v-141.092c-14.42-7.482-30.784-11.716-48.12-11.716z" fill="#efe2dd"/><path d="m359.138 244.432c-18.944 0-37.409-3.713-54.88-11.036l-17.488-7.33c-9.78-4.099-20.279-6.149-30.779-6.149v137.365l14.768-3.003c31.468-6.401 59.989-23.621 80.307-48.489 14.558-17.817 24.428-38.979 28.855-61.357h-20.783z" fill="#bed9dd"/><path d="m255.991 117.871h155.678v30h-155.678z" fill="#ffb655"/></g></svg>