<svg id="Layer_1" enable-background="new 0 0 511.982 511.982" height="512" viewBox="0 0 511.982 511.982" width="512" xmlns="http://www.w3.org/2000/svg"><g><path d="m56.319 464.001v47.98h159.451l-125.316-125.314c-20.965 19.181-34.135 46.747-34.135 77.334z" fill="#5d5655"/><path d="m455.663 464.001c0-31.593-14.049-59.966-36.227-79.202l-127.183 127.183h163.41z" fill="#5d5655"/><path d="m455.663 464.001c0-31.593-14.049-59.966-36.227-79.202l-127.183 127.183h163.41z" fill="#3b3735"/><path d="m413.662 14.999h30v68.872h-30z" fill="#ffeb99"/><path d="m413.662 14.999h30v68.872h-30z" fill="#ffda44"/><path d="m219.322 261.063 17.488-7.33c12.191-5.109 26.174-5.109 38.363 0l17.488 7.33c21.164 8.871 43.53 13.368 66.478 13.368h11.242c7.966-17.833 12.195-37.278 12.195-57.003v-116.558h-253.168v116.559c0 19.725 4.228 39.17 12.194 57.003h11.242c22.947 0 45.313-4.498 66.478-13.369z" fill="#ffddce"/><path d="m255.991 100.87v149.032c6.544 0 13.087 1.277 19.181 3.832l17.488 7.33c21.164 8.871 43.53 13.368 66.478 13.368h11.242c7.966-17.833 12.195-37.278 12.195-57.003v-116.559z" fill="#ffcbbc"/><g><path d="m190.988 176.508h30v30.002h-30z" fill="#5d5655"/></g><g><path d="m290.994 176.508h30v30.002h-30z" fill="#5d5655"/></g><path d="m129.408 15.001v115.602l126.583 25.64 126.583-25.64v-115.602z" fill="#6d6663"/><path d="m382.574 15.001h-126.583v141.242l126.583-25.64z" fill="#5d5655"/><path d="m334.954 359.174h-20.002v-45.889l-117.922-.001v45.89h-20.001l78.962 78.962z" fill="#ffddce"/><path d="m255.991 438.136 78.963-78.962h-20.002v-45.889l-58.961-.001z" fill="#ffcbbc"/><path d="m350.835 359.174h-35.894l-79.225 79.224 61.085 73.584h15.453l117.218-117.217c-19.223-21.808-47.348-35.591-78.637-35.591z" fill="#ffda44"/><path d="m350.835 359.174h-35.894l-58.95 58.95v44.697l40.81 49.161h15.453l117.218-117.217c-19.223-21.808-47.348-35.591-78.637-35.591z" fill="#ffb655"/><path d="m197.041 359.174h-35.894c-32.295 0-61.222 14.683-80.467 37.721l115.088 115.088h116.487l18.797-18.797z" fill="#ffeb99"/><path d="m359.138 244.432c-18.944 0-37.409-3.713-54.88-11.036l-17.488-7.33c-19.559-8.198-41.996-8.198-61.557 0l-17.488 7.33c-17.472 7.323-35.937 11.036-54.881 11.036h-20.783c4.427 22.378 14.297 43.54 28.855 61.357 20.318 24.868 48.839 42.088 80.307 48.489l14.768 3.003 14.768-3.003c31.468-6.401 59.988-23.621 80.307-48.489 14.558-17.817 24.428-38.979 28.855-61.357z" fill="#e1ebf0"/><path d="m68.318 0h375.344v30h-375.344z" fill="#5d5655"/><g><path d="m290.994 176.508h30v30.002h-30z" fill="#3b3735"/></g><path d="m270.759 354.278c31.468-6.401 59.988-23.621 80.307-48.489 14.558-17.817 24.428-38.979 28.855-61.357h-20.783c-18.944 0-37.409-3.713-54.88-11.036l-17.488-7.33c-9.78-4.099-20.279-6.148-30.779-6.148v137.364z" fill="#bed9dd"/><path d="m312.255 511.982 18.797-18.797-75.061-75.061v93.858z" fill="#ffda44"/><path d="m255.991 0h187.671v30h-187.671z" fill="#3b3735"/></g></svg>