<svg id="Layer_1" enable-background="new 0 0 511.982 511.982" height="512" viewBox="0 0 511.982 511.982" width="512" xmlns="http://www.w3.org/2000/svg"><g><path d="m302.075 30.002h-5.432l-167.236 139.392.001 219.78h221.427c47.83 0 86.742-38.913 86.742-86.742v-136.928c0-74.716-60.786-135.502-135.502-135.502z" fill="#ff7c48"/><path d="m302.075 30.002h-5.432l-40.652 33.884v325.288h94.844c47.83 0 86.742-38.913 86.742-86.742v-136.928c0-74.716-60.786-135.502-135.502-135.502z" fill="#ff415b"/><path d="m84.103 392.924c-17.917 19.412-27.784 44.655-27.784 71.077v47.98h399.345v-47.98c0-57.802-47.025-104.828-104.828-104.828h-189.689c-6.533 0-13.1.613-19.517 1.823z" fill="#0b799d"/><path d="m455.663 464.001c0-57.802-47.025-104.828-104.828-104.828h-94.844v152.808h199.672z" fill="#07485e"/><path d="m219.322 261.063 17.488-7.33c12.19-5.11 26.174-5.109 38.362 0l17.488 7.33c21.164 8.871 43.53 13.368 66.478 13.368h11.242c7.966-17.833 12.195-37.278 12.195-57.003v-46.073c0-46.035-37.452-83.487-83.487-83.487h-81.13c-48.826 0-88.55 39.723-88.55 88.55v41.01c0 19.725 4.229 39.17 12.195 57.003h11.242c22.946.001 45.312-4.497 66.477-13.368z" fill="#ffcbbc"/><path d="m299.087 87.869h-43.096v162.033c6.543 0 13.086 1.278 19.181 3.832l17.488 7.33c21.164 8.871 43.53 13.368 66.478 13.368h11.242c7.966-17.833 12.195-37.278 12.195-57.003v-46.073c-.001-46.035-37.453-83.487-83.488-83.487z" fill="#ffbcae"/><g><path d="m190.988 176.508h30v30.002h-30z" fill="#5d5655"/></g><g><path d="m290.994 176.508h30v30.002h-30z" fill="#5d5655"/></g><path d="m197.03 313.284v66.429c0 32.511 26.45 58.961 58.962 58.961 32.511 0 58.961-26.45 58.961-58.961v-66.428z" fill="#ffcbbc"/><path d="m314.952 379.713v-66.428h-58.961v125.39c32.511-.001 58.961-26.451 58.961-58.962z" fill="#ffbcae"/><path d="m359.138 244.432c-18.944 0-37.409-3.713-54.88-11.036l-17.488-7.33c-19.562-8.199-41.998-8.198-61.558 0l-17.488 7.33c-17.471 7.323-35.936 11.036-54.88 11.036h-20.783c4.427 22.378 14.297 43.54 28.855 61.357 20.318 24.868 48.839 42.088 80.308 48.489l14.768 3.003 14.768-3.004c31.468-6.4 59.988-23.621 80.307-48.488 14.558-17.817 24.428-38.979 28.855-61.357z" fill="#e1ebf0"/><path d="m256.702 0h-28.822c-84.627 0-153.475 68.849-153.475 153.476v225.196c0 38.6 31.403 70.003 70.003 70.003h15v-242.086c0-30.604 20.748-57.115 50.456-64.469l62.289-15.42c28.758-7.12 48.842-32.783 48.842-62.408-.001-35.451-28.841-64.292-64.293-64.292z" fill="#ffb655"/><g><path d="m290.994 176.508h30v30.002h-30z" fill="#3b3735"/></g><path d="m351.066 305.789c14.558-17.817 24.428-38.979 28.855-61.357h-20.783c-18.944 0-37.409-3.713-54.88-11.036l-17.488-7.33c-9.78-4.099-20.28-6.149-30.778-6.149v137.365l14.768-3.004c31.467-6.401 59.987-23.621 80.306-48.489z" fill="#bed9dd"/><path d="m256.702 0h-.711v130.701l16.161-4.001c28.758-7.12 48.842-32.783 48.842-62.408 0-35.451-28.84-64.292-64.292-64.292z" fill="#ff7c48"/></g></svg>