<svg id="Layer_1" enable-background="new 0 0 511.991 511.991" height="512" viewBox="0 0 511.991 511.991" width="512" xmlns="http://www.w3.org/2000/svg"><g><path d="m343.839 359.183h-15.824l-72.02 107.813-72.021-107.813h-15.824c-57.802 0-104.827 47.025-104.827 104.828v47.98h385.344v-47.98c0-57.803-47.025-104.828-104.828-104.828z" fill="#00ccb3"/><path d="m448.667 464.011c0-57.802-47.025-104.828-104.828-104.828h-15.824l-72.02 107.813v44.995h192.672z" fill="#00969b"/><path d="m197.034 313.293v65.439l58.962 88.264 58.961-88.264v-65.438z" fill="#ffe0b7"/><path d="m314.957 378.732v-65.438h-58.961v153.702z" fill="#eecda1"/><path d="m219.326 261.073 17.488-7.33c12.19-5.11 26.174-5.109 38.362 0l17.488 7.33c21.164 8.871 43.53 13.368 66.478 13.368h11.242c7.966-17.833 12.194-37.278 12.194-57.003v-90.789h-253.166v90.789c0 19.725 4.229 39.17 12.194 57.003h11.242c22.947 0 45.314-4.498 66.478-13.368z" fill="#ffe0b7"/><path d="m255.996 126.649v123.262c6.543 0 13.086 1.278 19.181 3.832l17.488 7.33c21.164 8.871 43.53 13.368 66.478 13.368h11.242c7.966-17.833 12.194-37.278 12.194-57.003v-90.789z" fill="#eecda1"/><g><path d="m186.991 176.518h40.003v30h-40.003z" fill="#5d5655"/></g><g><path d="m284.997 176.518h40.003v30h-40.003z" fill="#5d5655"/></g><path d="m256.007 0-186.598 130.847v25.802h373.174v-25.801z" fill="#ffeb99"/><path d="m304.999 482.994v-30h-16.604l62.515-93.567c-2.337-.156-4.693-.244-7.069-.244h-28.847l-58.997 88.302-58.997-88.302h-28.848c-2.376 0-4.731.087-7.068.244l62.515 93.567h-16.583v30h33.981v28.997h30v-28.997z" fill="#ffeb99"/><path d="m359.142 244.441c-18.944 0-37.409-3.713-54.88-11.036l-17.488-7.33c-19.562-8.199-41.998-8.198-61.558 0l-17.488 7.33c-17.471 7.323-35.936 11.036-54.88 11.036h-20.783c4.427 22.378 14.297 43.54 28.855 61.358 20.318 24.867 48.839 42.087 80.308 48.488l14.768 3.003 14.768-3.003c31.468-6.401 59.988-23.621 80.307-48.488 14.558-17.818 24.428-38.979 28.855-61.358z" fill="#e1ebf0"/><g><path d="m284.997 176.518h40.003v30h-40.003z" fill="#3b3735"/></g><path d="m442.583 130.848-186.576-130.848-.011.008v156.641h186.587z" fill="#ffda44"/><path d="m351.07 305.799c14.558-17.818 24.428-38.979 28.855-61.358h-20.783c-18.944 0-37.409-3.713-54.88-11.036l-17.488-7.33c-9.78-4.099-20.28-6.149-30.778-6.149v137.365l14.768-3.003c31.467-6.402 59.987-23.622 80.306-48.489z" fill="#bed9dd"/><path d="m350.909 359.427c-2.337-.156-4.693-.244-7.069-.244h-28.847l-58.997 88.302v64.506h15v-28.997h34.003v-30h-16.604z" fill="#ffda44"/></g></svg>