<svg id="Layer_1" enable-background="new 0 0 511.982 511.982" height="512" viewBox="0 0 511.982 511.982" width="512" xmlns="http://www.w3.org/2000/svg"><g><path d="m56.319 464.002v47.98h63.826v-144.453c-37.485 15.991-63.826 53.213-63.826 96.473z" fill="#6d6663"/><path d="m455.664 464.002c0-43.26-26.341-80.482-63.826-96.473v144.454h63.826z" fill="#6d6663"/><path d="m455.664 464.002c0-43.26-26.341-80.482-63.826-96.473v144.454h63.826z" fill="#5d5655"/><path d="m314.953 359.174v-45.89h-117.923v45.89h-21.884v152.808h161.69v-152.808z" fill="#6d6663"/><path d="m336.836 511.982v-152.808h-21.883v-45.89h-58.962v198.698z" fill="#5d5655"/><path d="m382.574 126.583c0-69.798-56.785-126.583-126.583-126.583s-126.583 56.785-126.583 126.583v15h253.166z" fill="#6d6663"/><path d="m382.574 126.583c0-69.798-56.785-126.583-126.583-126.583v141.583h126.583z" fill="#5d5655"/><path d="m382.574 126.583c0-5.075-.309-10.079-.893-15h-251.38c-.584 4.921-.893 9.925-.893 15v90.846c0 19.725 4.228 39.17 12.194 57.003h11.242c22.946 0 45.313-4.498 66.478-13.368l17.487-7.33c12.191-5.108 26.173-5.108 38.364 0l17.488 7.33c21.165 8.87 43.531 13.368 66.477 13.368h11.242c7.966-17.833 12.194-37.278 12.194-57.003z" fill="#ffddce"/><path d="m381.681 111.583h-125.69v138.319c6.543 0 13.087 1.277 19.182 3.831l17.488 7.33c21.165 8.87 43.531 13.368 66.477 13.368h11.242c7.966-17.833 12.194-37.278 12.194-57.003v-90.846c0-5.074-.309-10.078-.893-14.999z" fill="#ffcbbc"/><g><path d="m190.988 176.508h30v30.002h-30z" fill="#5d5655"/></g><g><path d="m290.995 176.508h30v30.002h-30z" fill="#5d5655"/></g><path d="m287.002 424.701h-16.011v-16.203h-30v16.203h-16.011v30h16.011v42.281h30v-42.281h16.011z" fill="#ffda44"/><path d="m350.836 359.174h-24.001v152.809h75.003v-139.536c-15.105-8.448-32.499-13.273-51.002-13.273z" fill="#faf0f0"/><path d="m161.147 359.174c-18.503 0-35.897 4.825-51.003 13.273v139.535h75.003v-152.808z" fill="#faf0f0"/><path d="m304.258 233.396-17.488-7.33c-19.56-8.196-41.997-8.198-61.557 0l-17.487 7.33c-17.473 7.323-35.938 11.036-54.881 11.036h-20.783c4.427 22.378 14.297 43.54 28.855 61.357 20.318 24.867 48.839 42.088 80.307 48.489l14.768 3.004 14.768-3.004c31.468-6.401 59.988-23.622 80.307-48.489 14.558-17.817 24.428-38.979 28.855-61.357h-20.783c-18.944 0-37.409-3.713-54.881-11.036z" fill="#e1ebf0"/><g><path d="m290.995 176.508h30v30.002h-30z" fill="#3b3735"/></g><path d="m350.836 359.174h-24.001v152.809h75.003v-139.536c-15.105-8.448-32.499-13.273-51.002-13.273z" fill="#efe2dd"/><path d="m270.991 496.982v-42.281h16.011v-30h-16.011v-16.203h-15v88.484z" fill="#ffb655"/><path d="m270.759 354.278c31.468-6.401 59.988-23.622 80.307-48.489 14.558-17.817 24.428-38.979 28.855-61.357h-20.783c-18.943 0-37.408-3.713-54.88-11.036l-17.488-7.33c-9.78-4.098-20.279-6.148-30.778-6.148v137.365z" fill="#bed9dd"/></g></svg>