<svg id="Layer_1" enable-background="new 0 0 511.982 511.982" height="512" viewBox="0 0 511.982 511.982" width="512" xmlns="http://www.w3.org/2000/svg"><g><path d="m129.306 132.582-31.575 269.583 316.52.001-31.574-269.584z" fill="#faf0f0"/><path d="m382.677 132.582h-126.686v269.584h158.26z" fill="#efe2dd"/><path d="m255.991 435.578c50.851 0 97.353-28.276 120.842-73.14-8.316-2.13-17.027-3.264-25.998-3.264h-35.883v-45.89h-117.922v45.89h-35.883c-8.971 0-17.682 1.135-25.998 3.265 23.489 44.863 69.992 73.139 120.842 73.139z" fill="#e8b36f"/><path d="m255.991 435.578c50.85 0 97.353-28.276 120.842-73.14-8.316-2.13-17.027-3.264-25.998-3.264h-35.883v-45.89h-58.961z" fill="#c48958"/><path d="m219.322 261.063 17.487-7.33c12.19-5.108 26.173-5.108 38.364 0l17.488 7.33c21.165 8.87 43.531 13.368 66.477 13.368h11.242c7.966-17.833 12.194-37.278 12.194-57.003v-84.845h-253.166v84.845c0 19.725 4.228 39.17 12.194 57.003h11.242c22.947.001 45.313-4.497 66.478-13.368z" fill="#e8b36f"/><path d="m292.661 261.063c21.165 8.87 43.531 13.368 66.477 13.368h11.242c7.966-17.833 12.194-37.278 12.194-57.003v-84.845h-126.583v117.318c6.543 0 13.087 1.277 19.182 3.831z" fill="#c48958"/><g><path d="m190.988 176.508h30v30.002h-30z" fill="#5d5655"/></g><g><path d="m290.995 176.508h30v30.002h-30z" fill="#5d5655"/></g><path d="m255.991 0c-69.798 0-126.583 56.785-126.583 126.583v5.999h253.166v-5.999c0-69.798-56.784-126.583-126.583-126.583z" fill="#faf0f0"/><path d="m382.574 126.583c0-69.798-56.784-126.583-126.583-126.583v132.582h126.583z" fill="#efe2dd"/><path d="m376.833 362.438c-23.489 44.864-69.992 73.14-120.842 73.14-50.85 0-97.353-28.276-120.842-73.14-45.268 11.594-78.83 52.732-78.83 101.564v47.98h399.345v-47.98c0-48.832-33.563-89.97-78.831-101.564z" fill="#ff7c48"/><path d="m455.664 464.002c0-48.832-33.562-89.97-78.83-101.564-23.489 44.864-69.992 73.14-120.842 73.14v76.404h199.672z" fill="#ff415b"/><path d="m361.245 359.69c-9.932 17.277-23.958 31.854-40.944 42.46-19.309 12.057-41.547 18.429-64.31 18.429s-45.001-6.372-64.31-18.429c-16.987-10.606-31.012-25.182-40.944-42.459-10.519 1.042-20.585 3.646-29.965 7.575 12.482 24.781 31.462 45.622 55.02 60.332 19.815 12.372 42.106 19.932 65.199 22.226v62.16h30v-62.16c23.092-2.294 45.383-9.854 65.199-22.226 23.559-14.709 42.539-35.551 55.02-60.332-9.379-3.93-19.446-6.534-29.965-7.576z" fill="#ff415b"/><g><path d="m109.647 117.583h292.689v30h-292.689z" fill="#ff415b"/></g><path d="m359.138 244.432c-18.943 0-37.408-3.713-54.88-11.036l-17.488-7.33c-19.56-8.196-41.997-8.198-61.557 0l-17.487 7.33c-17.473 7.323-35.938 11.036-54.881 11.036h-20.783c4.427 22.378 14.297 43.54 28.855 61.357 20.318 24.867 48.839 42.088 80.307 48.489l14.768 3.003 14.768-3.003c31.468-6.401 59.989-23.622 80.307-48.489 14.558-17.817 24.428-38.979 28.855-61.357z" fill="#e1ebf0"/><g><path d="m290.995 176.508h30v30.002h-30z" fill="#3b3735"/></g><path d="m351.066 305.789c14.558-17.817 24.428-38.979 28.855-61.357h-20.783c-18.943 0-37.408-3.713-54.88-11.036l-17.488-7.33c-9.78-4.098-20.279-6.148-30.778-6.148v137.364l14.768-3.003c31.467-6.402 59.988-23.623 80.306-48.49z" fill="#bed9dd"/><g fill="#e50058"><path d="m270.991 511.982v-62.16c23.092-2.294 45.383-9.854 65.199-22.226 23.559-14.709 42.539-35.551 55.02-60.332-9.379-3.929-19.446-6.533-29.965-7.575-9.932 17.277-23.958 31.854-40.944 42.46-19.309 12.057-41.547 18.429-64.31 18.429v91.404z"/><path d="m255.991 117.583h146.345v30h-146.345z"/></g></g></svg>