<svg id="Layer_1" enable-background="new 0 0 511.982 511.982" height="512" viewBox="0 0 511.982 511.982" width="512" xmlns="http://www.w3.org/2000/svg"><g><path d="m464.668 230.994c-13.786 0-25.002-11.216-25.002-25.002v-98.233c0-37.363-30.397-67.76-67.761-67.76-6.124 0-12.234.835-18.161 2.48l-11.018 3.061.531 188.497 5.978 4.484c19.602 14.701 42.942 22.473 67.502 22.473h47.931z" fill="#ffda44"/><path d="m464.668 230.994c-13.786 0-25.002-11.216-25.002-25.002v-98.233c0-37.363-30.397-67.76-67.761-67.76-6.124 0-12.234.835-18.161 2.48l-11.018 3.061.531 188.497 5.978 4.484c19.602 14.701 42.942 22.473 67.502 22.473h47.931z" fill="#ffb655"/><path d="m47.315 464.002v47.98h94.826v-152.328c-53.128 5.052-94.826 49.919-94.826 104.348z" fill="#ffddce"/><path d="m341.831 359.174h-189.688c-3.374 0-6.709.167-10.002.48v152.329h209.692v-152.329c-3.293-.314-6.628-.48-10.002-.48z" fill="#00ee8a"/><path d="m351.833 511.982v-152.328c-3.293-.313-6.628-.48-10.002-.48h-94.844v152.809h104.846z" fill="#00ccb3"/><path d="m446.659 464.002c0-54.429-41.698-99.296-94.826-104.348v152.329h94.826z" fill="#ffddce"/><path d="m446.659 464.002c0-54.429-41.698-99.296-94.826-104.348v152.329h94.826z" fill="#ffcbbc"/><path d="m307.618 0h-121.261c-36.366 0-65.953 29.586-65.953 65.952v23.541h253.167v-23.541c0-36.366-29.586-65.952-65.953-65.952z" fill="#ffeb99"/><path d="m373.571 65.952c0-36.366-29.586-65.952-65.953-65.952h-60.631v89.493h126.583v-23.541z" fill="#ffda44"/><path d="m188.026 313.285v74.23c0 21.312 11.28 41.479 29.439 52.632l29.522 18.133 29.521-18.133c18.159-11.153 29.439-31.32 29.439-52.632v-74.23z" fill="#ffddce"/><path d="m276.509 440.146c18.159-11.153 29.439-31.32 29.439-52.632v-74.23h-58.961v144.995z" fill="#ffcbbc"/><path d="m210.317 261.063 17.489-7.33c12.19-5.11 26.173-5.109 38.363 0l17.487 7.33c21.164 8.871 43.53 13.368 66.478 13.368h11.242c7.966-17.832 12.194-37.278 12.194-57.002v-101.734h-253.166v101.734c0 19.725 4.228 39.17 12.194 57.002h11.242c22.947.001 45.314-4.497 66.477-13.368z" fill="#ffddce"/><path d="m266.169 253.734 17.487 7.33c21.164 8.871 43.53 13.368 66.478 13.368h11.242c7.966-17.832 12.194-37.278 12.194-57.002v-101.735h-126.582v134.207c6.543 0 13.086 1.277 19.181 3.832z" fill="#ffcbbc"/><g><path d="m181.984 176.508h30v30.002h-30z" fill="#5d5655"/></g><g><path d="m281.991 176.508h30v30.002h-30z" fill="#5d5655"/></g><path d="m345.831 55.592h-197.687c-20.81 0-37.74 16.93-37.74 37.74v18.524c0 20.81 16.931 37.74 37.74 37.74h197.688c20.81 0 37.739-16.93 37.739-37.74v-18.524c0-20.81-16.93-37.74-37.74-37.74z" fill="#00ee8a"/><path d="m341.831 359.174h-4.999v152.809h30v-149.788c-8.015-1.969-16.387-3.021-25.001-3.021z" fill="#faf0f0"/><path d="m152.143 359.174c-8.614 0-16.986 1.052-25.001 3.021v149.788h30v-152.809z" fill="#faf0f0"/><path d="m350.134 244.432c-18.944 0-37.409-3.713-54.881-11.036l-17.487-7.33c-19.559-8.198-41.996-8.199-61.557 0l-17.489 7.33c-17.471 7.323-35.936 11.036-54.88 11.036h-20.783c4.427 22.379 14.297 43.54 28.856 61.358 20.318 24.868 48.839 42.088 80.308 48.489l14.768 3.003 14.768-3.004c31.468-6.4 59.988-23.621 80.307-48.488 14.558-17.818 24.428-38.979 28.856-61.358z" fill="#e1ebf0"/><g><path d="m281.991 176.508h30v30.002h-30z" fill="#3b3735"/></g><path d="m341.831 359.174h-4.999v152.809h30v-149.788c-8.015-1.969-16.387-3.021-25.001-3.021z" fill="#efe2dd"/><path d="m345.831 55.592h-98.844v94.004h98.844c20.81 0 37.739-16.93 37.739-37.74v-18.524c.001-20.81-16.929-37.74-37.739-37.74z" fill="#00ccb3"/><path d="m261.755 354.278c31.468-6.4 59.988-23.621 80.307-48.488 14.558-17.818 24.428-38.979 28.856-61.358h-20.783c-18.944 0-37.409-3.713-54.881-11.036l-17.487-7.33c-9.78-4.099-20.279-6.149-30.778-6.149v137.365z" fill="#bed9dd"/></g></svg>