<svg id="Layer_1" enable-background="new 0 0 511.987 511.987" height="512" viewBox="0 0 511.987 511.987" width="512" xmlns="http://www.w3.org/2000/svg"><g><path d="m129.411 88.062v94.815h253.166v-77.925z" fill="#ffddce"/><path d="m382.577 104.952-126.583-8.445v86.37h126.583z" fill="#ffcbbc"/><path d="m161.149 359.174c-57.803 0-104.828 47.025-104.828 104.828v47.98h399.345v-47.98c0-57.803-47.025-104.828-104.828-104.828z" fill="#7ed8f6"/><path d="m455.666 464.002c0-57.803-47.025-104.828-104.828-104.828h-94.844v152.809h199.672z" fill="#2fc0f0"/><path d="m364.413 382.039c-12.356-14.531-30.383-22.865-49.457-22.865h-117.925c-19.074 0-37.1 8.334-49.456 22.865s-17.685 33.663-14.618 52.489l27.615 77.454 190.843.005 27.616-77.459c3.067-18.826-2.261-37.958-14.618-52.489z" fill="#beebfa"/><path d="m364.413 382.039c-12.356-14.531-30.383-22.865-49.457-22.865h-58.962v152.811l95.421.002 27.616-77.459c3.067-18.826-2.261-37.958-14.618-52.489z" fill="#7ed8f6"/><path d="m197.032 313.285v45.889l58.962 112.357 58.961-112.357v-45.888z" fill="#ffddce"/><path d="m314.955 359.174v-45.888h-58.961v158.245z" fill="#ffcbbc"/><path d="m305.624 27.999h-19.324c-13.049-17.011-33.58-27.999-56.627-27.999h-120.264v52.689c0 40.962 33.324 74.286 74.286 74.286h198.882v-22.023c0-42.431-34.521-76.953-76.953-76.953z" fill="#5d5655"/><path d="m352.577 214.31c0 9.687-7.881 17.567-17.568 17.567h-29.012c-5.143 0-10.01-2.241-13.351-6.148l-.502-.587c-9.05-10.582-22.227-16.651-36.151-16.651s-27.101 6.069-36.15 16.651l-.501.586c-3.342 3.908-8.209 6.149-13.352 6.149h-29.012c-9.687 0-17.567-7.881-17.567-17.567h-30v3.119c0 32.112 11.189 63.493 31.508 88.36s48.839 42.088 80.307 48.489l14.768 3.003 14.768-3.003c31.469-6.4 59.989-23.621 80.308-48.488 20.318-24.868 31.509-56.248 31.509-88.36v-3.12z" fill="#e1ebf0"/><path d="m351.068 305.79c20.318-24.868 31.509-56.248 31.509-88.36v-3.12h-30c0 9.687-7.881 17.567-17.568 17.567h-29.012c-5.143 0-10.01-2.241-13.351-6.148l-.502-.587c-9.05-10.582-22.226-16.651-36.15-16.651v148.791l14.767-3.003c31.468-6.401 59.989-23.622 80.307-48.489z" fill="#bed9dd"/><path d="m144.411 214.31c0 17.987 14.581 32.568 32.568 32.568h29.012c9.52 0 18.563-4.165 24.751-11.4l.501-.586c6.188-7.235 15.231-11.4 24.751-11.4s18.563 4.165 24.751 11.4l.502.586c6.188 7.235 15.231 11.4 24.751 11.4h29.012c17.987 0 32.568-14.581 32.568-32.568v-46.432h-223.167z" fill="#beebfa"/><path d="m280.745 234.891.502.586c6.188 7.235 15.231 11.4 24.751 11.4h29.012c17.987 0 32.568-14.581 32.568-32.568v-46.432h-111.584v55.613c9.52 0 18.563 4.166 24.751 11.401z" fill="#7ed8f6"/><path d="m335.009 261.877h-29.012c-13.924 0-27.101-6.068-36.15-16.649l-.503-.588c-3.342-3.908-8.208-6.149-13.351-6.149s-10.008 2.241-13.351 6.149l-.501.587c-9.051 10.582-22.228 16.65-36.151 16.65h-29.012c-26.229 0-47.567-21.339-47.567-47.567v-61.433h253.166v61.433c0 26.228-21.339 47.567-47.568 47.567zm-79.016-53.387c13.925 0 27.102 6.069 36.151 16.651l.502.587c3.341 3.907 8.208 6.148 13.351 6.148h29.012c9.688 0 17.568-7.881 17.568-17.567v-31.433h-193.166v31.433c0 9.687 7.881 17.567 17.567 17.567h29.012c5.143 0 10.01-2.241 13.352-6.149l.501-.586c9.05-10.581 22.226-16.651 36.15-16.651z" fill="#0b799d"/><path d="m382.577 104.952c0-42.432-34.521-76.953-76.953-76.953h-19.324c-7.788-10.153-18.243-18.158-30.306-22.964v121.941h126.583z" fill="#3b3735"/><path d="m255.994 152.877v30h96.583v31.433c0 9.687-7.881 17.567-17.568 17.567h-29.012c-5.143 0-10.01-2.241-13.351-6.148l-.502-.587c-9.05-10.582-22.226-16.651-36.15-16.651v30c5.142 0 10.008 2.241 13.35 6.149l.503.588c9.05 10.581 22.227 16.649 36.15 16.649h29.012c26.229 0 47.568-21.339 47.568-47.567v-61.433z" fill="#07485e"/></g></svg>