<svg id="Layer_1" enable-background="new 0 0 512.052 512.052" height="512" viewBox="0 0 512.052 512.052" width="512" xmlns="http://www.w3.org/2000/svg"><g><path d="m420.697 297.072c-21.001 0-38.088-17.086-38.088-38.088v-56.48h-34.109l-63.513 122.19v64.555h82.622c37.544 0 68.088-30.544 68.088-68.088v-24.088h-15z" fill="#99544e"/><path d="m420.697 297.072c-21.001 0-38.088-17.086-38.088-38.088v-56.48h-34.109l-63.513 122.19v64.555h82.622c37.544 0 68.088-30.544 68.088-68.088v-24.088h-15z" fill="#66333e"/><path d="m163.552 202.503h-34.109v56.48c0 21.002-17.086 38.088-38.088 38.088h-15v24.088c0 37.544 30.544 68.088 68.088 68.088h82.622v-64.555z" fill="#99544e"/><path d="m401.319 36.717-145.281-36.717-145.305 36.717 22.43 83.914h245.723z" fill="#0b799d"/><path d="m401.319 36.717-145.281-36.717h-.001v120.631h122.849z" fill="#07485e"/><path d="m350.87 359.244h-17.177v61.404h-155.334v-61.404h-17.177c-57.802 0-104.828 47.025-104.828 104.828v47.981h399.345v-47.981c-.001-57.803-47.026-104.828-104.829-104.828z" fill="#0b799d"/><path d="m455.698 464.071c0-57.802-47.025-104.828-104.828-104.828h-17.177v61.404h-77.656v91.404h199.661z" fill="#07485e"/><path d="m211.035 420.648h90.004v91.404h-90.004z" fill="#5d5655"/><path d="m256.037 420.648h45.002v91.404h-45.002z" fill="#3b3735"/><path d="m161.182 359.244h189.688v91.404h-189.688z" fill="#7ed8f6"/><path d="m256.037 359.244h94.833v91.404h-94.833z" fill="#2fc0f0"/><path d="m256.037 450.648 58.951-91.404v-45.889h-117.923v45.889z" fill="#ffddce"/><path d="m314.988 359.244v-45.889h-58.951v137.293z" fill="#ffcbbc"/><path d="m219.357 261.133 17.488-7.33c12.191-5.11 26.174-5.109 38.363 0l17.488 7.33c21.164 8.871 43.53 13.368 66.478 13.368h11.242c7.966-17.833 12.195-37.278 12.195-57.003v-96.867h-253.168v96.867c0 19.725 4.228 39.17 12.194 57.003h11.242c22.947 0 45.314-4.497 66.478-13.368z" fill="#ffddce"/><path d="m256.037 120.631v129.34c6.54.001 13.079 1.279 19.17 3.832l17.488 7.33c21.164 8.871 43.53 13.368 66.478 13.368h11.242c7.966-17.833 12.195-37.278 12.195-57.003v-96.867z" fill="#ffcbbc"/><path d="m359.173 244.501c-18.944 0-37.409-3.713-54.88-11.036l-17.488-7.33c-19.559-8.198-41.996-8.198-61.557 0l-17.488 7.33c-17.472 7.323-35.937 11.036-54.881 11.036h-20.783c4.427 22.378 14.297 43.54 28.855 61.357 20.318 24.868 48.839 42.088 80.307 48.489l14.768 3.003 14.768-3.003c31.468-6.401 59.988-23.621 80.307-48.489 14.558-17.817 24.428-38.979 28.855-61.357z" fill="#e1ebf0"/><g><path d="m191.023 176.578h30v30.002h-30z" fill="#5d5655"/></g><g><path d="m291.03 176.578h30v30.002h-30z" fill="#5d5655"/></g><g><path d="m241.037 71.804h30v48.827h-30z" fill="#ffda44"/></g><path d="m256.037 71.804h15v48.828h-15z" fill="#ffb655"/><path d="m129.443 106.645v30l85.077 22.113c13.546 3.521 27.51 5.306 41.506 5.306s27.96-1.785 41.506-5.306l85.072-22.111.021-30.002z" fill="#5d5655"/><path d="m382.605 136.647.021-30.002h-126.589v57.419c13.992-.001 27.953-1.786 41.495-5.305z" fill="#3b3735"/><g><path d="m291.03 176.578h30v30.002h-30z" fill="#3b3735"/></g><path d="m359.173 244.501c-18.944 0-37.409-3.713-54.88-11.036l-17.488-7.33c-9.776-4.098-20.272-6.147-30.768-6.148v137.362l14.757-3.001c31.468-6.401 59.988-23.621 80.307-48.489 14.558-17.817 24.428-38.979 28.855-61.357h-20.783z" fill="#bed9dd"/></g></svg>