<svg id="Layer_1" enable-background="new 0 0 511.977 511.977" height="512" viewBox="0 0 511.977 511.977" width="512" xmlns="http://www.w3.org/2000/svg"><g><path d="m219.319 261.058 17.487-7.33c12.191-5.109 26.173-5.107 38.364 0l17.488 7.33c21.165 8.87 43.531 13.368 66.477 13.368h11.242c7.966-17.833 12.194-37.278 12.194-57.003v-79.557h-253.166v79.557c0 19.725 4.228 39.17 12.194 57.003h11.242c22.947 0 45.313-4.498 66.478-13.368z" fill="#eecda1"/><path d="m255.988 137.866v112.03c6.543 0 13.087 1.278 19.182 3.831l17.488 7.33c21.165 8.87 43.531 13.368 66.477 13.368h11.242c7.966-17.833 12.194-37.278 12.194-57.003v-79.557h-126.583z" fill="#e8b36f"/><g><path d="m190.985 176.502h30v30.002h-30z" fill="#5d5655"/></g><g><path d="m290.992 176.502h30v30.002h-30z" fill="#5d5655"/></g><path d="m350.833 359.168h-189.689c-57.802 0-104.828 47.025-104.828 104.828v47.98h399.345v-47.98c0-57.803-47.026-104.828-104.828-104.828z" fill="#faf0f0"/><path d="m455.661 463.996c0-57.803-47.025-104.828-104.828-104.828h-94.845v152.809h199.672v-47.981z" fill="#efe2dd"/><path d="m361.944 3.94c-5.155-2.578-10.926-3.94-16.689-3.94s-11.534 1.362-16.688 3.939l-2.357 1.179c-2.021 1.011-4.521 1.011-6.545-.001l-2.354-1.177c-5.155-2.578-10.926-3.94-16.689-3.94s-11.534 1.362-16.688 3.939l-2.357 1.179c-2.021 1.011-4.521 1.011-6.545-.001l-2.354-1.177c-5.156-2.578-10.927-3.94-16.689-3.94-5.763 0-11.534 1.362-16.687 3.939l-2.359 1.179c-2.021 1.011-4.521 1.011-6.545-.001l-2.354-1.177c-5.155-2.578-10.925-3.94-16.689-3.94s-11.534 1.362-16.687 3.938l-2.359 1.18c-2.021 1.011-4.521 1.011-6.545-.001l-2.354-1.177c-5.154-2.578-10.925-3.94-16.688-3.94s-11.534 1.362-16.688 3.94l-20.628 10.313v123.61h253.166v-123.609z" fill="#faf0f0"/><path d="m382.571 14.254-20.627-10.314c-5.155-2.578-10.926-3.94-16.689-3.94s-11.534 1.362-16.688 3.939l-2.357 1.179c-2.021 1.011-4.521 1.011-6.545-.001l-2.354-1.177c-5.155-2.578-10.926-3.94-16.689-3.94s-11.534 1.362-16.688 3.939l-2.357 1.179c-2.021 1.011-4.521 1.011-6.545-.001l-2.354-1.177c-5.156-2.578-10.927-3.94-16.689-3.94v137.864h126.583v-123.61z" fill="#efe2dd"/><g><path d="m301.003 448.131h30v30.002h-30z" fill="#6d6663"/></g><g><path d="m180.996 448.131h30v30.002h-30z" fill="#6d6663"/></g><path d="m327.003 122.865v-30.83h-30v30.83h-26.003v-30.83h-30v30.83h-26.004v-30.83h-30v30.83h-55.591v30h253.166v-30z" fill="#efe2dd"/><path d="m197.027 313.283v45.885l58.961 70.848 58.962-70.848v-45.885z" fill="#eecda1"/><path d="m314.95 359.168v-45.885h-58.962v116.733z" fill="#e8b36f"/><path d="m359.135 244.426c-18.943 0-37.408-3.713-54.88-11.036l-17.488-7.33c-19.56-8.197-41.997-8.197-61.557 0l-17.487 7.33c-17.473 7.323-35.938 11.036-54.881 11.036h-20.783c4.427 22.378 14.297 43.54 28.855 61.357 20.318 24.867 48.839 42.088 80.307 48.489l14.768 3.003 14.768-3.003c31.468-6.401 59.989-23.622 80.307-48.489 14.558-17.817 24.428-38.979 28.855-61.357z" fill="#e1ebf0"/><g><path d="m290.992 176.502h30v30.002h-30z" fill="#3b3735"/></g><g><path d="m301.003 448.131h30v30.002h-30z" fill="#5d5655"/></g><path d="m382.571 122.865h-55.568v-30.83h-30v30.83h-26.003v-30.83h-15.012v60.83h126.583z" fill="#e1d3ce"/><path d="m270.756 354.272c31.468-6.401 59.989-23.622 80.307-48.489 14.558-17.817 24.428-38.979 28.855-61.357h-20.783c-18.943 0-37.408-3.713-54.88-11.036l-17.488-7.33c-9.78-4.099-20.279-6.148-30.778-6.148v137.364z" fill="#bed9dd"/></g></svg>