<svg id="Layer_1" enable-background="new 0 0 511.998 511.998" height="512" viewBox="0 0 511.998 511.998" width="512" xmlns="http://www.w3.org/2000/svg"><g><path d="m104.828 359.184c-57.803 0-104.828 47.025-104.828 104.827v47.98h319.518v-152.807z" fill="#ffda44"/><path d="m199.672 359.184h119.845v152.808h-119.845z" fill="#ffb655"/><path d="m140.711 313.294v45.89l58.961 57.006 58.962-57.006v-45.889z" fill="#ffddce"/><path d="m258.634 359.184v-45.889h-58.962v102.895z" fill="#ffcbbc"/><path d="m163.002 261.072 17.489-7.329c12.19-5.109 26.173-5.109 38.363 0l17.487 7.329c21.163 8.87 43.529 13.368 66.478 13.368h11.242c7.966-17.832 12.194-37.278 12.194-57.002v-113.6h-253.166v113.601c0 19.724 4.228 39.17 12.194 57.002h11.242c22.949 0 45.315-4.498 66.477-13.369z" fill="#ffddce"/><path d="m199.672 103.838v146.073c6.544 0 13.087 1.277 19.182 3.832l17.487 7.329c21.163 8.87 43.529 13.368 66.478 13.368h11.242c7.966-17.832 12.194-37.278 12.194-57.002v-113.6z" fill="#ffcbbc"/><g><path d="m134.669 176.517h30v30.002h-30z" fill="#5d5655"/></g><g><path d="m234.675 176.517h30v30.002h-30z" fill="#5d5655"/></g><path d="m73.089 78.007v53.578l85.078 22.113c13.545 3.521 27.51 5.306 41.505 5.306s27.96-1.785 41.506-5.306l85.077-22.113v-53.578z" fill="#5d5655"/><path d="m326.255 131.585v-53.578h-126.583v80.997c13.995 0 27.96-1.785 41.506-5.306z" fill="#3b3735"/><path d="m52.584 373.155 138.837 138.837h42.426l-150.575-150.575c-10.95 2.298-21.278 6.306-30.688 11.738z" fill="#5d5655"/><path d="m289.518 359.184v23.222l111.24 70.975 111.24-70.975v-23.222z" fill="#efe2dd"/><path d="m400.758 359.184v94.197l111.24-70.975v-23.222z" fill="#e1d3ce"/><path d="m400.758 430.158-111.24-70.974v152.807h222.48v-152.807z" fill="#faf0f0"/><path d="m341.485 52.561c-4.998-16.239-17.854-28.268-34.389-32.176l-65.781-15.547c-27.25-6.44-56.014-6.442-83.262-.002l-65.802 15.551c-16.536 3.907-29.392 15.935-34.39 32.174s-1.132 33.415 10.344 45.945l4.884 5.332h253.167l4.885-5.334c11.476-12.529 15.342-29.705 10.344-45.943z" fill="#ffda44"/><path d="m302.819 244.441c-18.945 0-37.41-3.713-54.881-11.036l-17.487-7.329c-19.561-8.197-41.997-8.197-61.557 0l-17.488 7.329c-17.471 7.323-35.936 11.036-54.881 11.036h-20.783c4.427 22.379 14.297 43.541 28.855 61.358 20.318 24.867 48.839 42.088 80.307 48.488l14.768 3.003 14.768-3.003c31.468-6.4 59.989-23.621 80.307-48.488 14.558-17.818 24.428-38.98 28.855-61.358z" fill="#e1ebf0"/><g><path d="m234.675 176.517h30v30.002h-30z" fill="#3b3735"/></g><path d="m341.485 52.561c-4.998-16.239-17.854-28.268-34.389-32.176l-65.781-15.547c-13.628-3.221-27.636-4.832-41.643-4.831v103.831h126.583l4.885-5.334c11.477-12.529 15.343-29.705 10.345-45.943z" fill="#ffb655"/><path d="m233.847 511.991-34.175-34.174v34.174z" fill="#3b3735"/><path d="m214.44 354.287c31.468-6.4 59.989-23.621 80.307-48.488 14.558-17.818 24.428-38.98 28.855-61.358h-20.783c-18.945 0-37.41-3.713-54.881-11.036l-17.487-7.329c-9.78-4.099-20.28-6.148-30.779-6.148v137.362z" fill="#bed9dd"/><path d="m511.998 359.184-111.24 70.974v81.833h111.24z" fill="#efe2dd"/></g></svg>