<svg id="Layer_1" enable-background="new 0 0 511.982 511.982" height="512" viewBox="0 0 511.982 511.982" width="512" xmlns="http://www.w3.org/2000/svg"><g><path d="m430.603 416.521c-16.396-22.456-39.059-38.803-65.542-47.272l-62.769-20.075h-92.603l-62.769 20.075c-26.483 8.47-49.146 24.816-65.542 47.273-16.395 22.456-25.061 49.022-25.061 76.826v18.635h399.345v-18.635c.002-27.804-8.664-54.37-25.059-76.827z" fill="#0b799d"/><path d="m455.664 493.348c0-27.804-8.666-54.37-25.061-76.827-16.396-22.456-39.059-38.803-65.542-47.272l-62.769-20.075h-46.301v162.81h199.672v-18.636z" fill="#07485e"/><path d="m197.03 313.285v66.428c0 32.512 26.45 58.962 58.961 58.962s58.961-26.45 58.961-58.962v-66.429z" fill="#c1674c"/><path d="m314.953 379.713v-66.429h-58.961v125.39c32.51.001 58.961-26.449 58.961-58.961z" fill="#99544e"/><path d="m219.322 261.063 17.487-7.33c12.19-5.108 26.174-5.11 38.363 0l17.489 7.33c21.164 8.87 43.53 13.368 66.477 13.368h11.242c7.966-17.833 12.195-37.278 12.195-57.003v-90.846c0-47.394-26.187-88.78-64.846-110.471l-13.13 18.484c-11.162 15.715-29.333 25.095-48.608 25.095s-37.446-9.381-48.608-25.095l-13.129-18.484c-38.659 21.691-64.846 63.077-64.846 110.471v90.846c0 19.725 4.228 39.17 12.194 57.003h11.242c22.947.001 45.313-4.497 66.478-13.368z" fill="#c1674c"/><path d="m317.729 16.112-13.13 18.484c-11.162 15.714-29.333 25.094-48.608 25.094v190.211c6.543 0 13.087 1.277 19.181 3.832l17.489 7.33c21.164 8.87 43.53 13.368 66.477 13.368h11.242c7.966-17.833 12.195-37.278 12.195-57.003v-90.846c0-47.393-26.187-88.779-64.846-110.47z" fill="#99544e"/><path d="m255.991 67.649c25.07 0 48.705-12.202 63.224-32.641l8.831-12.433c-20.464-14.223-45.3-22.575-72.055-22.575s-51.591 8.352-72.055 22.576l8.831 12.432c14.518 20.439 38.153 32.641 63.224 32.641z" fill="#efe2dd"/><g><path d="m190.988 176.508h30v30.002h-30z" fill="#5d5655"/></g><g><path d="m290.995 176.508h30v30.002h-30z" fill="#5d5655"/></g><path d="m359.138 244.432c-18.943 0-37.408-3.713-54.88-11.036l-17.489-7.33c-19.56-8.197-41.996-8.197-61.556 0l-17.487 7.33c-17.473 7.323-35.938 11.036-54.881 11.036h-20.783c4.427 22.378 14.297 43.54 28.855 61.357 20.318 24.867 48.839 42.088 80.307 48.489l14.768 3.004 14.768-3.004c31.468-6.401 59.988-23.622 80.307-48.489 14.558-17.817 24.428-38.979 28.855-61.357z" fill="#e1ebf0"/><g><path d="m255.996 151.04c-9.357 0-18.713-1.768-27.619-5.302-5.317-2.11-10.886-3.175-16.578-3.175h-6v-30h6c9.497 0 18.788 1.776 27.616 5.279 10.707 4.249 22.467 4.247 33.14.008 8.835-3.509 18.132-5.287 27.636-5.287h6v30h-6c-5.695 0-11.269 1.066-16.563 3.169-8.909 3.539-18.271 5.308-27.632 5.308z" fill="#99544e"/></g><g><path d="m290.995 176.508h30v30.002h-30z" fill="#3b3735"/></g><path d="m359.138 244.432c-18.943 0-37.408-3.713-54.88-11.036l-17.489-7.33c-9.78-4.099-20.279-6.148-30.778-6.148v137.365l14.768-3.004c31.468-6.401 59.988-23.622 80.307-48.489 14.558-17.817 24.428-38.979 28.855-61.357h-20.783z" fill="#bed9dd"/><path d="m283.628 145.733c5.294-2.103 10.867-3.169 16.563-3.169h6v-30h-6c-9.504 0-18.801 1.778-27.636 5.287-5.339 2.12-10.949 3.181-16.564 3.179v30.01h.004c9.362 0 18.724-1.769 27.633-5.307z" fill="#66333e"/><path d="m319.215 35.008 8.831-12.433c-20.464-14.223-45.3-22.575-72.055-22.575v67.649c25.07 0 48.706-12.202 63.224-32.641z" fill="#e1d3ce"/></g></svg>