<svg id="Layer_1" enable-background="new 0 0 511.982 511.982" height="512" viewBox="0 0 511.982 511.982" width="512" xmlns="http://www.w3.org/2000/svg"><g><path d="m430.603 416.521c-13.466-18.444-31.167-32.756-51.732-41.978v6.049l-.117.902c-4.708 36.235-35.901 63.559-72.555 63.559-19.088 0-37.028-7.315-50.452-20.122-13.428 12.806-31.369 20.122-50.452 20.122-36.536 0-67.714-27.224-72.523-63.326l-.124-.924v-6.061c-20.37 9.229-37.904 23.471-51.27 41.778-16.395 22.457-25.061 49.023-25.061 76.827v18.634h399.345v-18.634c.001-27.803-8.665-54.369-25.059-76.826z" fill="#ffb655"/><path d="m455.663 493.348c0-27.804-8.666-54.371-25.061-76.827-13.466-18.444-31.167-32.756-51.732-41.978v6.049l-.117.902c-4.708 36.235-35.901 63.559-72.555 63.559-19.088 0-37.028-7.315-50.452-20.122 0 0-.001 0-.001.001v87.049h199.917v-18.633z" fill="#ff7c48"/><path d="m124.53 389.7c5.132 38.521 38.399 67.57 77.384 67.57 20.361 0 39.505-7.807 53.833-21.471 14.323 13.666 33.466 21.471 53.833 21.471 39.111 0 72.395-29.156 77.418-67.819l.125-.962v-9.878c-6.995-3.752-14.361-6.9-22.062-9.363l-62.769-20.075h-92.602l-62.769 20.075c-7.87 2.517-15.392 5.745-22.523 9.607v9.859z" fill="#ffeb99"/><path d="m365.061 369.248-62.769-20.075h-46.546v86.627c14.323 13.666 33.466 21.471 53.833 21.471 39.111 0 72.395-29.156 77.418-67.819l.125-.962v-9.878c-6.995-3.753-14.361-6.901-22.061-9.364z" fill="#ffda44"/><path d="m197.03 313.286v56.427c0 32.511 26.45 58.961 58.962 58.961 32.511 0 58.961-26.45 58.961-58.961v-56.427z" fill="#c1674c"/><path d="m255.746 313.286v115.382c.082 0 .163.006.245.006 32.511 0 58.961-26.45 58.961-58.961v-56.427z" fill="#99544e"/><path d="m308.374 0h-104.765c-71.244 0-129.204 57.961-129.204 129.204 0 41.38 20.03 80.543 53.581 104.761l11.987 8.653h232.036l11.986-8.653c33.552-24.218 53.582-63.381 53.582-104.761 0-71.243-57.96-129.204-129.203-129.204z" fill="#efe2dd"/><path d="m308.374 0h-52.628v242.618h116.263l11.986-8.653c33.552-24.218 53.582-63.381 53.582-104.761 0-71.243-57.96-129.204-129.203-129.204z" fill="#e1d3ce"/><path d="m219.322 261.063 17.487-7.33c12.188-5.108 26.173-5.11 38.363 0l17.489 7.33c21.164 8.87 43.53 13.368 66.477 13.368h11.242c7.966-17.833 12.195-37.278 12.195-57.003v-57.923c0-53.43-43.469-96.897-96.898-96.897h-59.37c-53.43 0-96.898 43.468-96.898 96.897v57.923c0 19.725 4.229 39.17 12.195 57.003h11.242c22.944.001 45.31-4.497 66.476-13.368z" fill="#c1674c"/><path d="m285.676 62.608h-29.93v187.299c6.625-.032 13.255 1.239 19.426 3.826l17.489 7.33c21.164 8.87 43.53 13.368 66.477 13.368h11.242c7.966-17.833 12.195-37.278 12.195-57.003v-57.923c-.001-53.429-43.469-96.897-96.899-96.897z" fill="#99544e"/><g><path d="m190.988 176.508h30v30.002h-30z" fill="#5d5655"/></g><g><path d="m290.994 176.508h30v30.002h-30z" fill="#5d5655"/></g><path d="m359.138 244.432c-18.943 0-37.408-3.713-54.88-11.036l-17.489-7.33c-19.559-8.197-41.996-8.197-61.557 0l-17.487 7.33c-17.473 7.323-35.938 11.036-54.881 11.036h-20.783c4.427 22.378 14.297 43.54 28.855 61.357 20.318 24.867 48.839 42.088 80.308 48.489l14.768 3.004 14.768-3.004c31.468-6.401 59.988-23.622 80.307-48.489 14.558-17.817 24.428-38.979 28.855-61.357z" fill="#e1ebf0"/><g><path d="m290.994 176.508h30v30.002h-30z" fill="#3b3735"/></g><path d="m359.138 244.432c-18.943 0-37.408-3.713-54.88-11.036l-17.489-7.33c-9.855-4.13-20.442-6.174-31.022-6.142v137.309l.245.05 14.768-3.004c31.468-6.401 59.988-23.622 80.307-48.489 14.558-17.817 24.428-38.979 28.855-61.357h-20.784z" fill="#bed9dd"/></g></svg>