<svg id="Layer_1" enable-background="new 0 0 512.311 512.311" height="512" viewBox="0 0 512.311 512.311" width="512" xmlns="http://www.w3.org/2000/svg"><g><path d="m161.311 359.502c-57.802 0-104.828 47.025-104.828 104.828v47.98h109.827v-152.808z" fill="#ffece2"/><path d="m455.828 464.33c0-57.802-47.025-104.828-104.828-104.828h-5v152.808h109.827v-47.98z" fill="#ffece2"/><path d="m455.828 464.33c0-57.802-47.025-104.828-104.828-104.828h-5v152.808h109.827v-47.98z" fill="#ffddce"/><path d="m351 359.502h-189.689c-8.614 0-16.986 1.052-25.001 3.021v149.787h239.69v-149.787c-8.015-1.969-16.386-3.021-25-3.021z" fill="#00ccb3"/><path d="m376 512.311v-149.788c-8.015-1.969-16.387-3.021-25.001-3.021h-94.833v152.808h119.834z" fill="#00969b"/><path d="m197.194 313.613v66.429c0 32.511 26.45 58.961 58.961 58.961s58.961-26.45 58.961-58.961v-66.429z" fill="#ffece2"/><path d="m315.117 380.042v-66.429h-58.95v125.39c32.505-.006 58.95-26.454 58.95-58.961z" fill="#ffddce"/><path d="m219.486 261.063 17.488-7.33c12.19-5.11 26.174-5.108 38.362 0l17.489 7.33c21.164 8.87 43.53 13.368 66.477 13.368h11.242c7.966-17.833 12.195-37.278 12.195-57.003v-78.796c0-54.418-36.81-101.716-89.516-115.021l-1.807-.456h-70.522l-1.807.456c-52.705 13.305-89.515 60.603-89.515 115.021v78.796c0 19.725 4.228 39.17 12.194 57.003h11.242c22.947.001 45.313-4.497 66.478-13.368z" fill="#ffece2"/><path d="m293.223 23.612-1.807-.456h-35.25v226.745c6.54.002 13.079 1.279 19.17 3.832l17.489 7.33c21.164 8.87 43.53 13.368 66.477 13.368h11.242c7.966-17.833 12.195-37.278 12.195-57.003v-78.796c0-54.417-36.81-101.715-89.516-115.02z" fill="#ffddce"/><g><path d="m191.152 176.508h30v30.002h-30z" fill="#5d5655"/></g><g><path d="m291.159 176.508h30v30.002h-30z" fill="#5d5655"/></g><path d="m205.077 0 9.081 130.998h83.995l9.081-130.998z" fill="#ffeb99"/><path d="m359.302 244.432c-18.943 0-37.408-3.713-54.88-11.036l-17.488-7.33c-19.56-8.198-41.996-8.199-61.558 0l-17.487 7.33c-17.473 7.323-35.938 11.036-54.881 11.036h-20.782c4.427 22.378 14.297 43.54 28.855 61.357 20.318 24.867 48.839 42.088 80.308 48.488l14.767 3.003 14.768-3.003c31.469-6.4 59.989-23.621 80.308-48.488 14.558-17.817 24.428-38.979 28.855-61.357z" fill="#e1ebf0"/><g><path d="m291.159 176.508h30v30.002h-30z" fill="#3b3735"/></g><path d="m307.234 0h-51.067v130.998h41.986z" fill="#ffda44"/><path d="m359.302 244.432c-18.943 0-37.408-3.713-54.88-11.036l-17.488-7.33c-9.777-4.098-20.272-6.147-30.768-6.149v137.361l14.756-3c31.469-6.4 59.989-23.621 80.308-48.488 14.558-17.817 24.428-38.979 28.855-61.357h-20.783z" fill="#bed9dd"/></g></svg>