<svg id="Layer_1" enable-background="new 0 0 511.961 511.961" height="512" viewBox="0 0 511.961 511.961" width="512" xmlns="http://www.w3.org/2000/svg"><g><path d="m452.139 487.552c0-52.696-42.719-95.415-95.415-95.415h-20.26c-28.19 0-55.587 9.339-77.908 26.557-.717.553-1.451 1.077-2.179 1.611l107.851 91.656h87.911z" fill="#ff7c48"/><path d="m452.139 487.552c0-52.696-42.719-95.415-95.415-95.415h-20.26c-28.19 0-55.587 9.339-77.908 26.557-.717.553-1.451 1.077-2.179 1.611l107.851 91.656h87.911z" fill="#ff415b"/><path d="m281.13 0h-50.302c-78.021 0-141.888 62.064-144.12 140.053l-5.799 202.561c-1.609 56.203 43.514 102.636 99.739 102.636 28.19 0 55.587-9.339 77.908-26.557 22.321-17.218 49.718-26.557 77.908-26.557h20.26c31.525 0 59.475 15.292 76.848 38.86l-8.322-290.94c-2.231-77.99-66.098-140.056-144.12-140.056z" fill="#ff415b"/><path d="m425.25 140.057c-2.231-77.991-66.098-140.057-144.12-140.057h-25.15v420.597c.861-.63 1.729-1.25 2.576-1.903 22.321-17.218 49.718-26.557 77.908-26.557h20.26c31.525 0 59.475 15.292 76.848 38.86z" fill="#e50058"/><path d="m221.023 260.833 16.783-7.034c11.55-4.842 24.799-4.842 36.349 0l16.783 7.034c20.384 8.544 41.927 12.876 64.03 12.876h11.182c7.783-17.288 11.914-36.162 11.914-55.309v-63.55c0-9.968-1.798-19.522-5.076-28.363h-73.619c-35.044 0-68.504-16.695-89.579-44.68l-5.405-7.971c-39.769 5.536-70.487 39.746-70.487 81.014v63.55c0 19.147 4.131 38.021 11.914 55.309h11.183c22.102 0 43.645-4.332 64.028-12.876z" fill="#e8b36f"/><path d="m372.988 126.488h-73.619c-15.04 0-29.785-3.083-43.388-8.807v132.487c6.2 0 12.399 1.21 18.174 3.631l16.783 7.034c20.384 8.544 41.927 12.876 64.03 12.876h11.182c7.783-17.288 11.914-36.162 11.914-55.309v-63.55c-.001-9.967-1.798-19.521-5.076-28.362z" fill="#c48958"/><g><path d="m190.977 176.498h30v30.002h-30z" fill="#5d5655"/></g><g><path d="m290.984 176.498h30v30.002h-30z" fill="#5d5655"/></g><path d="m185.567 99.512c26.698 35.677 69.241 56.976 113.801 56.976h78.695v-1.637c0-45.113-36.703-81.816-81.816-81.816h-80.533c-14.823 0-28.725 3.982-40.728 10.903l10.176 15.006z" fill="#5d5655"/><path d="m354.968 243.709c-18.101 0-35.742-3.548-52.434-10.544l-16.783-7.034c-18.92-7.932-40.622-7.932-59.542 0l-16.783 7.034c-16.692 6.996-34.333 10.544-52.433 10.544h-20.677c4.197 21.839 13.764 42.503 27.955 59.871 19.587 23.972 47.081 40.572 77.417 46.743l14.292 2.906 14.292-2.906c30.336-6.171 57.83-22.771 77.417-46.743 14.19-17.368 23.758-38.032 27.955-59.871z" fill="#e1ebf0"/><path d="m258.556 418.693c-22.321 17.218-49.718 26.557-77.908 26.557-31.587 0-59.621-14.594-77.883-37.403-25.929 17.057-42.943 46.348-42.943 79.704v24.409h340.732l-123.626-105.061c-6.415 3.386-12.568 7.318-18.372 11.794z" fill="#ffb655"/><path d="m276.928 406.899c-6.415 3.386-12.568 7.317-18.372 11.794-.847.653-1.715 1.273-2.576 1.903v91.364h144.573z" fill="#ff7c48"/><g><path d="m290.984 176.498h30v30.002h-30z" fill="#3b3735"/></g><path d="m378.063 156.488v-1.637c0-45.113-36.703-81.816-81.816-81.816h-40.267v76.592c13.898 4.48 28.529 6.861 43.388 6.861z" fill="#3b3735"/><path d="m270.273 350.324c30.336-6.171 57.83-22.771 77.417-46.743 14.19-17.368 23.758-38.032 27.955-59.871h-20.676c-18.101 0-35.742-3.548-52.434-10.544l-16.783-7.034c-9.46-3.966-19.615-5.949-29.771-5.949v133.047z" fill="#bed9dd"/></g></svg>