<svg id="Layer_1" enable-background="new 0 0 511.982 511.982" height="512" viewBox="0 0 511.982 511.982" width="512" xmlns="http://www.w3.org/2000/svg"><g><path d="m161.147 359.174c-57.802 0-104.828 47.025-104.828 104.828v47.98h165.711v-152.808z" fill="#5d5655"/><path d="m350.836 359.174h-60.891v152.809h165.718v-47.98c.001-57.804-47.025-104.829-104.827-104.829z" fill="#5d5655"/><path d="m350.836 359.174h-60.891v152.809h165.718v-47.98c.001-57.804-47.025-104.829-104.827-104.829z" fill="#3b3735"/><path d="m294.781 359.174-38.79 30.356-38.789-30.356h-25.172v152.808h127.915v-152.808z" fill="#faf0f0"/><path d="m319.945 511.982v-152.808h-25.164l-38.79 30.356v122.452z" fill="#efe2dd"/><path d="m219.321 261.063 17.489-7.329c12.189-5.108 26.172-5.109 38.364 0l17.487 7.329c21.162 8.87 43.528 13.368 66.478 13.368h11.242c7.966-17.832 12.194-37.278 12.194-57.002v-106.324l-253.167-19.823v126.146c0 19.725 4.228 39.17 12.194 57.003h11.242c22.949.001 45.315-4.497 66.477-13.368z" fill="#ffddce"/><path d="m255.991 101.194v148.709c6.543 0 13.087 1.277 19.183 3.832l17.487 7.329c21.162 8.87 43.528 13.368 66.478 13.368h11.242c7.966-17.832 12.194-37.278 12.194-57.002v-106.325z" fill="#ffcbbc"/><g><path d="m190.988 176.508h30v30.002h-30z" fill="#5d5655"/></g><g><path d="m290.995 176.508h30v30.002h-30z" fill="#5d5655"/></g><path d="m305.622 27.999h-24.594c-14.924-17.145-36.898-27.999-61.358-27.999h-110.263v54.357c0 52.726 42.895 95.62 95.62 95.62h2.805l61.009-6.565c21.181-2.279 42.721-3.436 64.02-3.436h49.715v-35.024c-.002-42.431-34.523-76.953-76.954-76.953z" fill="#ffda44"/><path d="m197.03 313.285v58.197l58.961 46.141 58.962-46.141v-58.196z" fill="#ffddce"/><path d="m314.953 371.482v-58.196h-58.962v104.337z" fill="#ffcbbc"/><path d="m317.628 359.177c-14.736 0-29.243 5.002-40.847 14.083l-20.79 16.27-20.789-16.269c-11.605-9.082-26.112-14.084-40.858-14.084l-22.315.004v98.799h22.321c14.735 0 29.242-5.001 40.85-14.084l20.793-16.272 20.794 16.273c11.606 9.081 26.113 14.083 40.848 14.083h22.321v-98.799z" fill="#ff415b"/><path d="m359.138 244.432c-18.945 0-37.41-3.713-54.881-11.036l-17.487-7.329c-19.56-8.198-41.998-8.198-61.557 0l-17.489 7.329c-17.47 7.323-35.935 11.036-54.88 11.036h-20.783c4.427 22.378 14.297 43.54 28.855 61.357 20.318 24.867 48.839 42.088 80.307 48.489l14.768 3.003 14.768-3.003c31.468-6.4 59.989-23.621 80.307-48.488 14.558-17.818 24.428-38.98 28.855-61.358z" fill="#e1ebf0"/><g><path d="m290.995 176.508h30v30.002h-30z" fill="#3b3735"/></g><path d="m332.859 139.977h49.715v-35.024c0-42.432-34.521-76.953-76.953-76.953h-24.594c-6.964-8.001-15.465-14.63-25.036-19.427v136.223l12.849-1.383c21.181-2.28 42.721-3.436 64.019-3.436z" fill="#ffb655"/><path d="m270.759 354.278c31.468-6.4 59.989-23.621 80.307-48.488 14.558-17.818 24.428-38.98 28.855-61.358h-20.783c-18.945 0-37.41-3.713-54.881-11.036l-17.487-7.329c-9.78-4.099-20.279-6.149-30.779-6.149v137.364z" fill="#bed9dd"/><path d="m317.628 359.177c-14.736 0-29.243 5.002-40.847 14.083l-20.79 16.27v38.094l20.794 16.273c11.606 9.081 26.113 14.083 40.848 14.083h22.321v-98.799z" fill="#e50058"/></g></svg>