<svg id="Layer_1" enable-background="new 0 0 511.984 511.984" height="512" viewBox="0 0 511.984 511.984" width="512" xmlns="http://www.w3.org/2000/svg"><g><path d="m322.129 0c-32.307 0-60.566 20.682-70.319 51.465l-3.455 10.903 114.332 74.045 8.537-7.62c15.675-13.99 24.664-34.05 24.664-55.033.001-40.671-33.088-73.76-73.759-73.76z" fill="#c1674c"/><path d="m322.129 0c-32.307 0-60.566 20.682-70.319 51.465l-3.455 10.903 114.332 74.045 8.537-7.62c15.675-13.99 24.664-34.05 24.664-55.033.001-40.671-33.088-73.76-73.759-73.76z" fill="#99544e"/><path d="m161.148 359.176c-57.802 0-104.828 47.025-104.828 104.828v47.98h165.711v-152.808z" fill="#5d5655"/><path d="m350.837 359.176h-60.891v152.809h165.718v-47.98c.001-57.804-47.025-104.829-104.827-104.829z" fill="#5d5655"/><path d="m350.837 359.176h-60.891v152.809h165.718v-47.98c.001-57.804-47.025-104.829-104.827-104.829z" fill="#3b3735"/><path d="m294.782 359.176-38.79 30.356-38.789-30.356h-25.172v152.808h127.915v-152.808z" fill="#faf0f0"/><path d="m319.946 511.984v-152.808h-25.164l-38.79 30.356v122.452z" fill="#efe2dd"/><path d="m197.031 313.287v58.197l58.961 46.141 58.962-46.141v-58.196z" fill="#ffddce"/><path d="m314.954 371.484v-58.196h-58.962v104.337z" fill="#ffcbbc"/><path d="m317.629 359.179c-14.736 0-29.243 5.002-40.847 14.083l-20.79 16.27-20.789-16.269c-11.605-9.082-26.112-14.084-40.858-14.084l-22.315.004v98.799h22.321c14.735 0 29.242-5.001 40.85-14.084l20.793-16.272 20.794 16.273c11.606 9.081 26.113 14.083 40.848 14.083h22.321v-98.799z" fill="#ff415b"/><path d="m317.629 359.179c-14.736 0-29.243 5.002-40.847 14.083l-20.79 16.27v38.094l20.794 16.273c11.606 9.081 26.113 14.083 40.848 14.083h22.321v-98.799z" fill="#e50058"/><path d="m382.576 151.951c0-8.952-1.073-17.657-3.084-26h-114.776c-33.993 0-66.062-16.528-85.785-44.214l-10.796-13.942c-23.693 20.365-38.726 50.536-38.726 84.156v65.812c0 19.602 4.177 38.929 12.047 56.671h11.389c22.949 0 45.315-4.498 66.477-13.368l17.489-7.329c12.189-5.109 26.172-5.109 38.363 0l17.487 7.329c21.162 8.87 43.528 13.368 66.478 13.368h11.389c7.871-17.742 12.048-37.069 12.048-56.672z" fill="#ffddce"/><path d="m379.492 125.951h-114.776c-2.925 0-5.834-.131-8.724-.373v124.326c6.543 0 13.086 1.277 19.182 3.832l17.487 7.329c21.162 8.87 43.528 13.368 66.478 13.368h11.389c7.871-17.742 12.048-37.069 12.048-56.672v-65.811c0-8.951-1.073-17.656-3.084-25.999z" fill="#ffcbbc"/><g><path d="m190.989 176.51h30v30.002h-30z" fill="#5d5655"/></g><g><path d="m290.996 176.51h30v30.002h-30z" fill="#5d5655"/></g><path d="m264.716 155.951h117.859v-4c0-61.182-49.774-110.956-110.956-110.956h-31.254c-38.543 0-72.554 19.759-92.45 49.675l6.763 8.727c25.356 35.417 66.467 56.554 110.038 56.554z" fill="#99544e"/><path d="m382.576 155.951v-4c0-61.182-49.774-110.956-110.956-110.956h-15.627v114.666c2.895.188 5.803.29 8.724.29z" fill="#66333e"/><path d="m304.258 233.397-17.487-7.329c-19.56-8.198-41.996-8.198-61.557 0l-17.488 7.329c-17.471 7.323-35.936 11.036-54.881 11.036h-20.849c4.395 22.501 14.291 43.784 28.921 61.689 20.318 24.867 48.839 42.087 80.307 48.488l14.768 3.004 14.768-3.004c31.468-6.401 59.988-23.622 80.307-48.489 14.63-17.905 24.526-39.188 28.921-61.688h-20.849c-18.945.001-37.41-3.712-54.881-11.036z" fill="#e1ebf0"/><g><path d="m290.996 176.51h30v30.002h-30z" fill="#3b3735"/></g><path d="m270.76 354.611c31.468-6.401 59.988-23.622 80.307-48.489 14.63-17.905 24.526-39.188 28.921-61.688h-20.849c-18.945 0-37.41-3.713-54.881-11.036l-17.487-7.329c-9.78-4.099-20.279-6.149-30.779-6.149v137.696z" fill="#bed9dd"/></g></svg>