<svg id="Layer_1" enable-background="new 0 0 511.982 511.982" height="512" viewBox="0 0 511.982 511.982" width="512" xmlns="http://www.w3.org/2000/svg"><g><path d="m219.322 261.063 17.487-7.33c12.188-5.108 26.173-5.11 38.363 0l17.489 7.33c21.164 8.87 43.53 13.368 66.477 13.368h11.242c7.966-17.833 12.195-37.278 12.195-57.003v-135.115h-253.167v135.115c0 19.725 4.229 39.17 12.195 57.003h11.242c22.946.001 45.312-4.497 66.477-13.368z" fill="#ffddce"/><path d="m292.662 261.063c21.164 8.87 43.53 13.368 66.477 13.368h11.242c7.966-17.833 12.195-37.278 12.195-57.003v-135.115h-126.584v167.588c6.543 0 13.086 1.277 19.181 3.832z" fill="#ffcbbc"/><g><path d="m190.988 176.508h30v30.002h-30z" fill="#5d5655"/></g><g><path d="m290.995 176.508h30v30.002h-30z" fill="#5d5655"/></g><path d="m350.835 359.174h-189.688c-57.803 0-104.828 47.025-104.828 104.828v47.98h399.345v-47.98c0-57.803-47.026-104.828-104.829-104.828z" fill="#ff415b"/><path d="m455.664 464.002c0-57.803-47.025-104.828-104.828-104.828h-94.844v152.809h199.672z" fill="#e50058"/><path d="m129.408 69.867v27.446c0 32.289 26.27 58.558 58.559 58.558h136.05c32.289 0 58.559-26.269 58.559-58.558v-27.446z" fill="#5d5655"/><path d="m382.575 97.313v-27.446h-126.583v86.004h68.024c32.289 0 58.559-26.268 58.559-58.558z" fill="#3b3735"/><path d="m129.408 0h253.167v97.313h-253.167z" fill="#ff415b"/><path d="m255.992 0h126.583v97.313h-126.583z" fill="#e50058"/><g><path d="m321.007 435.136h30v30.002h-30z" fill="#ffda44"/></g><g><path d="m160.998 435.136h30v30.002h-30z" fill="#ffda44"/></g><g><path d="m240.992 408.678h30v103.305h-30z" fill="#ffda44"/></g><path d="m255.992 408.678h15v103.305h-15z" fill="#ffb655"/><path d="m197.03 313.289v51.428c0 32.511 26.45 58.961 58.962 58.961 32.511 0 58.961-26.45 58.961-58.961v-51.428z" fill="#ffddce"/><path d="m314.953 364.717v-51.428h-58.961v110.389c32.51 0 58.961-26.45 58.961-58.961z" fill="#ffcbbc"/><path d="m359.138 244.432c-18.943 0-37.408-3.713-54.88-11.036l-17.489-7.33c-19.559-8.197-41.996-8.197-61.557 0l-17.487 7.33c-17.473 7.323-35.938 11.036-54.881 11.036h-20.783c4.427 22.378 14.297 43.54 28.855 61.357 20.318 24.867 48.839 42.088 80.308 48.489l14.768 3.004 14.768-3.004c31.468-6.401 59.988-23.622 80.307-48.489 14.558-17.817 24.428-38.979 28.855-61.357z" fill="#e1ebf0"/><g><path d="m290.995 176.508h30v30.002h-30z" fill="#3b3735"/></g><g><path d="m321.007 435.136h30v30.002h-30z" fill="#ffb655"/></g><path d="m270.759 354.278c31.468-6.401 59.988-23.622 80.307-48.489 14.558-17.817 24.428-38.979 28.855-61.357h-20.783c-18.943 0-37.408-3.713-54.88-11.036l-17.489-7.33c-9.779-4.099-20.278-6.148-30.777-6.148v137.365z" fill="#bed9dd"/></g></svg>