<svg id="Layer_1" enable-background="new 0 0 512.315 512.315" height="512" viewBox="0 0 512.315 512.315" width="512" xmlns="http://www.w3.org/2000/svg"><g><path d="m391.327 423.69c-16.414-38.99-54.352-64.184-96.651-64.184h-189.689c-57.803 0-104.828 47.025-104.828 104.828v47.98h310.42l84.813-78.967z" fill="#00ee8a"/><path d="m395.393 433.349-4.065-9.658c-16.414-38.99-54.352-64.184-96.651-64.184h-94.845v152.809h110.748z" fill="#00ccb3"/><path d="m140.87 313.618v66.588l58.961 66.391 58.962-66.391v-66.588z" fill="#ffddce"/><path d="m258.793 380.206v-66.588h-58.962v132.979z" fill="#ffcbbc"/><path d="m412.583 313.667h84.574v55.003h-84.574z" fill="#7ed8f6"/><path d="m454.87 313.667h42.287v55.003h-42.287z" fill="#2fc0f0"/><path d="m512.157 298.667h-114.574v85.004h42.287v45.84h30v-45.84h42.287zm-30 55.004h-54.574v-25.004h54.574z" fill="#5d5655"/><path d="m454.87 298.667v30h27.287v25.004h-27.287v75.84h15v-45.84h42.287v-85.004z" fill="#3b3735"/><g><path d="m75.521 437.312h54.306v30h-54.306z" fill="#faf0f0"/></g><path d="m289.677 414.511h222.48v97.805h-222.48z" fill="#6d6663"/><path d="m188.714 49.834c-15.01-30.738-45.568-49.834-79.751-49.834-48.919 0-88.717 39.798-88.717 88.717v122.194c0 11.076-9.012 20.087-20.088 20.087v30h27.948c23.27 0 45.834-4.641 67.067-13.792z" fill="#ffeb99"/><path d="m73.248 151.951c0-8.952 1.073-17.657 3.084-26h114.775c33.993 0 66.062-16.528 85.785-44.214l10.796-13.942c23.693 20.365 38.726 50.536 38.726 84.156v65.812c0 19.602-4.177 38.929-12.047 56.671h-11.389c-22.949 0-45.315-4.498-66.477-13.368l-17.489-7.329c-12.189-5.109-26.172-5.109-38.363 0l-17.487 7.329c-21.162 8.87-43.528 13.368-66.478 13.368h-11.388c-7.871-17.742-12.048-37.069-12.048-56.672z" fill="#ffddce"/><path d="m287.689 67.796-10.796 13.942c-18.026 25.303-46.366 41.278-77.062 43.841v124.326c6.543 0 13.087 1.277 19.182 3.832l17.489 7.329c21.162 8.87 43.528 13.368 66.477 13.368h11.389c7.87-17.742 12.047-37.069 12.047-56.671v-65.812c0-33.619-15.033-63.791-38.726-84.155z" fill="#ffcbbc"/><g><path d="m234.835 176.51h30v30.002h-30z" fill="#5d5655"/></g><g><path d="m134.828 176.51h30v30.002h-30z" fill="#5d5655"/></g><path d="m191.108 155.951h-117.86v-4c0-61.182 49.774-110.956 110.956-110.956h31.254c38.543 0 72.554 19.759 92.45 49.675l-6.763 8.727c-25.355 35.417-66.466 56.554-110.037 56.554z" fill="#ffda44"/><path d="m151.566 233.397 17.487-7.329c19.56-8.198 41.996-8.198 61.557 0l17.488 7.329c17.471 7.323 35.936 11.036 54.881 11.036h20.849c-4.395 22.501-14.291 43.784-28.921 61.689-20.318 24.867-48.839 42.087-80.307 48.488l-14.768 3.004-14.768-3.004c-31.468-6.401-59.988-23.622-80.307-48.489-14.63-17.905-24.526-39.188-28.921-61.688h20.849c18.945.001 37.41-3.712 54.881-11.036z" fill="#e1ebf0"/><path d="m299.119 359.608c-1.476-.062-2.956-.101-4.443-.101h-35.651l-59.194 66.435-58.99-66.435h-35.853c-1.403 0-2.797.036-4.187.091l84.031 94.63v58.088h30v-58.042z" fill="#00ccb3"/><g><path d="m234.835 176.51h30v30.002h-30z" fill="#3b3735"/></g><path d="m301.146 99.396 6.763-8.727c-19.896-29.916-53.907-49.675-92.45-49.675h-15.628v114.666c40.287-2.614 77.659-23.22 101.315-56.264z" fill="#ffb655"/><path d="m214.599 354.611c31.468-6.401 59.989-23.621 80.307-48.488 14.63-17.906 24.526-39.188 28.921-61.689h-20.849c-18.945 0-37.41-3.713-54.881-11.036l-17.488-7.329c-9.78-4.099-20.28-6.149-30.779-6.149v137.695h.001z" fill="#bed9dd"/><path d="m294.676 359.507h-35.651l-59.194 66.435v86.373h15v-58.042l84.288-94.665c-1.476-.062-2.956-.101-4.443-.101z" fill="#00969b"/><path d="m454.87 414.511h57.287v97.805h-57.287z" fill="#5d5655"/></g></svg>