<svg id="Layer_1" enable-background="new 0 0 511.982 511.982" height="512" viewBox="0 0 511.982 511.982" width="512" xmlns="http://www.w3.org/2000/svg"><g><path d="m439.164 292.495v-186.471c0-37.728-30.694-68.422-68.422-68.422-6.268 0-12.226.809-18.214 2.472l-10.524 2.923-9.301 226.249.281 1.596c7.869 44.708 46.625 77.157 92.154 77.157h39.531v-30c-14.064 0-25.505-11.441-25.505-25.504z" fill="#5d5655"/><path d="m439.164 292.495v-186.471c0-37.728-30.694-68.422-68.422-68.422-6.268 0-12.226.809-18.214 2.472l-10.524 2.923-9.301 226.249.281 1.596c7.869 44.708 46.625 77.157 92.154 77.157h39.531v-30c-14.064 0-25.505-11.441-25.505-25.504z" fill="#3b3735"/><path d="m47.314 464.001v47.98h94.826v-152.328c-53.128 5.053-94.826 49.92-94.826 104.348z" fill="#eecda1"/><path d="m446.659 464.001c0-54.429-41.698-99.296-94.826-104.348v152.329h94.826z" fill="#eecda1"/><path d="m446.659 464.001c0-54.429-41.698-99.296-94.826-104.348v152.329h94.826z" fill="#e8b36f"/><g><path d="m341.831 359.173h-189.689c-8.614 0-16.986 1.052-25.001 3.021v149.788h239.69v-149.788c-8.015-1.969-16.386-3.021-25-3.021" fill="#2fc0f0"/></g><path d="m366.832 362.194c-8.015-1.969-16.387-3.021-25.001-3.021h-94.844v152.809h119.845z" fill="#0b799d"/><path d="m188.025 313.284v74.23c0 21.312 11.28 41.479 29.439 52.632l29.522 18.133 29.521-18.133c18.159-11.153 29.439-31.32 29.439-52.632v-74.23z" fill="#eecda1"/><path d="m276.509 440.146c18.159-11.153 29.439-31.32 29.439-52.632v-74.23h-58.961v144.995z" fill="#e8b36f"/><path d="m210.318 261.063 17.488-7.33c12.189-5.108 26.172-5.109 38.363 0l17.488 7.33c21.165 8.87 43.531 13.368 66.477 13.368h11.242c7.966-17.833 12.194-37.278 12.194-57.003v-148.149h-30c0 21.658-17.621 39.279-39.279 39.279h-183.886v108.87c0 19.725 4.228 39.17 12.194 57.003h11.242c22.946.001 45.312-4.497 66.477-13.368z" fill="#eecda1"/><path d="m343.571 69.279c0 21.658-17.621 39.279-39.279 39.279h-57.304v141.343c6.543 0 13.087 1.277 19.182 3.832l17.488 7.33c21.165 8.87 43.531 13.368 66.477 13.368h11.242c7.966-17.833 12.194-37.278 12.194-57.003v-148.149z" fill="#e8b36f"/><g><path d="m181.985 176.508h30v30.002h-30z" fill="#5d5655"/></g><g><path d="m281.99 176.508h30v30.002h-30z" fill="#5d5655"/></g><path d="m304.291 138.559c38.201 0 69.279-31.078 69.279-69.279s-31.078-69.28-69.279-69.28h-139.297c-52.159 0-94.593 42.435-94.593 94.593v18.965c0 30.679 21.371 56.445 50.003 63.237v-38.236z" fill="#6d6663"/><path d="m350.134 244.432c-18.943 0-37.408-3.713-54.881-11.036l-17.487-7.33c-19.561-8.197-41.997-8.197-61.557 0l-17.487 7.33c-17.473 7.323-35.938 11.036-54.881 11.036h-20.783c4.427 22.378 14.297 43.54 28.855 61.357 20.318 24.867 48.839 42.088 80.307 48.488l14.768 3.004 14.768-3.004c31.468-6.4 59.989-23.621 80.307-48.488 14.558-17.817 24.428-38.979 28.855-61.357z" fill="#e1ebf0"/><g><path d="m281.99 176.508h30v30.002h-30z" fill="#3b3735"/></g><path d="m373.571 69.279c0-38.201-31.079-69.279-69.28-69.279h-57.304v138.559h57.304c38.201 0 69.28-31.079 69.28-69.28z" fill="#5d5655"/><path d="m295.254 233.396-17.487-7.33c-9.78-4.099-20.28-6.148-30.779-6.148v137.364l14.768-3.004c31.468-6.4 59.989-23.621 80.307-48.488 14.558-17.817 24.428-38.979 28.855-61.357h-20.783c-18.944-.001-37.409-3.714-54.881-11.037z" fill="#bed9dd"/></g></svg>