<svg id="Layer_1" enable-background="new 0 0 511.982 511.982" height="512" viewBox="0 0 511.982 511.982" width="512" xmlns="http://www.w3.org/2000/svg"><g><path d="m109.054 132.583-60.179 276.007 12.292 4.495c8.395 3.069 17.005 6.009 25.591 8.735l9.757 3.1 6.441-7.957c14.297-17.66 35.507-27.789 58.19-27.789h189.689c22.683 0 43.893 10.129 58.19 27.789l6.441 7.957 9.757-3.1c8.585-2.727 17.195-5.665 25.591-8.735l12.292-4.495-60.18-276.007z" fill="#beebfa"/><path d="m402.928 132.583h-146.937v256.591h94.845c22.683 0 43.893 10.129 58.19 27.789l6.441 7.957 9.757-3.1c8.585-2.727 17.195-5.665 25.591-8.735l12.292-4.495z" fill="#7ed8f6"/><path d="m402.575 132.583c0-73.106-59.476-132.583-132.583-132.583h-28.002c-73.107 0-132.583 59.477-132.583 132.583z" fill="#00ee8a"/><path d="m269.992 0h-14.001v132.583h146.584c0-73.106-59.476-132.583-132.583-132.583z" fill="#00ccb3"/><path d="m219.322 261.063 17.487-7.33c12.19-5.108 26.173-5.108 38.364 0l17.488 7.33c21.165 8.87 43.531 13.368 66.477 13.368h11.242c7.966-17.833 12.194-37.278 12.194-57.003v-84.846h-253.166v84.846c0 19.725 4.228 39.17 12.194 57.003h11.242c22.946.001 45.312-4.497 66.478-13.368z" fill="#ffcbbc"/><path d="m255.991 132.583v117.319c6.543 0 13.087 1.277 19.182 3.831l17.488 7.33c21.165 8.87 43.531 13.368 66.477 13.368h11.242c7.966-17.833 12.194-37.278 12.194-57.003v-84.846h-126.583z" fill="#ffbcae"/><g><path d="m190.988 176.508h30v30.002h-30z" fill="#5d5655"/></g><g><path d="m290.994 176.508h30v30.002h-30z" fill="#5d5655"/></g><g><path d="m67.647 117.583h376.689v30h-376.689z" fill="#0b799d"/></g><path d="m425.253 390.248c-56.306 18.867-113.167 28.427-169.263 28.427-56.095 0-112.956-9.56-169.262-28.427-18.787 18.955-30.41 45.021-30.41 73.754v47.98h399.345v-47.98c0-28.733-11.623-54.799-30.41-73.754z" fill="#00ee8a"/><path d="m455.663 464.002c0-28.733-11.623-54.799-30.41-73.754-56.306 18.867-113.167 28.427-169.263 28.427v93.308h199.672v-47.981z" fill="#00ccb3"/><path d="m443.798 415.599c-17.515-33.504-52.609-56.425-92.962-56.425h-189.689c-40.352 0-75.447 22.922-92.962 56.425 62.311 21.949 125.457 33.076 187.806 33.076 62.35 0 125.495-11.127 187.807-33.076z" fill="#00ccb3"/><path d="m443.798 415.599c-17.515-33.504-52.609-56.425-92.962-56.425h-94.845v89.501c62.35 0 125.495-11.127 187.807-33.076z" fill="#00969b"/><path d="m197.03 313.285v76.429c0 32.511 26.45 58.961 58.961 58.961s58.961-26.45 58.961-58.961v-76.43z" fill="#ffcbbc"/><path d="m314.952 389.714v-76.43h-58.961v135.39c32.511.001 58.961-26.449 58.961-58.96z" fill="#ffbcae"/><path d="m359.138 244.432c-18.943 0-37.408-3.713-54.88-11.036l-17.488-7.33c-19.56-8.196-41.997-8.198-61.557 0l-17.487 7.33c-17.473 7.323-35.938 11.036-54.881 11.036h-20.783c4.427 22.378 14.297 43.54 28.855 61.357 20.318 24.867 48.839 42.088 80.307 48.489l14.768 3.003 14.768-3.003c31.468-6.401 59.989-23.622 80.307-48.489 14.558-17.817 24.428-38.979 28.855-61.357z" fill="#e1ebf0"/><g><path d="m290.994 176.508h30v30.002h-30z" fill="#3b3735"/></g><path d="m255.991 117.583h188.345v30h-188.345z" fill="#07485e"/><path d="m270.759 354.278c31.468-6.401 59.989-23.622 80.307-48.489 14.558-17.817 24.428-38.979 28.855-61.357h-20.783c-18.943 0-37.408-3.713-54.88-11.036l-17.488-7.33c-9.78-4.098-20.279-6.148-30.778-6.148v137.364z" fill="#bed9dd"/></g></svg>