<svg id="Layer_1" enable-background="new 0 0 511.982 511.982" height="512" viewBox="0 0 511.982 511.982" width="512" xmlns="http://www.w3.org/2000/svg"><g><path d="m421.143 251.028c-33.615 0-60.964 27.348-60.964 60.963s27.349 60.964 60.964 60.964 60.963-27.349 60.963-60.964-27.348-60.963-60.963-60.963z" fill="#6d6663"/><path d="m482.106 311.991c0-33.615-27.348-60.963-60.963-60.963v121.927c33.615 0 60.963-27.349 60.963-60.964z" fill="#5d5655"/><path d="m307 359.175h-189.689c-6.38 0-12.628.575-18.697 1.672l36.922 151.136h153.242l36.917-151.132c-6.124-1.103-12.373-1.676-18.695-1.676z" fill="#faf0f0"/><path d="m288.778 511.982 36.917-151.132c-6.125-1.102-12.374-1.676-18.695-1.676h-94.845v152.808z" fill="#efe2dd"/><path d="m117.311 359.175c-57.802 0-104.828 47.025-104.828 104.827v47.98h153.935l-37.331-152.808h-11.776z" fill="#5d5655"/><path d="m406.148 404.506-39.916-26.998c-17.486-11.994-37.966-18.333-59.231-18.333h-11.777l-37.326 152.808h148.251v-107.477z" fill="#5d5655"/><path d="m406.148 404.506-39.916-26.998c-17.486-11.994-37.966-18.333-59.231-18.333h-11.777l-37.326 152.808h148.251v-107.477z" fill="#3b3735"/><path d="m153.194 313.285v45.893l58.962 82.355 58.961-82.355v-45.892z" fill="#ffddce"/><path d="m271.117 359.178v-45.892h-58.961v128.247z" fill="#ffcbbc"/><path d="m175.485 261.063 17.488-7.329c12.191-5.109 26.174-5.109 38.364 0l17.487 7.329c21.162 8.87 43.528 13.368 66.478 13.368h11.243c7.965-17.832 12.193-37.277 12.193-57.002v-106.324l-253.165-19.823v126.148c0 19.724 4.228 39.17 12.194 57.002h11.242c22.948 0 45.315-4.498 66.476-13.369z" fill="#ffddce"/><path d="m212.156 101.194v148.708c6.544 0 13.087 1.277 19.182 3.832l17.487 7.329c21.162 8.87 43.528 13.368 66.478 13.368h11.243c7.965-17.832 12.193-37.277 12.193-57.002v-106.324z" fill="#ffcbbc"/><g><path d="m147.152 176.508h30v30.002h-30z" fill="#5d5655"/></g><g><path d="m247.158 176.508h30v30.002h-30z" fill="#5d5655"/></g><path d="m261.786 28h-24.594c-14.923-17.145-36.897-28-61.358-28h-110.263v54.358c0 52.725 42.895 95.619 95.62 95.619h2.805l61.008-6.565c21.182-2.279 42.721-3.436 64.02-3.436h49.715v-35.024c0-42.431-34.521-76.952-76.953-76.952z" fill="#99544e"/><path d="m376.148 397.47h89.989v114.513h-89.989z" fill="#0b799d"/><path d="m421.142 397.47h44.995v114.513h-44.995z" fill="#07485e"/><path d="m342.786 342.955h156.713v84.515h-156.713z" fill="#7ed8f6"/><path d="m315.302 244.432c-18.945 0-37.41-3.713-54.881-11.036l-17.487-7.329c-19.56-8.197-41.997-8.197-61.557 0l-17.489 7.329c-17.47 7.323-35.934 11.036-54.88 11.036h-20.783c4.427 22.379 14.297 43.541 28.855 61.358 20.318 24.867 48.839 42.088 80.307 48.488l14.768 3.003 14.768-3.003c31.469-6.4 59.989-23.621 80.308-48.488 14.558-17.818 24.428-38.979 28.855-61.358z" fill="#e1ebf0"/><g><path d="m247.158 176.508h30v30.002h-30z" fill="#3b3735"/></g><path d="m289.024 139.977h49.715v-35.024c0-42.432-34.521-76.952-76.952-76.952h-24.594c-6.964-8.001-15.465-14.631-25.037-19.428v136.223l12.848-1.383c21.181-2.28 42.721-3.436 64.02-3.436z" fill="#66333e"/><path d="m226.923 354.278c31.469-6.4 59.989-23.621 80.308-48.488 14.558-17.818 24.428-38.979 28.855-61.358h-20.784c-18.945 0-37.41-3.713-54.881-11.036l-17.487-7.329c-9.78-4.099-20.279-6.148-30.779-6.148v137.363z" fill="#bed9dd"/><path d="m421.142 342.955h78.357v84.515h-78.357z" fill="#2fc0f0"/></g></svg>