<svg id="Layer_1" enable-background="new 0 0 511.974 511.974" height="512" viewBox="0 0 511.974 511.974" width="512" xmlns="http://www.w3.org/2000/svg"><g><path d="m63.315 463.993v47.98h138.967l-114.827-114.826c-15.069 18.157-24.14 41.461-24.14 66.846z" fill="#ff7c48"/><path d="m129.403 118.334h253.167v274.001h-253.167z" fill="#5d5655"/><path d="m255.987 118.334h126.583v274.001h-126.583z" fill="#3b3735"/><path d="m71.434 423.551 88.422 88.422h122.431l-147.388-147.387c-28.662 9.612-51.844 31.279-63.465 58.965z" fill="#ffeb99"/><path d="m209.483 359.165h-41.341c-22.856 0-44.02 7.361-61.264 19.826l132.983 132.983h122.431z" fill="#ffda44"/><path d="m362.292 511.974-106.305-106.305v106.305z" fill="#ffb655"/><path d="m448.659 463.993c0-57.803-47.025-104.828-104.828-104.828h-175.689c-.358 0-.714.01-1.071.014l152.795 152.795h128.793z" fill="#ff7c48"/><path d="m343.831 359.165h-87.844v88.93l63.879 63.879h128.793v-47.98c0-57.804-47.026-104.829-104.828-104.829z" fill="#ff415b"/><path d="m277.955 0h-43.937c-57.685 0-104.615 46.93-104.615 104.615v13.719h67.583c24.066 0 45.486-11.545 59.012-29.39 13.525 17.845 34.945 29.39 59.012 29.39h67.561v-13.719c-.001-57.685-46.932-104.615-104.616-104.615z" fill="#5d5655"/><path d="m315.009 118.334h67.561v-13.719c0-57.685-46.931-104.615-104.615-104.615h-21.968v88.958c.004-.004.007-.009.011-.014 13.525 17.845 34.945 29.39 59.011 29.39z" fill="#3b3735"/><path d="m219.317 261.055 17.487-7.33c12.188-5.108 26.173-5.11 38.363 0l17.489 7.33c21.164 8.87 43.53 13.368 66.477 13.368h11.242c7.966-17.833 12.195-37.278 12.195-57.003v-99.084h-67.561c-24.269 0-44.012-19.743-44.012-44.012h-30c0 24.269-19.743 44.012-44.012 44.012h-67.583v99.084c0 19.725 4.229 39.17 12.195 57.003h11.242c22.947 0 45.313-4.498 66.478-13.368z" fill="#c48958"/><path d="m315.009 118.336c-24.269 0-44.012-19.743-44.012-44.012h-15.011v175.568c6.543 0 13.086 1.277 19.181 3.832l17.489 7.33c21.164 8.87 43.53 13.368 66.477 13.368h11.242c7.966-17.833 12.195-37.278 12.195-57.003v-99.084h-67.561z" fill="#9e6f46"/><g><path d="m190.983 176.499h30v30.002h-30z" fill="#5d5655"/></g><g><path d="m290.99 176.499h30v30.002h-30z" fill="#5d5655"/></g><g><path d="m240.987 138.497h30v30.001h-30z" fill="#ff415b" transform="matrix(.707 -.707 .707 .707 -33.563 225.968)"/></g><path d="m197.025 313.28v51.428c0 32.511 26.45 58.961 58.962 58.961 32.511 0 58.961-26.45 58.961-58.961v-51.428z" fill="#c48958"/><path d="m314.948 364.708v-51.428h-58.961v110.389c32.511 0 58.961-26.45 58.961-58.961z" fill="#9e6f46"/><g><path d="m382.571 133.335h-67.562c-24.066 0-45.486-11.545-59.012-29.39-13.525 17.845-34.945 29.39-59.012 29.39h-67.583v-30h67.583c24.269 0 44.012-19.743 44.012-44.012h30c0 24.269 19.743 44.012 44.012 44.012h67.562z" fill="#ff7c48"/></g><path d="m359.133 244.423c-18.943 0-37.408-3.713-54.88-11.036l-17.489-7.33c-19.559-8.197-41.996-8.197-61.557 0l-17.487 7.33c-17.473 7.323-35.938 11.036-54.881 11.036h-20.783c4.427 22.378 14.297 43.54 28.855 61.357 20.318 24.867 48.839 42.088 80.308 48.489l14.768 3.004 14.768-3.004c31.468-6.401 59.988-23.622 80.307-48.489 14.558-17.817 24.428-38.979 28.855-61.357z" fill="#e1ebf0"/><g><path d="m290.99 176.499h30v30.002h-30z" fill="#3b3735"/></g><path d="m277.2 153.498-21.213-21.213v42.426z" fill="#e50058"/><path d="m315.009 133.335h67.562v-30h-67.562c-24.269 0-44.012-19.743-44.012-44.012h-15.011v44.636c.004-.004.007-.009.011-.014 13.526 17.845 34.946 29.39 59.012 29.39z" fill="#ff415b"/><path d="m270.754 354.27c31.468-6.401 59.988-23.622 80.307-48.489 14.558-17.817 24.428-38.979 28.855-61.357h-20.783c-18.943 0-37.408-3.713-54.88-11.036l-17.489-7.33c-9.779-4.099-20.278-6.148-30.777-6.148v137.365z" fill="#bed9dd"/></g></svg>