<svg id="Layer_1" enable-background="new 0 0 511.982 511.982" height="512" viewBox="0 0 511.982 511.982" width="512" xmlns="http://www.w3.org/2000/svg"><g><path d="m350.835 359.174h-189.688c-57.802 0-104.828 47.025-104.828 104.828v47.98h399.345v-47.98c-.001-57.803-47.026-104.828-104.829-104.828z" fill="#7ed8f6"/><path d="m455.663 464.001c0-57.802-47.025-104.828-104.828-104.828h-94.844v152.808h199.672z" fill="#2fc0f0"/><path d="m197.03 313.284v66.429c0 32.511 26.45 58.961 58.961 58.961s58.961-26.45 58.961-58.961v-66.428z" fill="#ffece2"/><path d="m314.952 379.713v-66.428h-58.961v125.39c32.511-.001 58.961-26.451 58.961-58.962z" fill="#ffddce"/><path d="m219.322 261.063 17.487-7.33c12.19-5.108 26.174-5.11 38.363 0l17.489 7.33c21.164 8.87 43.53 13.368 66.477 13.368h11.242c7.966-17.833 12.195-37.278 12.195-57.003v-90.846c0-47.394-26.187-88.78-64.846-110.471l-13.13 18.484c-11.162 15.715-29.333 25.095-48.608 25.095s-37.446-9.381-48.608-25.095l-13.129-18.484c-38.659 21.691-64.846 63.077-64.846 110.471v90.846c0 19.725 4.228 39.17 12.194 57.003h11.242c22.946.001 45.312-4.497 66.478-13.368z" fill="#ffece2"/><path d="m317.729 16.112-13.13 18.484c-11.162 15.714-29.333 25.094-48.608 25.094v190.211c6.543 0 13.087 1.277 19.181 3.832l17.489 7.33c21.164 8.87 43.53 13.368 66.477 13.368h11.242c7.966-17.833 12.195-37.278 12.195-57.003v-90.846c-.001-47.393-26.187-88.779-64.846-110.47z" fill="#ffddce"/><path d="m255.991 67.649c25.07 0 48.705-12.202 63.224-32.641l8.831-12.433c-20.464-14.223-45.3-22.575-72.055-22.575s-51.591 8.352-72.055 22.576l8.831 12.432c14.518 20.439 38.153 32.641 63.224 32.641z" fill="#c1674c"/><g><path d="m190.988 176.508h30v30.002h-30z" fill="#5d5655"/></g><g><path d="m290.994 176.508h30v30.002h-30z" fill="#5d5655"/></g><path d="m359.138 244.432c-18.943 0-37.408-3.713-54.88-11.036l-17.489-7.33c-19.56-8.197-41.996-8.197-61.556 0l-17.487 7.33c-17.473 7.323-35.938 11.036-54.881 11.036h-20.783c4.427 22.378 14.297 43.54 28.855 61.357 20.318 24.867 48.839 42.088 80.307 48.489l14.768 3.004 14.768-3.004c31.468-6.401 59.988-23.622 80.307-48.489 14.558-17.817 24.428-38.979 28.855-61.357z" fill="#e1ebf0"/><g><path d="m290.994 176.508h30v30.002h-30z" fill="#3b3735"/></g><path d="m359.138 244.432c-18.943 0-37.408-3.713-54.88-11.036l-17.489-7.33c-9.78-4.099-20.279-6.148-30.778-6.148v137.365l14.768-3.004c31.468-6.401 59.988-23.622 80.307-48.489 14.558-17.817 24.428-38.979 28.855-61.357h-20.783z" fill="#bed9dd"/><path d="m319.215 35.008 8.831-12.433c-20.464-14.223-45.3-22.575-72.055-22.575v67.649c25.07 0 48.705-12.202 63.224-32.641z" fill="#99544e"/></g></svg>