<svg id="Layer_1" enable-background="new 0 0 511.987 511.987" height="512" viewBox="0 0 511.987 511.987" width="512" xmlns="http://www.w3.org/2000/svg"><g><g><path d="m132.681 304.168c-28.028 0-50.83-22.802-50.83-50.829s22.802-50.83 50.83-50.83c5.691 0 11.301.946 16.674 2.813l-9.845 28.338c-2.2-.764-4.498-1.151-6.83-1.151-11.486 0-20.83 9.345-20.83 20.83s9.344 20.829 20.83 20.829c5.972 0 11.67-2.579 15.631-7.075l22.51 19.832c-9.654 10.958-23.556 17.243-38.14 17.243z" fill="#ffda44"/></g><g><path d="m379.307 304.168c-14.585 0-28.487-6.285-38.141-17.243l22.51-19.832c3.961 4.496 9.659 7.075 15.631 7.075 11.485 0 20.83-9.344 20.83-20.829s-9.344-20.83-20.83-20.83c-2.332 0-4.63.388-6.83 1.151l-9.845-28.338c5.374-1.867 10.983-2.813 16.675-2.813 28.027 0 50.83 22.803 50.83 50.83s-22.803 50.829-50.83 50.829z" fill="#ffda44"/></g><g><path d="m379.307 304.168c-14.585 0-28.487-6.285-38.141-17.243l22.51-19.832c3.961 4.496 9.659 7.075 15.631 7.075 11.485 0 20.83-9.344 20.83-20.829s-9.344-20.83-20.83-20.83c-2.332 0-4.63.388-6.83 1.151l-9.845-28.338c5.374-1.867 10.983-2.813 16.675-2.813 28.027 0 50.83 22.803 50.83 50.83s-22.803 50.829-50.83 50.829z" fill="#ffb655"/></g><path d="m350.838 359.179h-35.883v-45.89h-117.923v45.89h-35.883c-57.802 0-104.828 47.025-104.828 104.828v47.98h399.345v-47.98c0-57.803-47.025-104.828-104.828-104.828z" fill="#c1674c"/><path d="m455.666 464.007c0-57.803-47.025-104.828-104.828-104.828h-35.883v-45.89h-58.961v198.698h199.672z" fill="#99544e"/><path d="m219.324 261.063 17.489-7.329c12.189-5.108 26.172-5.108 38.364 0l17.487 7.329c21.162 8.87 43.529 13.368 66.478 13.368h11.242c7.966-17.832 12.194-37.278 12.194-57.002v-61.576l-121.617-77.496c-48.652 11.719-93.964 35.315-131.55 68.871v70.201c0 19.725 4.228 39.17 12.194 57.003h11.242c22.948 0 45.315-4.498 66.477-13.369z" fill="#c1674c"/><path d="m292.663 261.063c21.162 8.87 43.529 13.368 66.478 13.368h11.242c7.966-17.832 12.194-37.278 12.194-57.002v-61.576l-121.616-77.496c-1.66.4-3.315.816-4.967 1.244v170.302c6.543 0 13.087 1.277 19.183 3.831z" fill="#99544e"/><path d="m382.577 97.964c0-9.75-1.439-19.169-4.103-28.063h-46.505c-37.461 0-74.233 6.959-108.566 20.098l159.174 99.398z" fill="#ff415b"/><path d="m382.577 97.964c0-9.75-1.439-19.169-4.103-28.063h-46.505c-37.461 0-74.233 6.959-108.566 20.098l159.174 99.398z" fill="#e50058"/><path d="m359.141 244.432c-18.946 0-37.41-3.713-54.881-11.036l-17.487-7.329c-19.56-8.197-41.998-8.197-61.557 0l-17.488 7.329c-17.471 7.323-35.936 11.036-54.881 11.036h-20.783c4.427 22.378 14.297 43.54 28.855 61.357 20.318 24.867 48.839 42.088 80.307 48.489l14.768 3.004 14.768-3.004c31.468-6.4 59.989-23.621 80.307-48.488 14.558-17.818 24.428-38.98 28.855-61.358z" fill="#e1ebf0"/><g><path d="m190.991 176.508h30v30.002h-30z" fill="#5d5655"/></g><g><path d="m290.997 176.508h30v30.002h-30z" fill="#5d5655"/></g><path d="m331.969 99.9h50.608v-1.937c0-54.017-43.947-97.963-97.964-97.963h-57.239c-54.017 0-97.963 43.946-97.963 97.964v91.432c51.821-56.885 125.574-89.496 202.558-89.496z" fill="#ff7c48"/><path d="m161.149 359.179c-15.247 0-29.742 3.275-42.824 9.153v143.655h290.706l-241.864-152.808z" fill="#ff7c48"/><g><path d="m290.997 176.508h30v30.002h-30z" fill="#3b3735"/></g><path d="m351.068 305.79c14.558-17.818 24.428-38.98 28.855-61.358h-20.783c-18.946 0-37.41-3.713-54.881-11.036l-17.487-7.329c-9.78-4.099-20.279-6.148-30.779-6.148v137.364l14.768-3.004c31.468-6.401 59.989-23.622 80.307-48.489z" fill="#bed9dd"/><g fill="#ff415b"><path d="m382.577 99.9v-1.937c0-54.017-43.947-97.963-97.964-97.963h-28.62v110.697c24.484-7.082 50.044-10.797 75.975-10.797z"/><path d="m255.994 415.299v96.688h153.037z"/></g></g></svg>