<svg id="Layer_1" enable-background="new 0 0 511.987 511.987" height="512" viewBox="0 0 511.987 511.987" width="512" xmlns="http://www.w3.org/2000/svg"><g><path d="m382.577 126.583c0-69.798-56.785-126.583-126.583-126.583s-126.583 56.785-126.583 126.583z" fill="#5d5655"/><path d="m255.994 0v126.583h126.583c0-69.798-56.785-126.583-126.583-126.583z" fill="#3b3735"/><path d="m382.577 126.583c0-8.556-.858-16.916-2.484-25h-248.198c-1.626 8.084-2.484 16.444-2.484 25v90.846c0 19.725 4.228 39.17 12.194 57.003h11.242c22.949 0 45.315-4.498 66.477-13.368l17.489-7.329c12.189-5.109 26.172-5.109 38.363 0l17.487 7.329c21.162 8.87 43.528 13.368 66.478 13.368h11.242c7.966-17.832 12.194-37.278 12.194-57.002z" fill="#c1674c"/><path d="m292.663 261.063c21.162 8.87 43.528 13.368 66.478 13.368h11.242c7.966-17.832 12.194-37.278 12.194-57.002v-90.847c0-8.556-.858-16.916-2.484-25h-124.099v148.319c6.543 0 13.086 1.277 19.182 3.832z" fill="#99544e"/><path d="m350.838 359.179h-9.333v37.297c0 47.151-38.36 85.512-85.511 85.512s-85.511-38.36-85.511-85.512v-37.297h-9.333c-57.802 0-104.828 47.025-104.828 104.828v47.98h399.345v-47.98c-.001-57.803-47.026-104.828-104.829-104.828z" fill="#c1674c"/><path d="m455.666 464.007c0-57.803-47.025-104.828-104.828-104.828h-9.333v37.297c0 47.151-38.36 85.512-85.511 85.512v30h199.672z" fill="#99544e"/><path d="m371.505 396.476v-35.247c-6.684-1.342-13.594-2.05-20.667-2.05h-189.689c-7.073 0-13.983.708-20.667 2.05v35.247c0 63.693 51.818 115.512 115.511 115.512 63.694-.001 115.512-51.819 115.512-115.512z" fill="#ffda44"/><path d="m371.505 396.476v-35.247c-6.684-1.342-13.594-2.05-20.667-2.05h-94.844v152.809c63.693-.001 115.511-51.819 115.511-115.512z" fill="#ffb655"/><path d="m197.032 313.289v63.746c0 32.511 26.45 58.961 58.961 58.961s58.961-26.45 58.961-58.961v-63.746z" fill="#c1674c"/><path d="m314.955 377.035v-63.746h-58.961v122.707c32.511 0 58.961-26.45 58.961-58.961z" fill="#99544e"/><g><path d="m190.991 176.508h30v30.002h-30z" fill="#5d5655"/></g><g><path d="m290.997 176.508h30v30.002h-30z" fill="#5d5655"/></g><path d="m304.26 233.396-17.487-7.329c-19.56-8.197-41.996-8.197-61.557 0l-17.488 7.329c-17.471 7.323-35.936 11.036-54.881 11.036h-20.783c4.427 22.378 14.297 43.54 28.855 61.357 20.318 24.867 48.839 42.088 80.307 48.489l14.768 3.004 14.767-3.004c31.469-6.4 59.989-23.621 80.308-48.488 14.558-17.818 24.428-38.98 28.856-61.358h-20.783c-18.947 0-37.412-3.713-54.882-11.036z" fill="#e1ebf0"/><g><path d="m290.997 176.508h30v30.002h-30z" fill="#3b3735"/></g><path d="m351.068 305.79c14.558-17.818 24.428-38.98 28.856-61.358h-20.783c-18.945 0-37.41-3.713-54.881-11.036l-17.487-7.329c-9.78-4.099-20.279-6.148-30.779-6.148v137.364l14.767-3.004c31.468-6.401 59.989-23.622 80.307-48.489z" fill="#bed9dd"/></g></svg>