<svg id="Layer_1" enable-background="new 0 0 511.986 511.986" height="512" viewBox="0 0 511.986 511.986" width="512" xmlns="http://www.w3.org/2000/svg"><g><path d="m386.988 365.584-20.173-7.411v153.813h88.851v-47.98c0-43.777-27.6-83.329-68.678-98.422z" fill="#c1674c"/><path d="m386.988 365.584-20.173-7.411v153.813h88.851v-47.98c0-43.777-27.6-83.329-68.678-98.422z" fill="#99544e"/><path d="m124.999 365.584c-41.078 15.092-68.678 54.645-68.678 98.422v47.98h88.851v-153.813z" fill="#c1674c"/><path d="m247.594 390.427c-13.26-14.277-20.563-32.871-20.563-52.355v-48.897h-50.411l-2.709 1.098c-35.684 14.456-58.74 48.673-58.74 87.173v134.542h246.445z" fill="#faf0f0"/><path d="m255.994 399.381v112.605h105.623z" fill="#efe2dd"/><path d="m338.075 290.271-2.709-1.098h-50.411v49.119c0 19.639-7.402 38.34-20.844 52.657l-28.591 30.456 84.965 90.58h76.33v-134.541c0-38.5-23.057-72.716-58.74-87.173z" fill="#efe2dd"/><path d="m338.075 290.271-2.709-1.098h-50.411v49.119c0 19.639-7.402 38.34-20.844 52.657l-28.591 30.456 84.965 90.58h76.33v-134.541c0-38.5-23.057-72.716-58.74-87.173z" fill="#e1d3ce"/><path d="m197.032 289.174v48.897c0 27.083 10.15 52.927 28.631 72.825l30.423 32.435 29.898-31.848c18.682-19.901 28.971-45.894 28.971-73.19v-49.119z" fill="#ffddce"/><path d="m256.085 443.331 29.898-31.848c18.682-19.901 28.971-45.894 28.971-73.19v-49.119h-58.961v154.059z" fill="#ffcbbc"/><path d="m219.324 261.063 17.487-7.33c12.188-5.108 26.173-5.11 38.363 0l17.489 7.33c21.164 8.87 43.53 13.368 66.477 13.368h11.242c7.966-17.833 12.195-37.278 12.195-57.003v-93.02h-253.167v93.02c0 19.725 4.229 39.17 12.195 57.003h11.242c22.945.001 45.312-4.497 66.477-13.368z" fill="#ffddce"/><path d="m255.994 124.409v125.492c6.543 0 13.086 1.277 19.181 3.832l17.489 7.33c21.164 8.87 43.53 13.368 66.477 13.368h11.242c7.966-17.833 12.195-37.278 12.195-57.003v-93.02h-126.584z" fill="#ffcbbc"/><g><path d="m190.99 176.508h30v30.002h-30z" fill="#5d5655"/></g><g><path d="m290.997 176.508h30v30.002h-30z" fill="#5d5655"/></g><path d="m350.332 0h-188.677c-36.528 0-66.247 29.719-66.247 66.247v35.745c0 28.999 23.593 52.592 52.592 52.592h36.412v-39.285c0-16.705 13.591-30.295 30.296-30.295h82.572c16.705 0 30.295 13.59 30.295 30.295v39.285h36.412c28.999 0 52.592-23.593 52.592-52.592v-35.745c0-36.528-29.719-66.247-66.247-66.247z" fill="#c1674c"/><path d="m350.332 0h-94.338v85.004h41.286c16.705 0 30.295 13.59 30.295 30.295v39.285h36.412c28.999 0 52.592-23.593 52.592-52.592v-35.745c0-36.528-29.719-66.247-66.247-66.247z" fill="#99544e"/><path d="m297.28 55.004h-82.572c-33.247 0-60.296 27.048-60.296 60.295v39.285h203.163v-39.285c0-33.247-27.048-60.295-60.295-60.295z" fill="#99544e"/><path d="m357.575 115.299c0-33.247-27.048-60.295-60.295-60.295h-41.286v99.58h101.581z" fill="#66333e"/><path d="m359.14 244.432c-18.943 0-37.408-3.713-54.88-11.036l-17.489-7.33c-19.559-8.197-41.996-8.197-61.557 0l-17.487 7.33c-17.473 7.323-35.938 11.036-54.881 11.036h-20.783c4.427 22.378 14.297 43.54 28.855 61.357 20.318 24.867 48.839 42.088 80.307 48.488l14.769 3.005 14.768-3.005c31.468-6.4 59.988-23.621 80.307-48.488 14.558-17.817 24.428-38.979 28.855-61.357z" fill="#e1ebf0"/><g><path d="m290.997 176.508h30v30.002h-30z" fill="#3b3735"/></g><path d="m359.14 244.432c-18.943 0-37.408-3.713-54.88-11.036l-17.489-7.33c-9.779-4.099-20.278-6.148-30.777-6.148v137.365l14.768-3.005c31.468-6.4 59.988-23.621 80.307-48.488 14.558-17.817 24.428-38.979 28.855-61.357h-20.784z" fill="#bed9dd"/></g></svg>