<svg id="Layer_1" enable-background="new 0 0 511.988 511.988" height="512" viewBox="0 0 511.988 511.988" width="512" xmlns="http://www.w3.org/2000/svg"><g><path d="m322.131 0c-32.307 0-60.566 20.682-70.319 51.465l-3.454 10.903 114.332 74.045 8.537-7.62c15.675-13.99 24.664-34.05 24.664-55.033 0-40.671-33.089-73.76-73.76-73.76z" fill="#c1674c"/><path d="m322.131 0c-32.307 0-60.566 20.682-70.319 51.465l-3.454 10.903 114.332 74.045 8.537-7.62c15.675-13.99 24.664-34.05 24.664-55.033 0-40.671-33.089-73.76-73.76-73.76z" fill="#99544e"/><path d="m366.954 152.879c-64.411 0-127.448-17.849-182.297-51.616l-30.66-18.876c-15.368 19.043-24.585 43.246-24.585 69.565v30.928h253.166v-30h-15.624z" fill="#ffddce"/><path d="m271.621 40.995h-31.253c-45.598 0-84.854 27.651-101.896 67.063l30.457 18.751c59.581 36.681 128.058 56.069 198.025 56.069h15.624v-30.928c0-61.18-49.776-110.955-110.957-110.955z" fill="#99544e"/><path d="m271.621 40.995h-15.626v125.216c35.773 10.994 73.146 16.668 110.959 16.668h15.624v-30.928c0-61.181-49.776-110.956-110.957-110.956z" fill="#66333e"/><path d="m161.15 359.175c-57.803 0-104.828 47.025-104.828 104.828v47.98h399.345v-47.98c0-57.803-47.025-104.828-104.828-104.828z" fill="#7ed8f6"/><path d="m455.667 464.003c0-57.803-47.025-104.828-104.828-104.828h-94.844v152.809h199.672z" fill="#2fc0f0"/><path d="m364.414 382.04c-12.356-14.531-30.383-22.865-49.457-22.865h-117.925c-19.074 0-37.1 8.334-49.456 22.865s-17.685 33.663-14.618 52.489l27.615 77.454 190.843.005 27.616-77.459c3.066-18.826-2.262-37.958-14.618-52.489z" fill="#beebfa"/><path d="m364.414 382.04c-12.356-14.531-30.383-22.865-49.457-22.865h-58.962v152.811l95.421.002 27.616-77.459c3.066-18.826-2.262-37.958-14.618-52.489z" fill="#7ed8f6"/><path d="m197.033 313.286v45.889l58.962 112.357 58.961-112.357v-45.888z" fill="#ffddce"/><path d="m314.956 359.175v-45.888h-58.961v158.245z" fill="#ffcbbc"/><path d="m352.578 214.311c0 9.687-7.881 17.567-17.568 17.567h-29.012c-5.143 0-10.01-2.241-13.351-6.148l-.502-.587c-9.05-10.582-22.227-16.651-36.151-16.651s-27.101 6.069-36.15 16.651l-.501.586c-3.342 3.908-8.209 6.149-13.352 6.149h-29.012c-9.687 0-17.567-7.881-17.567-17.567h-30v3.119c0 32.112 11.189 63.493 31.508 88.36s48.839 42.088 80.307 48.489l14.768 3.003 14.768-3.003c31.469-6.4 59.989-23.621 80.308-48.488 20.318-24.868 31.509-56.248 31.509-88.36v-3.12z" fill="#e1ebf0"/><path d="m351.069 305.791c20.318-24.868 31.509-56.248 31.509-88.36v-3.12h-30c0 9.687-7.881 17.567-17.568 17.567h-29.012c-5.143 0-10.01-2.241-13.351-6.148l-.502-.587c-9.05-10.582-22.226-16.651-36.15-16.651v148.791l14.767-3.003c31.468-6.401 59.988-23.622 80.307-48.489z" fill="#bed9dd"/><path d="m144.411 214.31c0 17.987 14.581 32.568 32.568 32.568h29.012c9.52 0 18.563-4.165 24.751-11.4l.501-.586c6.188-7.235 15.231-11.4 24.751-11.4s18.563 4.165 24.751 11.4l.502.586c6.188 7.235 15.231 11.4 24.751 11.4h29.012c17.987 0 32.568-14.581 32.568-32.568v-46.432h-223.167z" fill="#beebfa"/><path d="m280.745 234.892.502.586c6.188 7.235 15.231 11.4 24.751 11.4h29.012c17.987 0 32.568-14.581 32.568-32.568v-46.432h-111.583v55.613c9.519 0 18.563 4.166 24.75 11.401z" fill="#7ed8f6"/><path d="m335.009 261.878h-29.012c-13.924 0-27.101-6.068-36.15-16.649l-.503-.588c-3.342-3.908-8.208-6.149-13.351-6.149s-10.008 2.241-13.351 6.149l-.501.587c-9.051 10.582-22.228 16.65-36.151 16.65h-29.012c-26.229 0-47.567-21.339-47.567-47.567v-61.433h253.166v61.433c.001 26.228-21.338 47.567-47.568 47.567zm-79.015-53.387c13.925 0 27.102 6.069 36.151 16.651l.502.587c3.341 3.907 8.208 6.148 13.351 6.148h29.012c9.688 0 17.568-7.881 17.568-17.567v-31.433h-193.166v31.433c0 9.687 7.881 17.567 17.567 17.567h29.012c5.143 0 10.01-2.241 13.352-6.149l.501-.586c9.049-10.581 22.226-16.651 36.15-16.651z" fill="#0b799d"/><path d="m255.995 152.878v30h96.583v31.433c0 9.687-7.881 17.567-17.568 17.567h-29.012c-5.143 0-10.01-2.241-13.351-6.148l-.502-.587c-9.05-10.582-22.226-16.651-36.15-16.651v30c5.142 0 10.008 2.241 13.35 6.149l.503.588c9.05 10.581 22.227 16.649 36.15 16.649h29.012c26.229 0 47.568-21.339 47.568-47.567v-61.433z" fill="#07485e"/></g></svg>