<svg id="Layer_1" enable-background="new 0 0 511.982 511.982" height="512" viewBox="0 0 511.982 511.982" width="512" xmlns="http://www.w3.org/2000/svg"><g><path d="m350.836 359.174h-189.689c-14.159 0-27.669 2.828-40.002 7.939v144.87h269.692v-144.87c-12.333-5.111-25.842-7.939-40.001-7.939z" fill="#faf0f0"/><path d="m390.837 511.982v-144.87c-12.333-5.111-25.842-7.938-40.001-7.938h-94.833v152.809h134.834z" fill="#efe2dd"/><path d="m56.319 464.002v47.98h94.826v-152.328c-53.128 5.052-94.826 49.919-94.826 104.348z" fill="#0b799d"/><path d="m455.664 464.002c0-54.429-41.698-99.296-94.826-104.348v152.329h94.826z" fill="#0b799d"/><path d="m455.664 464.002c0-54.429-41.698-99.296-94.826-104.348v152.329h94.826z" fill="#07485e"/><path d="m375.564 51.52-4.269-3.811h-230.608l-4.269 3.811c-38.775 34.62-61.013 84.289-61.013 136.27v133.303h361.173v-133.303c0-51.981-22.239-101.65-61.014-136.27z" fill="#ffda44"/><path d="m436.578 187.79c0-51.981-22.238-101.65-61.013-136.271l-4.269-3.811h-115.293v273.384h180.575z" fill="#ffb655"/><path d="m197.03 313.285v45.889l58.972 66.402 58.951-66.402v-45.889z" fill="#ffddce"/><path d="m314.953 359.174v-45.889h-58.95v112.291z" fill="#ffcbbc"/><path d="m219.322 261.063 17.487-7.33c12.191-5.108 26.173-5.108 38.364 0l17.488 7.33c21.165 8.87 43.531 13.368 66.477 13.368h11.242c7.966-17.833 12.194-37.278 12.194-57.003v-42.038c0-28.286-23.012-51.298-51.297-51.298h-44.157c-17.159 0-31.118-13.959-31.118-31.117 0 17.158-13.959 31.117-31.118 31.117h-44.18c-28.285 0-51.297 23.012-51.297 51.298v42.039c0 19.725 4.228 39.17 12.194 57.003h11.242c22.948 0 45.314-4.498 66.479-13.369z" fill="#ffddce"/><path d="m331.277 124.092h-44.157c-17.154 0-31.11-13.951-31.118-31.103v156.913c6.539.001 13.079 1.278 19.17 3.831l17.488 7.33c21.165 8.87 43.531 13.368 66.477 13.368h11.242c7.966-17.833 12.194-37.278 12.194-57.003v-42.038c.001-28.286-23.01-51.298-51.296-51.298z" fill="#ffcbbc"/><g><path d="m190.988 176.508h30v30.002h-30z" fill="#5d5655"/></g><g><path d="m290.995 176.508h30v30.002h-30z" fill="#5d5655"/></g><path d="m271.434 410.577h-.442-30-.442c-34.868 0-63.236 28.368-63.236 63.236v38.169h30.442c19.316 0 36.627-8.715 48.236-22.41 11.609 13.694 28.919 22.41 48.236 22.41h30.442v-38.169c-.001-34.868-28.368-63.236-63.236-63.236z" fill="#7ed8f6"/><path d="m131.408 0v56.161l124.595 36.814 124.571-36.815v-56.16z" fill="#0b799d"/><path d="m359.138 244.432c-18.943 0-37.408-3.713-54.88-11.036l-17.488-7.33c-19.561-8.197-41.998-8.197-61.557 0l-17.487 7.33c-17.473 7.323-35.938 11.036-54.881 11.036h-20.783c4.427 22.378 14.297 43.54 28.855 61.357 20.318 24.867 48.839 42.088 80.307 48.489l14.768 3.004 14.768-3.004c31.468-6.401 59.989-23.622 80.307-48.489 14.558-17.817 24.428-38.979 28.855-61.357z" fill="#e1ebf0"/><g><path d="m290.995 176.508h30v30.002h-30z" fill="#3b3735"/></g><path d="m304.227 511.982h30.442v-38.169c0-34.868-28.367-63.236-63.235-63.236h-.442-14.988v79.009c11.608 13.686 28.913 22.396 48.223 22.396z" fill="#2fc0f0"/><path d="m380.574 0h-124.571v92.975l124.571-36.815z" fill="#07485e"/><path d="m270.759 354.278c31.468-6.401 59.989-23.622 80.307-48.489 14.558-17.817 24.428-38.979 28.855-61.357h-20.783c-18.943 0-37.408-3.713-54.88-11.036l-17.488-7.33c-9.777-4.097-20.272-6.146-30.767-6.148v137.362z" fill="#bed9dd"/></g></svg>