<svg id="Layer_1" enable-background="new 0 0 511.957 511.957" height="512" viewBox="0 0 511.957 511.957" width="512" xmlns="http://www.w3.org/2000/svg"><g><path d="m350.823 359.148h-189.689c-57.802 0-104.828 47.025-104.828 104.828v47.98h399.345v-47.98c0-57.802-47.026-104.828-104.828-104.828z" fill="#ff415b"/><path d="m455.651 463.977c0-57.803-47.025-104.828-104.828-104.828h-94.845v152.809h199.672v-47.981z" fill="#e50058"/><path d="m351.954 3.354-6.709-3.354-22.317 11.158-22.316-11.158-22.316 11.158-22.317-11.158-22.316 11.158-22.318-11.158-22.316 11.158-22.318-11.158-6.708 3.354c-18.88 9.44-30.608 28.417-30.608 49.525v109.43h30c0-30.33 24.675-55.005 55.004-55.005h83.157c30.33 0 55.004 24.675 55.004 55.005h30v-109.429c.002-21.109-11.727-40.086-30.606-49.526z" fill="#5d5655"/><path d="m352.562 162.31h30v-109.43c0-21.108-11.729-40.086-30.608-49.525l-6.709-3.355-22.317 11.158-22.316-11.158-22.316 11.158-22.317-11.158v107.305h41.579c30.329 0 55.004 24.674 55.004 55.005z" fill="#3b3735"/><path d="m197.017 313.259v46.369l58.962 59.022 58.961-59.022v-46.369z" fill="#eecda1"/><path d="m314.94 359.628v-46.369h-58.961v105.391z" fill="#e8b36f"/><path d="m219.309 261.038 17.487-7.33c12.192-5.109 26.174-5.107 38.364 0l17.488 7.33c21.165 8.87 43.531 13.368 66.477 13.368h11.242c7.966-17.833 12.194-37.278 12.194-57.003v-55.093c0-46.872-38.133-85.005-85.004-85.005h-83.157c-46.872 0-85.004 38.133-85.004 85.005v55.094c0 19.725 4.228 39.17 12.194 57.003h11.242c22.946-.001 45.312-4.499 66.477-13.369z" fill="#eecda1"/><path d="m297.557 77.305h-41.579v172.572c6.544 0 13.087 1.278 19.182 3.831l17.488 7.33c21.165 8.87 43.531 13.368 66.477 13.368h11.242c7.966-17.833 12.194-37.278 12.194-57.003v-55.093c.001-46.872-38.132-85.005-85.004-85.005z" fill="#e8b36f"/><g><path d="m190.976 176.482h30v30.002h-30z" fill="#5d5655"/></g><g><path d="m290.982 176.482h30v30.002h-30z" fill="#5d5655"/></g><g><path d="m400.825 511.957h-30v-32.753c0-16.848-13.707-30.554-30.554-30.554h-168.585c-16.847 0-30.554 13.706-30.554 30.554v32.753h-30v-32.753c0-33.39 27.164-60.554 60.554-60.554h168.586c33.39 0 60.554 27.164 60.554 60.554v32.753z" fill="#faf0f0"/></g><path d="m359.125 244.406c-18.943 0-37.408-3.713-54.88-11.036l-17.488-7.33c-19.56-8.197-41.997-8.197-61.557 0l-17.487 7.33c-17.473 7.323-35.938 11.036-54.881 11.036h-20.783c4.427 22.378 14.297 43.54 28.855 61.357 20.318 24.867 48.839 42.088 80.307 48.489l14.768 3.004 14.768-3.004c31.468-6.401 59.989-23.622 80.307-48.489 14.558-17.817 24.428-38.979 28.855-61.357z" fill="#e1ebf0"/><g><path d="m290.982 176.482h30v30.002h-30z" fill="#3b3735"/></g><path d="m340.271 418.65h-84.293v30h84.293c16.847 0 30.554 13.706 30.554 30.554v32.753h30v-32.753c0-33.39-27.164-60.554-60.554-60.554z" fill="#efe2dd"/><path d="m351.053 305.764c14.558-17.817 24.428-38.979 28.855-61.357h-20.783c-18.943 0-37.408-3.713-54.88-11.036l-17.488-7.33c-9.78-4.099-20.279-6.148-30.778-6.148v137.365l14.768-3.004c31.467-6.402 59.988-23.623 80.306-48.49z" fill="#bed9dd"/></g></svg>