<svg id="Layer_1" enable-background="new 0 0 511.982 511.982" height="512" viewBox="0 0 511.982 511.982" width="512" xmlns="http://www.w3.org/2000/svg"><g><path d="m372.347 0c-26.149 0-48.873 17.694-55.259 43.029l-1.604 6.363 40.887 62.695 6.487 1.09c3.16.53 6.354.8 9.489.8 31.424 0 56.988-25.565 56.988-56.989s-25.564-56.988-56.988-56.988z" fill="#6d6663"/><path d="m372.347 0c-26.149 0-48.873 17.694-55.259 43.029l-1.604 6.363 40.887 62.695 6.487 1.09c3.16.53 6.354.8 9.489.8 31.424 0 56.988-25.565 56.988-56.989s-25.564-56.988-56.988-56.988z" fill="#5d5655"/><path d="m194.894 43.029c-6.386-25.335-29.109-43.029-55.259-43.029-31.424 0-56.989 25.564-56.989 56.988s25.565 56.989 56.989 56.989c3.136 0 6.329-.27 9.489-.8l6.487-1.09 40.886-62.695z" fill="#6d6663"/><path d="m278.282 14.01h-44.582c-57.507 0-104.292 46.785-104.292 104.292v66.829h30c0-22.489 18.296-40.786 40.808-40.786 22.634 0 42.819-10.676 55.786-27.26 12.967 16.584 33.152 27.26 55.786 27.26 22.489 0 40.786 18.297 40.786 40.786h30v-66.829c0-57.507-46.785-104.292-104.292-104.292z" fill="#5d5655"/><path d="m311.788 144.345c22.489 0 40.786 18.297 40.786 40.786h30v-66.829c0-57.507-46.785-104.292-104.292-104.292h-22.292v103.089c.004-.005.008-.009.011-.014 12.968 16.584 33.154 27.26 55.787 27.26z" fill="#3b3735"/><path d="m346.655 299h-181.327c-38.05 0-69.007 30.956-69.007 69.006v36.242l319.34-.001v-36.241c0-38.049-30.956-69.006-69.006-69.006z" fill="#00ee8a"/><path d="m415.661 368.007c0-38.05-30.956-69.006-69.006-69.006h-90.664v105.248h159.67z" fill="#00ccb3"/><path d="m350.836 359.174h-189.689c-57.802 0-104.828 47.025-104.828 104.828v47.98h399.345v-47.98c-.001-57.803-47.026-104.828-104.828-104.828z" fill="#ffb655"/><path d="m455.663 464.001c0-57.802-47.025-104.828-104.828-104.828h-94.845v152.808h199.672v-47.98z" fill="#ff7c48"/><path d="m197.03 313.284v66.429c0 32.511 26.45 58.961 58.961 58.961s58.961-26.45 58.961-58.961v-66.428z" fill="#c48958"/><path d="m314.952 379.713v-66.428h-58.961v125.39c32.511-.001 58.961-26.451 58.961-58.962z" fill="#9e6f46"/><path d="m350.836 359.174h-15v152.808h30v-151.73c-4.901-.706-9.908-1.078-15-1.078z" fill="#00ccb3"/><path d="m161.147 359.174c-5.093 0-10.099.373-15 1.078v151.73h30v-152.808z" fill="#00ccb3"/><path d="m350.836 359.174h-15v152.808h30v-151.73c-4.901-.706-9.908-1.078-15-1.078z" fill="#00969b"/><path d="m219.322 261.063 17.487-7.33c12.191-5.107 26.175-5.107 38.363 0l17.489 7.33c21.164 8.87 43.53 13.368 66.477 13.368h11.888c7.547-17.255 11.548-36.014 11.548-55.036v-36.672c0-37.704-30.675-68.379-68.379-68.379h-17.408c-22.477 0-40.766-18.277-40.785-40.75-.02 22.473-18.308 40.75-40.785 40.75h-17.431c-37.704 0-68.378 30.675-68.378 68.379v34.705c0 19.725 4.228 39.17 12.194 57.003h11.242c22.946.001 45.312-4.497 66.478-13.368z" fill="#c48958"/><path d="m314.196 114.345h-17.408c-22.477 0-40.766-18.277-40.785-40.75 0 .144-.01.285-.011.428v175.88c6.544 0 13.087 1.277 19.181 3.831l17.489 7.33c21.164 8.87 43.53 13.368 66.477 13.368h11.888c7.547-17.255 11.548-36.014 11.548-55.036v-36.672c-.001-37.704-30.675-68.379-68.379-68.379z" fill="#9e6f46"/><g><path d="m190.988 176.508h30v30.002h-30z" fill="#5d5655"/></g><g><path d="m290.994 176.508h30v30.002h-30z" fill="#5d5655"/></g><path d="m359.138 244.432c-18.943 0-37.408-3.713-54.88-11.036l-17.489-7.33c-19.56-8.197-41.996-8.197-61.556 0l-17.487 7.33c-17.473 7.323-35.938 11.036-54.881 11.036h-20.783c4.427 22.378 14.297 43.54 28.855 61.357 20.318 24.867 48.839 42.088 80.307 48.489l14.768 3.003 16.695-3.396c30.926-6.291 58.954-23.214 78.922-47.652 14.633-17.909 24.44-39.255 28.641-61.802h-21.112z" fill="#e1ebf0"/><g><path d="m290.994 176.508h30v30.002h-30z" fill="#3b3735"/></g><path d="m255.991 357.281 16.695-3.396c30.926-6.291 58.954-23.214 78.922-47.652 14.633-17.909 24.44-39.255 28.641-61.802h-21.112c-18.943 0-37.408-3.713-54.88-11.036l-17.489-7.33c-9.78-4.099-20.279-6.148-30.778-6.148z" fill="#bed9dd"/></g></svg>