<svg id="Layer_1" enable-background="new 0 0 511.982 511.982" height="512" viewBox="0 0 511.982 511.982" width="512" xmlns="http://www.w3.org/2000/svg"><g><path d="m350.835 359.174h-25v32.744c0 12.495-10.165 22.66-22.66 22.66h-94.368c-12.495 0-22.66-10.165-22.66-22.66v-32.744h-25c-57.803 0-104.828 47.025-104.828 104.828v47.98h399.345v-47.98c0-57.803-47.026-104.828-104.829-104.828z" fill="#efe2dd"/><path d="m455.664 464.002c0-57.803-47.025-104.828-104.828-104.828h-25v32.744c0 12.495-10.165 22.66-22.66 22.66h-47.184v97.404h199.672z" fill="#e1d3ce"/><path d="m160.031 31.708h-28.582l-4.215 3.618c-32.938 28.275-51.829 69.389-51.829 112.799v66.818c0 59.931 48.758 108.688 108.688 108.688h17.273z" fill="#ffda44"/><path d="m384.749 35.326-4.215-3.618h-28.582l-41.335 291.923h17.273c59.931 0 108.688-48.757 108.688-108.688v-66.818c0-43.41-18.891-84.523-51.829-112.799z" fill="#ffda44"/><path d="m384.749 35.326-4.215-3.618h-28.582l-41.335 291.923h17.273c59.931 0 108.688-48.757 108.688-108.688v-66.818c0-43.41-18.891-84.523-51.829-112.799z" fill="#ffb655"/><path d="m118.129 0 12.457 152.092h250.81l12.458-152.092z" fill="#faf0f0"/><path d="m393.854 0h-137.862v152.092h125.404z" fill="#efe2dd"/><path d="m156.147 359.174v32.744c0 29.037 23.623 52.66 52.66 52.66h94.368c29.037 0 52.66-23.623 52.66-52.66v-32.744z" fill="#faf0f0"/><path d="m255.992 444.578h47.184c29.037 0 52.66-23.623 52.66-52.66v-32.744h-99.844z" fill="#efe2dd"/><path d="m197.03 313.285v45.889l58.962 85.404 58.961-85.404v-45.889z" fill="#ffddce"/><path d="m314.953 359.174v-45.889h-58.961v131.293z" fill="#ffcbbc"/><path d="m219.322 261.063 17.487-7.33c12.188-5.108 26.173-5.11 38.363 0l17.489 7.33c21.164 8.87 43.53 13.368 66.477 13.368h11.242c7.966-17.833 12.195-37.278 12.195-57.003v-79.722h-253.167v79.722c0 19.725 4.229 39.17 12.195 57.003h11.242c22.946.001 45.312-4.497 66.477-13.368z" fill="#ffddce"/><path d="m255.992 137.707v112.194c6.543 0 13.086 1.277 19.181 3.832l17.489 7.33c21.164 8.87 43.53 13.368 66.477 13.368h11.242c7.966-17.833 12.195-37.278 12.195-57.003v-79.722h-126.584z" fill="#ffcbbc"/><g><path d="m190.988 176.508h30v30.002h-30z" fill="#5d5655"/></g><g><path d="m290.995 176.508h30v30.002h-30z" fill="#5d5655"/></g><path d="m284.76 50.045h-13.769v-13.769h-30v13.769h-13.769v30h13.769v13.77h30v-13.77h13.769z" fill="#ff415b"/><path d="m359.138 244.432c-18.943 0-37.408-3.713-54.88-11.036l-17.489-7.33c-19.559-8.197-41.996-8.197-61.557 0l-17.487 7.33c-17.473 7.323-35.938 11.036-54.881 11.036h-20.783c4.427 22.378 14.297 43.54 28.855 61.357 20.318 24.867 48.839 42.088 80.308 48.489l14.768 3.003 14.768-3.003c31.468-6.401 59.988-23.622 80.307-48.489 14.558-17.817 24.428-38.979 28.855-61.357z" fill="#e1ebf0"/><g><path d="m290.995 176.508h30v30.002h-30z" fill="#3b3735"/></g><path d="m270.991 80.045h13.769v-30h-13.769v-13.769h-14.999v57.539h14.999z" fill="#e50058"/><path d="m351.066 305.789c14.558-17.817 24.428-38.979 28.855-61.357h-20.783c-18.943 0-37.408-3.713-54.88-11.036l-17.489-7.33c-9.779-4.099-20.278-6.148-30.777-6.148v137.364l14.768-3.003c31.467-6.402 59.988-23.623 80.306-48.49z" fill="#bed9dd"/></g></svg>