<svg id="Layer_1" enable-background="new 0 0 511.981 511.981" height="512" viewBox="0 0 511.981 511.981" width="512" xmlns="http://www.w3.org/2000/svg"><g><path d="m56.308 464.001v47.98h67.706v-146.011c-39.534 15.02-67.706 53.294-67.706 98.031z" fill="#ffb655"/><path d="m455.652 464.001c0-44.737-28.173-83.011-67.707-98.031v146.012h67.707z" fill="#ffb655"/><path d="m455.652 464.001c0-44.737-28.173-83.011-67.707-98.031v146.012h67.707z" fill="#ff7c48"/><path d="m161.135 359.174h189.689v152.808h-189.689z" fill="#ffb655"/><path d="m255.979 359.174h94.845v152.808h-94.845z" fill="#ff7c48"/><path d="m377.216 69.219c-1.606-18.93-10.195-36.434-24.186-49.287s-32.157-19.932-51.155-19.932c-9.017 0-17.874 1.592-26.327 4.73l-19.568 7.269-19.57-7.269c-8.452-3.138-17.309-4.73-26.326-4.73-18.998 0-37.165 7.078-51.155 19.932s-22.579 30.357-24.186 49.287l-5.4 63.651h253.273z" fill="#ffeb99"/><path d="m377.216 69.219c-1.606-18.93-10.195-36.434-24.186-49.287s-32.157-19.932-51.155-19.932c-9.017 0-17.874 1.592-26.327 4.73l-19.568 7.269v120.871h126.637z" fill="#ffda44"/><path d="m219.311 261.063 17.487-7.33c12.19-5.111 26.175-5.109 38.363 0l17.488 7.33c21.165 8.87 43.531 13.368 66.478 13.368h11.242c7.966-17.832 12.194-37.278 12.194-57.003v-84.558h-253.167v84.559c0 19.725 4.229 39.17 12.195 57.003h11.242c22.946 0 45.313-4.498 66.478-13.369z" fill="#eecda1"/><path d="m255.979 132.87v117.031c6.544 0 13.087 1.278 19.182 3.833l17.488 7.33c21.165 8.87 43.531 13.368 66.478 13.368h11.242c7.966-17.832 12.194-37.278 12.194-57.003v-84.559z" fill="#e8b36f"/><g><path d="m190.977 176.508h30v30.001h-30z" fill="#5d5655"/></g><g><path d="m290.982 176.508h30v30.001h-30z" fill="#5d5655"/></g><path d="m197.019 313.284v66.429c0 32.511 26.45 58.961 58.961 58.961 32.512 0 58.962-26.45 58.962-58.961v-66.429z" fill="#eecda1"/><path d="m314.941 379.713v-66.429h-58.962v125.39c32.512 0 58.962-26.45 58.962-58.961z" fill="#e8b36f"/><g><path d="m53.657 117.87h404.667v30h-404.667z" fill="#ffda44"/></g><path d="m255.979 117.87h202.345v30h-202.345z" fill="#ffb655"/><path d="m397.946 511.981v-141.601c-14.175-7.164-30.184-11.206-47.122-11.206h-6.879v122.803h-175.93v-122.803h-6.88c-16.938 0-32.947 4.043-47.122 11.207v141.601h283.933z" fill="#00ccb3"/><path d="m397.946 511.981v-141.601c-14.175-7.164-30.184-11.206-47.122-11.206h-6.879v122.803h-87.965v30.005h141.966z" fill="#00969b"/><path d="m359.127 244.432c-18.943 0-37.408-3.713-54.881-11.036l-17.487-7.33c-19.561-8.199-41.998-8.199-61.559 0l-17.486 7.33c-17.473 7.323-35.938 11.036-54.881 11.036h-20.783c4.427 22.378 14.297 43.54 28.855 61.357 20.318 24.867 48.839 42.088 80.308 48.488l14.767 3.003 14.769-3.003c31.468-6.4 59.988-23.621 80.307-48.488 14.558-17.817 24.428-38.979 28.855-61.357z" fill="#e1ebf0"/><g><path d="m290.982 176.508h30v30.001h-30z" fill="#3b3735"/></g><path d="m270.748 354.277c31.468-6.4 59.988-23.621 80.307-48.488 14.558-17.817 24.428-38.979 28.855-61.357h-20.782c-18.943 0-37.408-3.713-54.881-11.036l-17.487-7.33c-9.78-4.1-20.28-6.149-30.779-6.149v137.363z" fill="#bed9dd"/></g></svg>