<svg id="Layer_1" enable-background="new 0 0 511.978 511.978" height="512" viewBox="0 0 511.978 511.978" width="512" xmlns="http://www.w3.org/2000/svg"><g><path d="m366.228 377.504c-17.486-11.993-37.967-18.333-59.23-18.333h-25.001v61.404h-139.687v-61.404h-25.001c-57.802 0-104.828 47.025-104.828 104.827v47.98h393.665v-107.476z" fill="#efe2dd"/><path d="m406.146 404.502-39.918-26.998c-17.486-11.993-37.967-18.333-59.23-18.333h-25.001v61.404h-69.843v91.403h193.992z" fill="#e1d3ce"/><path d="m117.309 359.171h189.689v91.404h-189.689z" fill="#faf0f0"/><path d="m212.154 359.171h94.844v91.404h-94.844z" fill="#efe2dd"/><path d="m153.192 313.618v45.553l58.962 91.404 58.961-91.404v-45.553z" fill="#ffddce"/><path d="m271.115 359.171v-45.553h-58.961v136.955z" fill="#ffcbbc"/><path d="m421.141 251.024c-33.615 0-60.964 27.348-60.964 60.963s27.349 60.964 60.964 60.964 60.963-27.349 60.963-60.964-27.348-60.963-60.963-60.963z" fill="#6d6663"/><path d="m482.104 311.987c0-33.615-27.348-60.963-60.963-60.963v121.927c33.615 0 60.963-27.349 60.963-60.964z" fill="#5d5655"/><path d="m376.146 397.466h89.989v114.513h-89.989z" fill="#0b799d"/><path d="m421.14 397.466h44.995v114.513h-44.995z" fill="#07485e"/><path d="m342.784 342.951h156.713v84.515h-156.713z" fill="#7ed8f6"/><path d="m421.14 342.951h78.357v84.515h-78.357z" fill="#2fc0f0"/><path d="m146.017 0c32.307 0 60.566 20.682 70.319 51.465l3.455 10.903-114.332 74.045-8.537-7.62c-15.675-13.99-24.664-34.05-24.664-55.033-.001-40.671 33.088-73.76 73.759-73.76z" fill="#6d6663"/><path d="m85.571 151.951c0-8.952 1.073-17.657 3.084-26h114.775c33.993 0 66.062-16.528 85.785-44.214l10.796-13.942c23.693 20.365 38.726 50.536 38.726 84.156v65.812c0 19.602-4.177 38.929-12.047 56.671h-11.389c-22.949 0-45.315-4.498-66.477-13.368l-17.489-7.329c-12.189-5.109-26.172-5.109-38.363 0l-17.487 7.329c-21.162 8.87-43.528 13.368-66.478 13.368h-11.388c-7.871-17.742-12.048-37.069-12.048-56.672z" fill="#ffddce"/><path d="m300.012 67.796-10.796 13.942c-18.026 25.303-46.366 41.278-77.061 43.841v124.326c6.543 0 13.086 1.277 19.181 3.832l17.489 7.329c21.162 8.87 43.528 13.368 66.477 13.368h11.389c7.87-17.742 12.047-37.069 12.047-56.671v-65.812c-.001-33.619-15.033-63.791-38.726-84.155z" fill="#ffcbbc"/><g><path d="m247.157 176.51h30v30.002h-30z" fill="#5d5655"/></g><g><path d="m147.151 176.51h30v30.002h-30z" fill="#5d5655"/></g><path d="m203.43 155.951h-117.859v-4c0-61.182 49.774-110.956 110.956-110.956h31.254c38.543 0 72.554 19.759 92.45 49.675l-6.763 8.727c-25.355 35.417-66.466 56.554-110.038 56.554z" fill="#5d5655"/><path d="m163.888 233.397 17.487-7.329c19.56-8.198 41.996-8.198 61.557 0l17.488 7.329c17.471 7.323 35.936 11.036 54.881 11.036h20.849c-4.395 22.501-14.291 43.784-28.921 61.689-20.318 24.867-48.839 42.087-80.307 48.488l-14.768 3.004-14.768-3.004c-31.468-6.401-59.988-23.622-80.307-48.489-14.63-17.905-24.526-39.188-28.921-61.688h20.849c18.946.001 37.411-3.712 54.881-11.036z" fill="#e1ebf0"/><g><path d="m247.157 176.51h30v30.002h-30z" fill="#3b3735"/></g><path d="m313.468 99.396 6.763-8.727c-19.896-29.916-53.907-49.675-92.45-49.675h-15.627v114.666c40.287-2.614 77.659-23.22 101.314-56.264z" fill="#3b3735"/><path d="m307.229 306.123c14.63-17.906 24.526-39.188 28.921-61.689h-20.849c-18.945 0-37.41-3.713-54.881-11.036l-17.488-7.329c-9.78-4.099-20.279-6.149-30.778-6.149v137.695l14.768-3.004c31.468-6.401 59.989-23.621 80.307-48.488z" fill="#bed9dd"/></g></svg>