<svg id="Layer_1" enable-background="new 0 0 511.987 511.987" height="512" viewBox="0 0 511.987 511.987" width="512" xmlns="http://www.w3.org/2000/svg"><g><path d="m350.838 359.179h-189.689c-57.802 0-104.828 47.025-104.828 104.828v47.98h399.345v-47.98c0-57.803-47.025-104.828-104.828-104.828z" fill="#faf0f0"/><path d="m455.666 464.007c0-57.803-47.025-104.828-104.828-104.828h-94.845v152.809h199.672v-47.981z" fill="#efe2dd"/><path d="m219.324 261.063 17.489-7.329c12.189-5.108 26.172-5.109 38.364 0l17.487 7.329c21.162 8.87 43.529 13.368 66.478 13.368h11.242c7.966-17.832 12.194-37.278 12.194-57.002v-91.479h-253.167v91.479c0 19.724 4.228 39.17 12.194 57.002h11.242c22.948.001 45.315-4.497 66.477-13.368z" fill="#c48958"/><path d="m255.994 125.95v123.953c6.543 0 13.087 1.277 19.183 3.832l17.487 7.329c21.162 8.87 43.529 13.368 66.478 13.368h11.242c7.966-17.832 12.194-37.278 12.194-57.002v-91.48z" fill="#9e6f46"/><g><path d="m190.991 176.508h30v30.002h-30z" fill="#5d5655"/></g><g><path d="m290.997 176.508h30v30.002h-30z" fill="#5d5655"/></g><path d="m197.032 313.289v65.364l58.961 87.215 58.962-87.205v-65.373z" fill="#c48958"/><path d="m314.955 378.664v-65.374h-58.961v152.576z" fill="#9e6f46"/><g fill="#ffda44"><path d="m385.664 365.133v146.854h30v-130.304c-8.942-7.057-19.059-12.684-30-16.55z"/><path d="m96.324 381.683v130.305h30v-146.855c-10.942 3.866-21.058 9.493-30 16.55z"/><path d="m324.681 390.801 34.612-31.28c-2.79-.224-5.609-.342-8.455-.342h-35.982l-10.366 9.433c-22.279 20.273-38.833 45.741-48.497 73.714-9.664-27.973-26.218-53.44-48.497-73.714l-10.366-9.433h-35.981c-2.847 0-5.666.118-8.456.342l34.612 31.28c30.806 28.031 48.474 67.996 48.474 109.646v11.54h40.426v-11.54c.002-41.65 17.67-81.615 48.476-109.646z"/></g><path d="m271.256 40.877-147.491 84.624 5.646 17.774h253.166l5.11-16.09z" fill="#ffb655"/><path d="m387.687 127.185-116.431-86.308-15.262 8.757v93.641h126.583z" fill="#ff7c48"/><path d="m382.577 143.275 7.947-25.022c8.861-27.9 4.03-57.452-13.255-81.077-11.159-15.252-26.246-26.297-43.412-32.216l-77.717 44.59z" fill="#ffda44"/><path d="m382.577 143.275 7.947-25.022c8.861-27.9 4.03-57.452-13.255-81.077-11.159-15.252-26.246-26.297-43.412-32.216l-77.717 44.59z" fill="#ffb655"/><path d="m304.008 0h-96.028c-29.273 0-55.976 13.55-73.261 37.176-17.285 23.625-22.116 53.177-13.255 81.078l7.947 25.021 224.184-128.627c-14.485-9.484-31.543-14.648-49.587-14.648z" fill="#ffeb99"/><path d="m359.141 244.432c-18.946 0-37.41-3.713-54.881-11.036l-17.487-7.329c-19.56-8.198-41.998-8.197-61.557 0l-17.488 7.329c-17.471 7.323-35.936 11.036-54.881 11.036h-20.783c4.427 22.379 14.297 43.541 28.855 61.358 20.318 24.867 48.839 42.088 80.307 48.488l14.768 3.003 14.768-3.003c31.468-6.4 59.989-23.621 80.307-48.488 14.558-17.818 24.428-38.98 28.855-61.358z" fill="#e1ebf0"/><path d="m351.068 305.79c14.558-17.818 24.428-38.98 28.855-61.358h-20.783c-18.946 0-37.41-3.713-54.881-11.036l-17.487-7.329c-9.78-4.099-20.279-6.148-30.779-6.148v137.363l14.768-3.003c31.468-6.401 59.989-23.622 80.307-48.489z" fill="#bed9dd"/><g><path d="m290.997 176.508h30v30.002h-30z" fill="#3b3735"/></g><path d="m385.664 365.133v146.854h30v-130.304c-8.942-7.057-19.059-12.684-30-16.55z" fill="#ffb655"/><path d="m314.857 359.179-10.366 9.433c-22.279 20.273-38.833 45.74-48.497 73.713v69.663h20.213v-11.54c0-41.65 17.668-81.615 48.474-109.646l34.612-31.28c-2.79-.224-5.609-.342-8.455-.342h-35.981z" fill="#ffb655"/><path d="m304.008 0h-48.014v70.647l97.602-55.999c-14.486-9.484-31.544-14.648-49.588-14.648z" fill="#ffda44"/></g></svg>