<svg id="Layer_1" enable-background="new 0 0 511.982 511.982" height="512" viewBox="0 0 511.982 511.982" width="512" xmlns="http://www.w3.org/2000/svg"><g><path d="m420.662 297.002c-21.001 0-38.088-17.086-38.088-38.088v-56.48h-34.109l-63.513 122.19v64.555h82.622c37.544 0 68.088-30.544 68.088-68.088v-24.088h-15z" fill="#ffda44"/><path d="m420.662 297.002c-21.001 0-38.088-17.086-38.088-38.088v-56.48h-34.109l-63.513 122.19v64.555h82.622c37.544 0 68.088-30.544 68.088-68.088v-24.088h-15z" fill="#ffb655"/><path d="m163.517 202.434h-34.109v56.48c0 21.002-17.086 38.088-38.088 38.088h-15v24.088c0 37.544 30.544 68.088 68.088 68.088h82.622v-64.555z" fill="#ffda44"/><path d="m219.322 261.063 17.487-7.33c12.19-5.108 26.174-5.11 38.363 0l17.488 7.33c21.162 8.87 43.528 13.368 66.478 13.368h11.242c7.966-17.833 12.195-37.278 12.195-57.003v-83.635h-253.167v83.635c0 19.725 4.228 39.17 12.194 57.003h11.242c22.949.001 45.315-4.497 66.478-13.368z" fill="#ffcbbc"/><path d="m255.991 133.794v116.107c6.543 0 13.087 1.277 19.181 3.832l17.488 7.33c21.162 8.87 43.528 13.368 66.478 13.368h11.242c7.966-17.833 12.195-37.278 12.195-57.003v-83.635h-126.584z" fill="#ffbcae"/><g><path d="m190.989 176.508h30v30.002h-30z" fill="#5d5655"/></g><g><path d="m290.995 176.508h30v30.002h-30z" fill="#5d5655"/></g><path d="m255.991 0c-69.798 0-126.583 56.785-126.583 126.583v7.211h253.167v-7.211c0-69.798-56.785-126.583-126.584-126.583z" fill="#faf0f0"/><path d="m382.575 126.583c0-69.798-56.785-126.583-126.584-126.583v133.794h126.583v-7.211z" fill="#efe2dd"/><path d="m63.32 464.002v47.98h89.826v-151.73c-50.721 7.3-89.826 51.04-89.826 103.75z" fill="#ffcbbc"/><path d="m448.663 464.002c0-52.709-39.105-96.449-89.825-103.75v151.73h89.825z" fill="#ffcbbc"/><path d="m448.663 464.002c0-52.709-39.105-96.449-89.825-103.75v151.73h89.825z" fill="#ffbcae"/><g><path d="m66.98 118.793h378.022v30h-378.022z" fill="#efe2dd"/></g><path d="m343.836 359.174h-39.584v74.548c0 26.611-21.649 48.261-48.26 48.261s-48.26-21.649-48.26-48.261v-74.548h-39.584c-16.098 0-31.358 3.651-45.001 10.164v142.645h132.846 132.846v-142.646c-13.645-6.512-28.905-10.163-45.003-10.163z" fill="#ff7c48"/><path d="m343.836 359.174h-39.584v74.548c0 26.611-21.649 48.261-48.26 48.261v30h132.846v-142.646c-13.644-6.512-28.904-10.163-45.002-10.163z" fill="#ff415b"/><path d="m314.953 359.174v-45.89h-117.923v45.89h-19.299v74.548c0 43.153 35.107 78.261 78.26 78.261s78.26-35.107 78.26-78.261v-74.548z" fill="#ffcbbc"/><path d="m334.252 433.722v-74.548h-19.299v-45.89h-58.961v198.698c43.152 0 78.26-35.107 78.26-78.26z" fill="#ffbcae"/><path d="m359.138 244.432c-18.945 0-37.41-3.713-54.88-11.036l-17.489-7.33c-19.56-8.198-41.996-8.196-61.556 0l-17.488 7.33c-17.471 7.323-35.936 11.036-54.881 11.036h-20.783c4.427 22.378 14.297 43.54 28.855 61.357 20.318 24.867 48.839 42.088 80.307 48.489l14.768 3.003 14.768-3.003c31.468-6.401 59.988-23.622 80.307-48.489 14.558-17.817 24.428-38.979 28.855-61.357z" fill="#e1ebf0"/><g><path d="m290.995 176.508h30v30.002h-30z" fill="#3b3735"/></g><path d="m351.066 305.789c14.558-17.817 24.428-38.979 28.855-61.357h-20.783c-18.945 0-37.41-3.713-54.88-11.036l-17.489-7.33c-9.78-4.099-20.279-6.148-30.778-6.148v137.364l14.768-3.003c31.468-6.402 59.989-23.623 80.307-48.49z" fill="#bed9dd"/><path d="m255.991 118.793h189.011v30h-189.011z" fill="#e1d3ce"/></g></svg>