<svg id="Layer_1" enable-background="new 0 0 511.99 511.99" height="512" viewBox="0 0 511.99 511.99" width="512" xmlns="http://www.w3.org/2000/svg"><g><path d="m297.259 20.36h-82.527c-47.045 0-85.319 38.274-85.319 85.319v32.191h253.166v-32.19c0-47.045-38.275-85.32-85.32-85.32z" fill="#ff415b"/><path d="m382.579 105.68c0-47.045-38.274-85.319-85.319-85.319h-41.264v117.511h126.583z" fill="#e50058"/><path d="m350.839 359.174h-189.688c-57.803 0-104.828 47.025-104.828 104.828v47.98h399.345v-47.98c-.001-57.803-47.026-104.828-104.829-104.828z" fill="#ff415b"/><path d="m455.667 464.002c0-57.803-47.025-104.828-104.828-104.828h-94.844v152.809h199.672z" fill="#e50058"/><path d="m219.326 261.063 17.487-7.33c12.188-5.108 26.173-5.11 38.363 0l17.488 7.33c21.162 8.87 43.528 13.368 66.478 13.368h11.242c7.966-17.833 12.195-37.278 12.195-57.003v-79.558h-253.167v79.558c0 19.725 4.229 39.17 12.195 57.003h11.242c22.948.001 45.315-4.497 66.477-13.368z" fill="#eecda1"/><path d="m255.996 137.871v112.03c6.543 0 13.086 1.277 19.181 3.832l17.488 7.33c21.162 8.87 43.528 13.368 66.478 13.368h11.242c7.966-17.833 12.195-37.278 12.195-57.003v-79.558h-126.584z" fill="#e8b36f"/><g><path d="m190.992 176.508h30v30.002h-30z" fill="#5d5655"/></g><g><path d="m290.999 176.508h30v30.002h-30z" fill="#5d5655"/></g><path d="m307.998 137.871v-70.868c0-28.721-23.283-52.003-52.003-52.003-28.721 0-52.003 23.283-52.003 52.003v70.868z" fill="#ffeb99"/><path d="m307.998 67.003c0-28.72-23.282-52.003-52.003-52.003v122.871h52.003z" fill="#ffda44"/><path d="m322.999 137.871h-30v-70.867c0-20.404-16.6-37.004-37.004-37.004-20.403 0-37.003 16.6-37.003 37.004v70.867h-30v-70.867c0-36.946 30.057-67.004 67.003-67.004s67.004 30.058 67.004 67.004z" fill="#ffda44"/><path d="m255.996 0v30c20.404 0 37.003 16.6 37.003 37.004v70.867h30v-70.867c0-36.946-30.058-67.004-67.003-67.004z" fill="#ffb655"/><g><path d="m241.006 63.87h30v30.002h-30z" fill="#ffda44"/></g><g><path d="m100.339 122.871h311.334v30h-311.334z" fill="#ffb655"/></g><path d="m314.957 359.173-117.923.001-66.195 64.972 54.113 87.839 142.086.005 54.113-87.844z" fill="#ffb655"/><path d="m381.151 424.146-66.194-64.973-58.961.001v152.814l71.042.002z" fill="#ff7c48"/><path d="m197.034 313.286v45.888l58.962 111.485 58.961-111.486v-45.887z" fill="#eecda1"/><path d="m314.957 359.173v-45.887h-58.961v157.373z" fill="#e8b36f"/><path d="m359.142 244.432c-18.945 0-37.41-3.713-54.88-11.036l-17.489-7.33c-19.559-8.197-41.996-8.197-61.557 0l-17.488 7.33c-17.47 7.323-35.935 11.036-54.88 11.036h-20.783c4.427 22.378 14.297 43.54 28.855 61.357 20.318 24.867 48.839 42.088 80.308 48.489l14.768 3.003 14.768-3.003c31.468-6.401 59.988-23.622 80.307-48.489 14.558-17.817 24.428-38.979 28.855-61.357z" fill="#e1ebf0"/><g><path d="m290.999 176.508h30v30.002h-30z" fill="#3b3735"/></g><path d="m351.07 305.789c14.558-17.817 24.428-38.979 28.855-61.357h-20.783c-18.945 0-37.41-3.713-54.88-11.036l-17.489-7.33c-9.779-4.099-20.278-6.148-30.777-6.148v137.364l14.768-3.003c31.467-6.402 59.987-23.623 80.306-48.49z" fill="#bed9dd"/><path d="m255.996 63.87h15.011v30.002h-15.011z" fill="#ffb655"/><path d="m255.996 122.871h155.678v30h-155.678z" fill="#ff7c48"/></g></svg>