<svg id="Layer_1" enable-background="new 0 0 511.982 511.982" height="512" viewBox="0 0 511.982 511.982" width="512" xmlns="http://www.w3.org/2000/svg"><g><path d="m219.311 261.063 17.486-7.33c12.19-5.109 26.176-5.107 38.364 0l17.488 7.33c21.165 8.87 43.531 13.368 66.478 13.368h11.242c7.966-17.832 12.194-37.278 12.194-57.003v-84.56h-253.166v84.56c0 19.725 4.229 39.17 12.195 57.003h11.242c22.946.001 45.312-4.497 66.477-13.368z" fill="#e8b36f"/><path d="m255.98 132.869v117.033c6.544 0 13.087 1.278 19.182 3.831l17.488 7.33c21.165 8.87 43.531 13.368 66.478 13.368h11.242c7.966-17.832 12.194-37.278 12.194-57.003v-84.56h-126.584z" fill="#c48958"/><g><path d="m190.977 176.508h30v30.002h-30z" fill="#5d5655"/></g><g><path d="m290.983 176.508h30v30.002h-30z" fill="#5d5655"/></g><path d="m293.787 0h-75.613c-48.951 0-88.776 39.825-88.776 88.776v44.093h253.166v-44.093c-.001-48.951-39.826-88.776-88.777-88.776z" fill="#5d5655"/><path d="m382.563 88.776c0-48.951-39.825-88.776-88.776-88.776h-37.807v132.869h126.583z" fill="#3b3735"/><path d="m178.89 359.174h-17.755c-57.802 0-104.827 47.025-104.827 104.828v47.98h147.469z" fill="#5d5655"/><path d="m350.825 359.174h-17.755l-24.887 152.809h147.47v-47.98c0-57.804-47.026-104.829-104.828-104.829z" fill="#5d5655"/><path d="m350.825 359.174h-17.755l-24.887 152.809h147.47v-47.98c0-57.804-47.026-104.829-104.828-104.829z" fill="#3b3735"/><path d="m161.135 359.174 24.887 152.808h139.916l24.887-152.808z" fill="#faf0f0"/><path d="m325.938 511.982 24.887-152.808h-94.845v152.808z" fill="#efe2dd"/><path d="m197.03 313.281v45.893l58.962 108.576 58.961-108.576v-45.893z" fill="#e8b36f"/><path d="m255.992 467.75 58.961-108.576v-45.893h-58.973v154.448z" fill="#c48958"/><g><path d="m412.565 335.809h-30v-10.653c0-7.779 2.281-15.313 6.597-21.784l6.95-10.425c2.082-3.123 2.082-7.159 0-10.281l-2.053-3.08c-8.822-13.231-8.822-30.332 0-43.564l2.053-3.078c2.082-3.123 2.082-7.159 0-10.281l-6.951-10.428c-4.314-6.47-6.596-14.002-6.596-21.781v-57.584h30v57.582c0 1.835.538 3.612 1.556 5.139l6.952 10.429c8.822 13.231 8.822 30.332 0 43.564l-2.053 3.078c-2.082 3.123-2.082 7.159 0 10.281l2.053 3.08c8.822 13.231 8.822 30.332 0 43.564l-6.951 10.426c-1.019 1.528-1.557 3.306-1.557 5.142z" fill="#5d5655"/></g><g><path d="m412.565 335.809h-30v-10.653c0-7.779 2.281-15.313 6.597-21.784l6.95-10.425c2.082-3.123 2.082-7.159 0-10.281l-2.053-3.08c-8.822-13.231-8.822-30.332 0-43.564l2.053-3.078c2.082-3.123 2.082-7.159 0-10.281l-6.951-10.428c-4.314-6.47-6.596-14.002-6.596-21.781v-57.584h30v57.582c0 1.835.538 3.612 1.556 5.139l6.952 10.429c8.822 13.231 8.822 30.332 0 43.564l-2.053 3.078c-2.082 3.123-2.082 7.159 0 10.281l2.053 3.08c8.822 13.231 8.822 30.332 0 43.564l-6.951 10.426c-1.019 1.528-1.557 3.306-1.557 5.142z" fill="#3b3735"/></g><g><path d="m129.376 335.809h-30v-10.653c0-1.836-.538-3.613-1.556-5.14l-6.952-10.429c-8.822-13.231-8.822-30.332 0-43.564l2.053-3.078c2.082-3.123 2.082-7.159 0-10.281l-2.053-3.08c-8.822-13.231-8.822-30.332 0-43.564l6.951-10.426c1.019-1.528 1.557-3.306 1.557-5.141v-57.583h30v57.582c0 7.779-2.281 15.312-6.597 21.783l-6.95 10.425c-2.082 3.123-2.082 7.159 0 10.281l2.053 3.08c8.822 13.231 8.822 30.332 0 43.564l-2.053 3.078c-2.082 3.123-2.082 7.159 0 10.281l6.951 10.428c4.314 6.47 6.596 14.003 6.596 21.782z" fill="#5d5655"/></g><g><path d="m53.658 117.87h404.667v30h-404.667z" fill="#6d6663"/></g><path d="m359.127 244.432c-18.943 0-37.408-3.713-54.881-11.036l-17.488-7.33c-19.561-8.197-41.997-8.197-61.558 0l-17.486 7.33c-17.473 7.323-35.938 11.036-54.881 11.036h-20.783c4.427 22.378 14.297 43.54 28.855 61.357 20.318 24.867 48.839 42.088 80.306 48.488l14.769 3.005 14.769-3.005c31.468-6.4 59.988-23.621 80.307-48.488 14.558-17.817 24.428-38.979 28.855-61.357z" fill="#e1ebf0"/><g><path d="m290.983 176.508h30v30.002h-30z" fill="#3b3735"/></g><path d="m255.98 117.87h202.345v30h-202.345z" fill="#5d5655"/><path d="m270.749 354.277c31.468-6.4 59.988-23.621 80.307-48.488 14.558-17.817 24.428-38.979 28.855-61.357h-20.782c-18.943 0-37.408-3.713-54.881-11.036l-17.488-7.33c-9.78-4.099-20.279-6.148-30.778-6.148v137.365z" fill="#bed9dd"/></g></svg>