<?xml version="1.0" encoding="UTF-8" standalone="no"?>
<svg
   xmlns:dc="http://purl.org/dc/elements/1.1/"
   xmlns:cc="http://creativecommons.org/ns#"
   xmlns:rdf="http://www.w3.org/1999/02/22-rdf-syntax-ns#"
   xmlns:svg="http://www.w3.org/2000/svg"
   xmlns="http://www.w3.org/2000/svg"
   xmlns:sodipodi="http://sodipodi.sourceforge.net/DTD/sodipodi-0.dtd"
   xmlns:inkscape="http://www.inkscape.org/namespaces/inkscape"
   sodipodi:docname="UPI Logo.svg"
   inkscape:version="1.0 (4035a4fb49, 2020-05-01)"
   id="svg347"
   version="1.1"
   viewBox="0 0 130.54 46.118"
   height="46.118mm"
   width="130.53999mm">
  <defs
     id="defs341">
    <clipPath
       id="clipPath28"
       clipPathUnits="userSpaceOnUse">
      <path
         id="path26"
         d="M 0,216 H 432 V 0 H 0 Z" />
    </clipPath>
  </defs>
  <sodipodi:namedview
     inkscape:window-maximized="0"
     inkscape:window-y="0"
     inkscape:window-x="122"
     inkscape:window-height="1030"
     inkscape:window-width="1375"
     showgrid="false"
     inkscape:document-rotation="0"
     inkscape:current-layer="layer1"
     inkscape:document-units="mm"
     inkscape:cy="704.43148"
     inkscape:cx="-205.74726"
     inkscape:zoom="0.5"
     inkscape:pageshadow="2"
     inkscape:pageopacity="0.0"
     borderopacity="1.0"
     bordercolor="#666666"
     pagecolor="#ffffff"
     id="base" />
  <g
     id="layer1"
     inkscape:groupmode="layer"
     inkscape:label="Layer 1">
    <g
       id="g22"
       transform="matrix(0.35277777,0,0,-0.35277777,-10.926321,61.158633)">
      <g
         id="g24"
         clip-path="url(#clipPath28)">
        <g
           id="g126"
           transform="translate(316.4629,76.4951)">
          <path
             d="M 0,0 H -19.283 L 7.535,96.855 h 19.284 z"
             style="fill:#66686c;fill-opacity:1;fill-rule:nonzero;stroke:none"
             id="path128" />
        </g>
        <g
           id="g130"
           transform="translate(306.4521,170.2881)">
          <path
             d="m 0,0 c -1.337,1.843 -3.399,2.773 -6.2,2.773 h -106.036 l -5.252,-18.97 h 19.294 v 0.011 h 77.169 l -5.614,-20.272 h -77.171 l 0.007,0.042 h -19.286 l -16.007,-57.787 h 19.296 l 10.742,38.786 h 86.746 c 2.709,0 5.259,0.924 7.657,2.772 2.393,1.85 3.968,4.131 4.723,6.855 L 0.809,-6.996 C 1.593,-4.181 1.322,-1.845 0,0"
             style="fill:#66686c;fill-opacity:1;fill-rule:nonzero;stroke:none"
             id="path132" />
        </g>
        <g
           id="g134"
           transform="translate(156.1196,82.541)">
          <path
             d="m 0,0 c -1.065,-3.835 -4.557,-6.488 -8.538,-6.488 h -99.491 c -2.711,0 -4.726,0.924 -6.051,2.77 -1.324,1.848 -1.608,4.134 -0.851,6.857 l 24.276,87.387 h 19.301 l -21.683,-78.05 h 77.206 l 21.683,78.05 h 19.297 z"
             style="fill:#66686c;fill-opacity:1;fill-rule:nonzero;stroke:none"
             id="path136" />
        </g>
        <g
           id="g138"
           transform="translate(376.5859,173.1689)">
          <path
             d="m 0,0 24.414,-48.553 -51.322,-48.54 z"
             style="fill:#27803b;fill-opacity:1;fill-rule:nonzero;stroke:none"
             id="path140" />
        </g>
        <g
           id="g142"
           transform="translate(359.4717,173.1689)">
          <path
             d="m 0,0 24.396,-48.553 -51.343,-48.54 z"
             style="fill:#e9661c;fill-opacity:1;fill-rule:nonzero;stroke:none"
             id="path144" />
        </g>
      </g>
    </g>
  </g>
</svg>
